<?xml version="1.0" encoding="UTF-8"?>
<svg version="1.1" xmlns="http://www.w3.org/2000/svg" width="465" height="465">
<path d="M0 0 C17.47958738 0.02982138 34.20528847 3.8688487 50.75 9.25 C52.50183594 9.81847656 52.50183594 9.81847656 54.2890625 10.3984375 C67.14658455 14.98808461 81.85128726 21.9568921 92.75 30.25 C92.75 30.91 92.75 31.57 92.75 32.25 C93.4409375 32.47042969 94.131875 32.69085938 94.84375 32.91796875 C98.4828708 34.58589912 101.26326273 36.953436 104.25 39.5625 C104.80558594 40.03623047 105.36117187 40.50996094 105.93359375 40.99804688 C109.35879478 43.94371976 112.57719215 47.03098621 115.75 50.25 C116.57757813 51.03117187 117.40515625 51.81234375 118.2578125 52.6171875 C151.7941105 84.75196857 168.17290981 132.84897095 169.375 178.5625 C169.48677183 199.38289401 163.18578622 221.98455389 155.75 241.25 C155.42 242.24 155.09 243.23 154.75 244.25 C154.09 244.25 153.43 244.25 152.75 244.25 C152.63897949 245.13155762 152.52795898 246.01311523 152.41357422 246.92138672 C151.74712313 250.26443092 150.77429815 252.54053279 149.1328125 255.5078125 C148.60816406 256.46300781 148.08351563 257.41820312 147.54296875 258.40234375 C146.71732422 259.87380859 146.71732422 259.87380859 145.875 261.375 C145.33230469 262.36371094 144.78960937 263.35242188 144.23046875 264.37109375 C141.93128958 268.52535637 139.67980773 272.5029244 136.75 276.25 C131.91040501 275.78992881 129.48720211 273.71231409 125.9375 270.5 C124.96167969 269.63890625 123.98585938 268.7778125 122.98046875 267.890625 C120.75 265.25 120.75 265.25 120.30078125 262.66015625 C120.99937171 258.91206657 122.73123636 256.46740455 124.75 253.25 C125.41 253.25 126.07 253.25 126.75 253.25 C126.88051758 252.66839111 127.01103516 252.08678223 127.14550781 251.48754883 C127.7285254 249.32948898 128.47670658 247.47111283 129.421875 245.44921875 C129.75413086 244.72742432 130.08638672 244.00562988 130.42871094 243.26196289 C130.78223633 242.49489014 131.13576172 241.72781738 131.5 240.9375 C139.57928726 222.98973452 145.22952275 204.05076476 145.75 184.25 C145.77046387 183.55471191 145.79092773 182.85942383 145.81201172 182.14306641 C146.63828051 150.26001701 139.3300746 122.96468198 123.75 95.25 C123.17507813 94.22003906 122.60015625 93.19007813 122.0078125 92.12890625 C101.15244402 57.2143217 64.40758856 35.44156588 26.07421875 25.0234375 C16.65323561 22.83148138 7.16016943 22.02624078 -2.484375 21.59375 C-5.25 21.25 -5.25 21.25 -7.25 19.25 C-7.49291992 17.38647461 -7.49291992 17.38647461 -7.48046875 15.15234375 C-7.47853516 14.35119141 -7.47660156 13.55003906 -7.47460938 12.72460938 C-7.46236328 11.88736328 -7.45011719 11.05011719 -7.4375 10.1875 C-7.43685547 9.34638672 -7.43621094 8.50527344 -7.43554688 7.63867188 C-7.38245219 0.31750528 -7.21621342 0.09371706 0 0 Z " fill="#E16524" transform="translate(241.25,57.75)"/>
<path d="M0 0 C1.52167786 -0.00945648 1.52167786 -0.00945648 3.07409668 -0.019104 C4.72254578 -0.01303131 4.72254578 -0.01303131 6.40429688 -0.00683594 C7.52872192 -0.00874939 8.65314697 -0.01066284 9.81164551 -0.01263428 C12.1923037 -0.01399711 14.57296931 -0.01029388 16.95361328 -0.00195312 C20.60791641 0.00874477 24.26172788 -0.00184538 27.91601562 -0.01464844 C30.22461047 -0.01332686 32.533205 -0.01076451 34.84179688 -0.00683594 C35.94076294 -0.0108844 37.039729 -0.01493286 38.17199707 -0.019104 C39.18644897 -0.01279968 40.20090088 -0.00649536 41.24609375 0 C42.58939758 0.00238678 42.58939758 0.00238678 43.95983887 0.00482178 C46.12304688 0.25878906 46.12304688 0.25878906 48.12304688 2.25878906 C48.38183594 4.7331543 48.38183594 4.7331543 48.38867188 7.81738281 C48.39125 8.92533203 48.39382813 10.03328125 48.39648438 11.17480469 C48.38875 12.33689453 48.38101563 13.49898437 48.37304688 14.69628906 C48.38078125 15.85451172 48.38851562 17.01273438 48.39648438 18.20605469 C48.39390625 19.31529297 48.39132812 20.42453125 48.38867188 21.56738281 C48.38641602 22.58630615 48.38416016 23.60522949 48.38183594 24.6550293 C48.12304688 27.25878906 48.12304688 27.25878906 46.12304688 30.25878906 C42.36004314 31.51312364 38.85093778 31.36574328 34.93554688 31.32128906 C34.18595703 31.31677734 33.43636719 31.31226563 32.6640625 31.30761719 C30.81702305 31.2958526 28.97002474 31.27791772 27.12304688 31.25878906 C27.12304688 34.22878906 27.12304688 37.19878906 27.12304688 40.25878906 C28.34121094 40.22398437 29.559375 40.18917969 30.81445312 40.15332031 C32.43813715 40.12516394 34.06183622 40.09786578 35.68554688 40.07128906 C36.48541016 40.04615234 37.28527344 40.02101562 38.109375 39.99511719 C43.56307898 39.92833714 47.32034735 40.60710554 52.12304688 43.25878906 C53.93818464 45.98149571 54.73168575 48.09319321 55.56933594 51.20703125 C56.17125984 53.43744063 56.82565431 55.64781956 57.49023438 57.86035156 C57.73435059 58.67415283 57.9784668 59.4879541 58.22998047 60.32641602 C58.48344238 61.17034912 58.7369043 62.01428223 58.99804688 62.88378906 C59.26053223 63.76317139 59.52301758 64.64255371 59.79345703 65.54858398 C60.96051166 69.44768852 62.13569879 73.34060172 63.40429688 77.20800781 C63.94570313 78.87283203 63.94570313 78.87283203 64.49804688 80.57128906 C64.81515625 81.51617187 65.13226563 82.46105469 65.45898438 83.43457031 C66.12304688 86.25878906 66.12304688 86.25878906 66.12304688 93.25878906 C14.97304688 93.25878906 -36.17695313 93.25878906 -88.87695312 93.25878906 C-90.04507549 88.58629961 -89.3865076 86.85066417 -87.92773438 82.32519531 C-87.71384567 81.65141342 -87.49995697 80.97763153 -87.27958679 80.28343201 C-86.59246778 78.12617474 -85.8913468 75.97377908 -85.18945312 73.82128906 C-84.73602197 72.40818439 -84.28353874 70.99477518 -83.83203125 69.58105469 C-83.16378862 67.48909742 -82.49356144 65.39793973 -81.81521606 63.30923462 C-80.04241056 57.84449853 -78.4186345 52.34267485 -76.8581543 46.81323242 C-75.85381286 44.19854606 -75.07765454 42.95213598 -72.87695312 41.25878906 C-69.12549946 40.00830451 -65.64019228 40.12734959 -61.73364258 40.14526367 C-60.48940521 40.14504463 -60.48940521 40.14504463 -59.22003174 40.14482117 C-56.4767394 40.14551815 -53.73351486 40.15330053 -50.99023438 40.16113281 C-49.08880144 40.16299775 -47.18736803 40.1644213 -45.28593445 40.16542053 C-40.28000564 40.16923971 -35.27410582 40.1790649 -30.26818848 40.19012451 C-25.16056714 40.2003515 -20.05294112 40.20492092 -14.9453125 40.20996094 C-4.9225133 40.22068768 5.10026438 40.23775694 15.12304688 40.25878906 C15.12304688 37.28878906 15.12304688 34.31878906 15.12304688 31.25878906 C13.87007813 31.29359375 12.61710937 31.32839844 11.32617188 31.36425781 C9.67514363 31.39240034 8.02410087 31.4197 6.37304688 31.44628906 C5.54804688 31.47142578 4.72304687 31.4965625 3.87304688 31.52246094 C2.67421875 31.53696289 2.67421875 31.53696289 1.45117188 31.55175781 C0.71801758 31.56746826 -0.01513672 31.58317871 -0.77050781 31.59936523 C-3.61564083 31.1393559 -4.89059942 30.34994899 -6.87695312 28.25878906 C-7.36279297 25.56323242 -7.36279297 25.56323242 -7.33789062 22.34863281 C-7.33402344 21.19427734 -7.33015625 20.03992188 -7.32617188 18.85058594 C-7.28943359 17.04170898 -7.28943359 17.04170898 -7.25195312 15.19628906 C-7.25066406 13.98650391 -7.249375 12.77671875 -7.24804688 11.53027344 C-7.13216268 0.01267241 -7.13216268 0.01267241 0 0 Z M0.12304688 7.25878906 C0.12304688 12.86878906 0.12304688 18.47878906 0.12304688 24.25878906 C4.08304687 23.92878906 8.04304688 23.59878906 12.12304688 23.25878906 C11.79304688 22.59878906 11.46304688 21.93878906 11.12304688 21.25878906 C10.46304688 21.25878906 9.80304688 21.25878906 9.12304688 21.25878906 C9.43156873 19.29982506 9.74498867 17.34163194 10.06054688 15.38378906 C10.23457031 14.29324219 10.40859375 13.20269531 10.58789062 12.07910156 C11.12304688 9.25878906 11.12304688 9.25878906 12.12304688 7.25878906 C8.16304687 7.25878906 4.20304687 7.25878906 0.12304688 7.25878906 Z M16.12304688 7.25878906 C16.45304687 7.91878906 16.78304687 8.57878906 17.12304688 9.25878906 C17.78304687 9.25878906 18.44304687 9.25878906 19.12304688 9.25878906 C19.12304688 10.57878906 19.12304688 11.89878906 19.12304688 13.25878906 C18.13304687 13.75378906 18.13304687 13.75378906 17.12304688 14.25878906 C17.78304687 14.25878906 18.44304687 14.25878906 19.12304688 14.25878906 C19.12304688 16.56878906 19.12304688 18.87878906 19.12304688 21.25878906 C18.46304688 21.25878906 17.80304688 21.25878906 17.12304688 21.25878906 C17.12304688 21.91878906 17.12304688 22.57878906 17.12304688 23.25878906 C24.81625848 23.93405529 32.39953389 24.37406538 40.12304688 24.25878906 C40.12304688 18.64878906 40.12304688 13.03878906 40.12304688 7.25878906 C32.20304687 7.25878906 24.28304687 7.25878906 16.12304688 7.25878906 Z M36.12304688 53.25878906 C36.12304688 55.23878906 36.12304688 57.21878906 36.12304688 59.25878906 C39.42304688 59.25878906 42.72304688 59.25878906 46.12304688 59.25878906 C46.12304688 57.60878906 46.12304688 55.95878906 46.12304688 54.25878906 C45.11468626 53.02611558 45.11468626 53.02611558 43.05664062 53.16113281 C41.82107422 53.17853516 41.82107422 53.17853516 40.56054688 53.19628906 C39.32111328 53.20982422 39.32111328 53.20982422 38.05664062 53.22363281 C37.09951172 53.24103516 37.09951172 53.24103516 36.12304688 53.25878906 Z M-10.87695312 54.25878906 C-10.87695312 55.90878906 -10.87695312 57.55878906 -10.87695312 59.25878906 C-7.90695313 59.25878906 -4.93695313 59.25878906 -1.87695312 59.25878906 C-1.54695313 57.93878906 -1.21695313 56.61878906 -0.87695312 55.25878906 C-4.45514276 52.91920353 -6.79920122 53.33202726 -10.87695312 54.25878906 Z M5.12304688 54.25878906 C5.12304688 55.90878906 5.12304688 57.55878906 5.12304688 59.25878906 C8.09304687 59.25878906 11.06304687 59.25878906 14.12304688 59.25878906 C14.12304688 57.27878906 14.12304688 55.29878906 14.12304688 53.25878906 C11.08104642 53.25878906 8.12771882 53.81365248 5.12304688 54.25878906 Z M21.12304688 54.25878906 C21.12304688 55.90878906 21.12304688 57.55878906 21.12304688 59.25878906 C24.09304688 59.25878906 27.06304687 59.25878906 30.12304688 59.25878906 C30.12304688 57.60878906 30.12304688 55.95878906 30.12304688 54.25878906 C26.74487263 53.4142455 24.44839444 53.15033987 21.12304688 54.25878906 Z M-67.87695312 56.25878906 C-67.87695312 63.84878906 -67.87695312 71.43878906 -67.87695312 79.25878906 C-64.21037789 80.48098081 -60.81657707 80.42104497 -56.99804688 80.42675781 C-56.23017349 80.43008621 -55.46230011 80.43341461 -54.67115784 80.43684387 C-53.04973957 80.44190202 -51.42831091 80.44425254 -49.80688477 80.4440918 C-47.32030263 80.44628391 -44.83416023 80.46446629 -42.34765625 80.48339844 C-40.77278798 80.48633141 -39.1979176 80.48831685 -37.62304688 80.48925781 C-36.50427406 80.50003609 -36.50427406 80.50003609 -35.36289978 80.5110321 C-31.16177008 80.63543229 -31.16177008 80.63543229 -27.87695312 78.25878906 C-27.58286162 75.94774632 -27.58286162 75.94774632 -27.64648438 73.28613281 C-27.64841797 72.30451172 -27.65035156 71.32289063 -27.65234375 70.31152344 C-27.66458984 69.28349609 -27.67683594 68.25546875 -27.68945312 67.19628906 C-27.69009766 66.16439453 -27.69074219 65.1325 -27.69140625 64.06933594 C-27.27287002 59.3183866 -27.27287002 59.3183866 -28.87695312 55.25878906 C-31.5081587 55.15777943 -34.11254011 55.11908423 -36.74414062 55.12597656 C-37.9299321 55.12454147 -37.9299321 55.12454147 -39.13967896 55.12307739 C-40.81593912 55.12239547 -42.49220191 55.12425057 -44.16845703 55.12841797 C-46.73411007 55.13375197 -49.29958692 55.12848073 -51.86523438 55.12207031 C-53.49153685 55.12273137 -55.11783921 55.1240131 -56.74414062 55.12597656 C-57.51297577 55.12395233 -58.28181091 55.1219281 -59.07394409 55.11984253 C-62.27263906 55.13389927 -64.82009579 55.23983662 -67.87695312 56.25878906 Z M-11.87695312 67.25878906 C-11.54695313 68.57878906 -11.21695313 69.89878906 -10.87695312 71.25878906 C-7.57695312 71.25878906 -4.27695313 71.25878906 -0.87695312 71.25878906 C-1.20695312 69.60878906 -1.53695312 67.95878906 -1.87695312 66.25878906 C-5.9073349 64.91532847 -8.7291142 64.11095014 -11.87695312 67.25878906 Z M5.12304688 66.25878906 C5.08240855 67.92496021 5.08032587 69.59267001 5.12304688 71.25878906 C8.09304687 71.25878906 11.06304687 71.25878906 14.12304688 71.25878906 C14.16576788 69.59267001 14.1636852 67.92496021 14.12304688 66.25878906 C12.94585703 64.8544597 12.94585703 64.8544597 9.62304688 65.13378906 C6.30023672 64.8544597 6.30023672 64.8544597 5.12304688 66.25878906 Z M21.12304688 66.25878906 C21.12304688 67.90878906 21.12304688 69.55878906 21.12304688 71.25878906 C24.09304688 71.25878906 27.06304687 71.25878906 30.12304688 71.25878906 C30.12304688 69.27878906 30.12304688 67.29878906 30.12304688 65.25878906 C26.78051963 65.18451068 24.31945547 65.19331953 21.12304688 66.25878906 Z M37.12304688 65.25878906 C37.12304688 67.23878906 37.12304688 69.21878906 37.12304688 71.25878906 C40.09304688 71.25878906 43.06304687 71.25878906 46.12304688 71.25878906 C46.12304688 69.27878906 46.12304688 67.29878906 46.12304688 65.25878906 C43.15304687 65.25878906 40.18304688 65.25878906 37.12304688 65.25878906 Z M-10.87695312 78.25878906 C-10.87695312 79.90878906 -10.87695312 81.55878906 -10.87695312 83.25878906 C-7.30050464 84.49679046 -4.54000547 84.00804977 -0.87695312 83.25878906 C-0.87695312 81.60878906 -0.87695312 79.95878906 -0.87695312 78.25878906 C-4.17695313 78.25878906 -7.47695312 78.25878906 -10.87695312 78.25878906 Z M6.12304688 78.25878906 C5.7408592 79.91493564 5.40909586 81.58335931 5.12304688 83.25878906 C6.10572546 84.4644009 6.10572546 84.4644009 7.97070312 84.35644531 C10.02148438 84.32389323 12.07226562 84.29134115 14.12304688 84.25878906 C14.50523455 82.60264249 14.83699789 80.93421882 15.12304688 79.25878906 C14.14036829 78.05317722 14.14036829 78.05317722 12.27539062 78.16113281 C10.22460938 78.1936849 8.17382812 78.22623698 6.12304688 78.25878906 Z M22.12304688 78.25878906 C22.12304688 79.90878906 22.12304688 81.55878906 22.12304688 83.25878906 C25.09304688 83.25878906 28.06304687 83.25878906 31.12304688 83.25878906 C31.12304688 81.60878906 31.12304688 79.95878906 31.12304688 78.25878906 C28.15304687 78.25878906 25.18304688 78.25878906 22.12304688 78.25878906 Z " fill="#225357" transform="translate(244.876953125,148.7412109375)"/>
<path d="M0 0 C2.6330313 -0.00067618 5.26606254 -0.00164879 7.89909363 -0.00289917 C13.3724316 -0.00469868 18.84575591 -0.00237246 24.3190918 0.00244141 C30.58922058 0.0078934 36.85931688 0.00610551 43.1294449 0.000615 C49.24406848 -0.00451868 55.35867799 -0.00391389 61.47330284 -0.00100327 C64.03935437 -0.00034344 66.60540675 -0.00112876 69.17145729 -0.00348282 C77.06701088 -0.00914245 84.96063823 0.02173457 92.85546875 0.1328125 C93.83165035 0.14601784 94.80783195 0.15922318 95.81359482 0.17282867 C98.48482222 0.22085998 101.15297374 0.29888456 103.82299805 0.39111328 C104.97428932 0.4114906 104.97428932 0.4114906 106.148839 0.43227959 C109.56556816 0.58629466 111.54838384 0.90494207 114.32514954 2.96542358 C116.50808456 6.05711133 116.42963822 8.95127195 116.38671875 12.6015625 C116.39054565 13.3188855 116.39437256 14.0362085 116.39831543 14.77526855 C116.40103102 16.28818164 116.3936943 17.80114195 116.37695312 19.31396484 C116.35553426 21.62574226 116.37676226 23.93441263 116.40234375 26.24609375 C116.39970041 27.71875684 116.39457528 29.191418 116.38671875 30.6640625 C116.39481567 31.35270386 116.4029126 32.04134521 116.41125488 32.75085449 C116.3503678 35.87749388 116.11999919 37.77566792 114.23867893 40.31565285 C111.07680425 42.72653173 109.16208424 42.63089698 105.20652771 42.62728882 C104.53960767 42.63211765 103.87268764 42.63694648 103.1855579 42.64192164 C100.95200078 42.65318878 98.7195896 42.63587807 96.48608398 42.61865234 C94.88446747 42.62079831 93.28285247 42.62467615 91.6812439 42.63015747 C87.3320912 42.63985488 82.98334872 42.62454329 78.63424563 42.60425138 C74.08592614 42.5866924 69.53761955 42.59020522 64.98927307 42.5909729 C57.35190968 42.58909962 49.71470519 42.5717311 42.07739258 42.54443359 C33.24207703 42.51297125 24.40693547 42.50243777 15.57156795 42.5039047 C7.07769186 42.50512457 -1.41612745 42.49492073 -9.9099865 42.47832108 C-13.52755107 42.47125239 -17.14509556 42.46759415 -20.7626667 42.46653366 C-25.02015826 42.4645274 -29.27750324 42.45233925 -33.53494644 42.43220139 C-35.09947373 42.42635054 -36.66401788 42.42390082 -38.22855568 42.42505646 C-40.36005185 42.42603524 -42.49113511 42.41475317 -44.62257385 42.40023804 C-45.81663125 42.39688635 -47.01068865 42.39353466 -48.2409296 42.39008141 C-51.14453125 42.1328125 -51.14453125 42.1328125 -54.14453125 40.1328125 C-55.33543831 36.56009132 -55.27410302 33.68028066 -55.27734375 29.91015625 C-55.27877884 28.85822838 -55.27877884 28.85822838 -55.28024292 27.78504944 C-55.28092258 26.30485952 -55.2790832 24.82466659 -55.27490234 23.34448242 C-55.26954301 21.07529031 -55.27485862 18.8062954 -55.28125 16.53710938 C-55.28058934 15.0989579 -55.27930842 13.66080654 -55.27734375 12.22265625 C-55.27621582 10.91159912 -55.27508789 9.60054199 -55.27392578 8.24975586 C-55.14453125 5.1328125 -55.14453125 5.1328125 -54.14453125 3.1328125 C-53.48453125 3.1328125 -52.82453125 3.1328125 -52.14453125 3.1328125 C-52.14453125 2.4728125 -52.14453125 1.8128125 -52.14453125 1.1328125 C-34.75513499 0.24488423 -17.40995961 -0.01604526 0 0 Z M26.60546875 18.3203125 C24.63404023 20.02349501 24.63404023 20.02349501 24.41796875 22.6328125 C24.68590853 25.13472881 24.68590853 25.13472881 26.04296875 26.9453125 C28.52784141 28.57333252 29.94258307 28.64256749 32.85546875 28.1328125 C34.86512649 26.53665245 34.86512649 26.53665245 35.85546875 24.1328125 C35.61472853 20.76244939 35.26748854 19.54483229 32.85546875 17.1328125 C29.02103499 16.82164009 29.02103499 16.82164009 26.60546875 18.3203125 Z " fill="#205659" transform="translate(203.14453125,245.8671875)"/>
<path d="M0 0 C0 6.6 0 13.2 0 20 C-2.7832287 21.39161435 -5.19830312 21.19337772 -8.3125 21.3125 C-35.01771975 22.80178531 -61.98916639 31.59629076 -84.06640625 46.78515625 C-86 48 -86 48 -88 48 C-88 48.66 -88 49.32 -88 50 C-89.47703766 51.14232434 -91.01095919 52.2111226 -92.5625 53.25 C-97.63833172 56.85305153 -102.2504303 60.76690665 -106.8125 65 C-107.43390869 65.56879883 -108.05531738 66.13759766 -108.69555664 66.72363281 C-112.55757013 70.3525091 -115.73345875 74.13241523 -118.74487305 78.49609375 C-119.36616089 79.24052734 -119.36616089 79.24052734 -120 80 C-120.66 80 -121.32 80 -122 80 C-122.27328125 80.73863281 -122.5465625 81.47726563 -122.828125 82.23828125 C-123.92811357 84.83058764 -125.14390069 86.88628782 -126.75 89.1875 C-143.24447714 113.46769141 -150.83295791 139.85880009 -152.76635742 168.90966797 C-153 171 -153 171 -154 174 C-160.6 174 -167.2 174 -174 174 C-175.15772967 144.36212036 -166.50244745 116.16969197 -153 90 C-152.34 90 -151.68 90 -151 90 C-151 88.68 -151 87.36 -151 86 C-150.34 86 -149.68 86 -149 86 C-148.90460938 85.27683594 -148.80921875 84.55367188 -148.7109375 83.80859375 C-147.88793339 80.55727531 -146.64223946 78.73431308 -144.625 76.0625 C-143.55185547 74.63744141 -143.55185547 74.63744141 -142.45703125 73.18359375 C-141.63898838 72.1216498 -140.81991907 71.06049602 -140 70 C-139.5467334 69.40848145 -139.0934668 68.81696289 -138.62646484 68.20751953 C-137.19470156 66.34176984 -135.75549919 64.48207083 -134.3125 62.625 C-133.86148926 62.04242432 -133.41047852 61.45984863 -132.94580078 60.85961914 C-125.62218609 51.5407287 -125.62218609 51.5407287 -121 50 C-121 49.34 -121 48.68 -121 48 C-119.5390625 46.4921875 -119.5390625 46.4921875 -117.625 44.875 C-116.99851563 44.33617187 -116.37203125 43.79734375 -115.7265625 43.2421875 C-114 42 -114 42 -112 42 C-112 41.34 -112 40.68 -112 40 C-110.26451831 38.55473264 -108.46024037 37.1912778 -106.625 35.875 C-105.62726563 35.15054688 -104.62953125 34.42609375 -103.6015625 33.6796875 C-101 32 -101 32 -99 32 C-99 31.34 -99 30.68 -99 30 C-98.51273437 29.731875 -98.02546875 29.46375 -97.5234375 29.1875 C-96.81445312 28.795625 -96.10546875 28.40375 -95.375 28 C-94.55128906 27.54496094 -93.72757812 27.08992188 -92.87890625 26.62109375 C-90.83243543 25.46873908 -88.79986017 24.29155382 -86.77734375 23.09765625 C-60.08662228 7.34913723 -30.92035575 -0.33609082 0 0 Z " fill="#1F575B" transform="translate(232,58)"/>
<path d="M0 0 C6.6 0 13.2 0 20 0 C20.7267315 23.11006165 17.33674716 44.40024599 9 66 C8.505 67.485 8.505 67.485 8 69 C7.34 69 6.68 69 6 69 C5.88897949 69.88155762 5.77795898 70.76311523 5.66357422 71.67138672 C4.99712313 75.01443092 4.02429815 77.29053279 2.3828125 80.2578125 C1.85816406 81.21300781 1.33351563 82.16820312 0.79296875 83.15234375 C0.24253906 84.13332031 -0.30789063 85.11429687 -0.875 86.125 C-1.68904297 87.60806641 -1.68904297 87.60806641 -2.51953125 89.12109375 C-4.81871042 93.27535637 -7.07019227 97.2529244 -10 101 C-14.83959499 100.53992881 -17.26279789 98.46231409 -20.8125 95.25 C-21.78832031 94.38890625 -22.76414062 93.5278125 -23.76953125 92.640625 C-26 90 -26 90 -26.44921875 87.41015625 C-25.75062829 83.66206657 -24.01876364 81.21740455 -22 78 C-21.34 78 -20.68 78 -20 78 C-19.86948242 77.41839111 -19.73896484 76.83678223 -19.60449219 76.23754883 C-19.0214746 74.07948898 -18.27329342 72.22111283 -17.328125 70.19921875 C-16.99586914 69.47742432 -16.66361328 68.75562988 -16.32128906 68.01196289 C-15.79100098 66.86135376 -15.79100098 66.86135376 -15.25 65.6875 C-5.60654396 44.26500544 -1.78334043 23.33203733 0 0 Z " fill="#622C7C" transform="translate(388,233)"/>
<path d="M0 0 C1.18613892 0.00785522 1.18613892 0.00785522 2.39624023 0.01586914 C3.67724609 0.02070313 3.67724609 0.02070313 4.98413086 0.02563477 C5.88196289 0.03401367 6.77979492 0.04239258 7.70483398 0.05102539 C8.6065332 0.05553711 9.50823242 0.06004883 10.43725586 0.06469727 C12.67234712 0.07652315 14.90730835 0.09300319 17.14233398 0.11352539 C17.20702881 0.73582031 17.27172363 1.35811523 17.33837891 1.99926758 C20.27494161 29.47440357 26.42894571 54.80216541 40.72485352 78.71899414 C41.18359863 79.50016602 41.64234375 80.28133789 42.11499023 81.08618164 C42.53014893 81.76946533 42.94530762 82.45274902 43.37304688 83.15673828 C44.33151763 85.5947399 44.110514 86.70840565 43.14233398 89.11352539 C39.82090541 92.11352539 39.82090541 92.11352539 37.14233398 92.11352539 C36.89483398 92.71165039 36.64733398 93.30977539 36.39233398 93.92602539 C34.913556 96.51388685 33.79971643 97.74687156 31.14233398 99.11352539 C28.41058654 98.57905306 26.70730002 97.80736328 24.9296875 95.62426758 C23.64557994 93.63908662 22.476081 91.61893551 21.32983398 89.55102539 C20.89896484 88.79160645 20.4680957 88.0321875 20.02416992 87.24975586 C9.91377242 69.16669435 2.7777673 50.57788514 -0.85766602 30.11352539 C-1.16510742 28.4080957 -1.16510742 28.4080957 -1.47875977 26.66821289 C-2.8606867 18.14791855 -3.35926398 9.73401142 -2.85766602 1.11352539 C-1.85766602 0.11352539 -1.85766602 0.11352539 0 0 Z " fill="#652C7D" transform="translate(60.857666015625,234.886474609375)"/>
<path d="M0 0 C17.47958738 0.02982138 34.20528847 3.8688487 50.75 9.25 C52.50183594 9.81847656 52.50183594 9.81847656 54.2890625 10.3984375 C67.14658455 14.98808461 81.85128726 21.9568921 92.75 30.25 C92.75 30.91 92.75 31.57 92.75 32.25 C93.4409375 32.47042969 94.131875 32.69085938 94.84375 32.91796875 C98.4828708 34.58589912 101.26326273 36.953436 104.25 39.5625 C104.80558594 40.03623047 105.36117187 40.50996094 105.93359375 40.99804688 C109.35879478 43.94371976 112.57719215 47.03098621 115.75 50.25 C116.57757813 51.03117187 117.40515625 51.81234375 118.2578125 52.6171875 C150.46725406 83.48056285 167.83615454 130.21660914 168.96484375 174.34765625 C169.13887263 189.86251828 169.13887263 189.86251828 167.75 195.25 C167.42 195.25 167.09 195.25 166.75 195.25 C166.75 188.65 166.75 182.05 166.75 175.25 C160.15 175.25 153.55 175.25 146.75 175.25 C146.57984375 173.42597656 146.4096875 171.60195312 146.234375 169.72265625 C143.53386914 141.9688297 137.4227746 119.57187326 123.75 95.25 C123.17507813 94.22003906 122.60015625 93.19007813 122.0078125 92.12890625 C101.15244402 57.2143217 64.40758856 35.44156588 26.07421875 25.0234375 C16.65323561 22.83148138 7.16016943 22.02624078 -2.484375 21.59375 C-5.25 21.25 -5.25 21.25 -7.25 19.25 C-7.49291992 17.38647461 -7.49291992 17.38647461 -7.48046875 15.15234375 C-7.47853516 14.35119141 -7.47660156 13.55003906 -7.47460938 12.72460938 C-7.46236328 11.88736328 -7.45011719 11.05011719 -7.4375 10.1875 C-7.43685547 9.34638672 -7.43621094 8.50527344 -7.43554688 7.63867188 C-7.38245219 0.31750528 -7.21621342 0.09371706 0 0 Z M-3.25 3.25 C-3.25 7.87 -3.25 12.49 -3.25 17.25 C-1.57292969 17.51554687 0.10414063 17.78109375 1.83203125 18.0546875 C4.07553097 18.41139457 6.31901999 18.768169 8.5625 19.125 C10.21282227 19.38603516 10.21282227 19.38603516 11.89648438 19.65234375 C15.18253394 20.17578527 18.46632986 20.71185529 21.75 21.25 C22.82040527 21.41790039 23.89081055 21.58580078 24.99365234 21.75878906 C25.98961426 21.9234668 26.98557617 22.08814453 28.01171875 22.2578125 C28.90205811 22.40105957 29.79239746 22.54430664 30.7097168 22.69189453 C31.38301025 22.87606934 32.05630371 23.06024414 32.75 23.25 C33.245 24.24 33.245 24.24 33.75 25.25 C38.94432248 26.83470855 44.32858775 27.53533749 49.75 27.25 C50.245 28.735 50.245 28.735 50.75 30.25 C53.07206525 30.95491267 55.40593068 31.62212429 57.75 32.25 C58.245 33.24 58.245 33.24 58.75 34.25 C62.09510352 35.87734766 63.93835834 36.25 67.75 36.25 C67.75 36.91 67.75 37.57 67.75 38.25 C68.7090625 38.435625 68.7090625 38.435625 69.6875 38.625 C70.368125 38.83125 71.04875 39.0375 71.75 39.25 C72.08 39.91 72.41 40.57 72.75 41.25 C76.53345632 43.49411646 76.53345632 43.49411646 80.75 44.25 C80.75 45.24 80.75 46.23 80.75 47.25 C81.86375 47.6625 82.9775 48.075 84.125 48.5 C87.54235563 49.76568727 88.20253564 51.03056265 89.75 54.25 C91.57827321 56.18050896 91.57827321 56.18050896 93.6875 57.9375 C94.37714844 58.53949219 95.06679688 59.14148438 95.77734375 59.76171875 C97.78001971 61.4371876 97.78001971 61.4371876 100.75 62.25 C100.75 62.91 100.75 63.57 100.75 64.25 C103.3114657 66.54648649 104.22967572 67.25 107.75 67.25 C107.75 67.91 107.75 68.57 107.75 69.25 C108.41 69.25 109.07 69.25 109.75 69.25 C109.75 70.57 109.75 71.89 109.75 73.25 C111.235 73.745 111.235 73.745 112.75 74.25 C112.9665625 75.2090625 112.9665625 75.2090625 113.1875 76.1875 C113.4659375 77.2084375 113.4659375 77.2084375 113.75 78.25 C115.71672915 79.4000831 115.71672915 79.4000831 117.75 80.25 C118.08 80.91 118.41 81.57 118.75 82.25 C119.41 82.25 120.07 82.25 120.75 82.25 C122.24140021 85.87197194 123.5374262 89.52566618 124.75 93.25 C125.41 93.25 126.07 93.25 126.75 93.25 C126.9046875 94.0853125 126.9046875 94.0853125 127.0625 94.9375 C127.89178408 97.7269101 129.09299056 99.8639064 130.75 102.25 C131.41 102.25 132.07 102.25 132.75 102.25 C133.08 104.23 133.41 106.21 133.75 108.25 C134.41 108.25 135.07 108.25 135.75 108.25 C135.88277344 108.79140625 136.01554688 109.3328125 136.15234375 109.890625 C136.83948005 112.6032415 137.57350459 115.30106023 138.3125 118 C138.58191406 118.98484375 138.85132813 119.9696875 139.12890625 120.984375 C139.43634766 122.10585937 139.43634766 122.10585937 139.75 123.25 C140.41 123.25 141.07 123.25 141.75 123.25 C141.87375 124.425625 141.9975 125.60125 142.125 126.8125 C142.46188039 129.56529403 142.94120554 131.88336834 143.75 134.5625 C144.87201701 138.69993773 145.21564939 142.62950624 145.50390625 146.89453125 C145.61220385 149.26761675 145.61220385 149.26761675 146.75 151.25 C146.87835086 152.81981592 146.95211249 154.3943099 146.99609375 155.96875 C147.02896484 156.90074219 147.06183594 157.83273438 147.09570312 158.79296875 C147.1568974 160.76420563 147.21418974 162.73556751 147.26757812 164.70703125 C147.30173828 165.63902344 147.33589844 166.57101563 147.37109375 167.53125 C147.40867798 168.81612305 147.40867798 168.81612305 147.44702148 170.12695312 C147.5638606 172.46393787 147.5638606 172.46393787 149.75 174.25 C153.10744112 174.49377883 153.10744112 174.49377883 156.875 174.375 C158.15632812 174.35695312 159.43765625 174.33890625 160.7578125 174.3203125 C161.74523437 174.29710937 162.73265625 174.27390625 163.75 174.25 C164.55701597 165.74529324 164.84283389 157.7261263 163.75 149.25 C163.62238281 148.05117188 163.62238281 148.05117188 163.4921875 146.828125 C163.37465608 143.23490598 163.37465608 143.23490598 161.75 140.25 C161.51807135 138.73530552 161.33784762 137.21245438 161.1875 135.6875 C161.10371094 134.86121094 161.01992188 134.03492188 160.93359375 133.18359375 C160.87300781 132.54550781 160.81242188 131.90742188 160.75 131.25 C159.76 131.25 158.77 131.25 157.75 131.25 C157.62625 130.095 157.5025 128.94 157.375 127.75 C156.84721115 123.46649625 155.86601963 119.41647328 154.75 115.25 C154.09 115.25 153.43 115.25 152.75 115.25 C152.52213542 113.26432292 152.29427083 111.27864583 152.06640625 109.29296875 C151.77829265 107.05603607 151.77829265 107.05603607 150.75 104.25 C150.09 104.25 149.43 104.25 148.75 104.25 C148.46125 103.1775 148.1725 102.105 147.875 101 C147.02179891 98.15599636 146.1863497 95.81491017 144.75 93.25 C144.09 93.25 143.43 93.25 142.75 93.25 C142.688125 92.38375 142.62625 91.5175 142.5625 90.625 C141.55516821 86.4406987 139.55382024 84.4641354 136.75 81.25 C136.05686092 79.59416775 135.38525576 77.92889021 134.75 76.25 C133.37514468 74.70833358 133.37514468 74.70833358 131.75 73.25 C129.60114015 70.64532139 127.6241454 68.0612181 125.75 65.25 C125.09 65.25 124.43 65.25 123.75 65.25 C123.3478125 63.88875 123.3478125 63.88875 122.9375 62.5 C121.83378891 59.47931703 120.96430079 57.54946621 118.75 55.25 C117.42139075 54.89830932 116.08841672 54.56229724 114.75 54.25 C114.42 53.26 114.09 52.27 113.75 51.25 C112 49 112 49 109.75 47.25 C108.43 47.25 107.11 47.25 105.75 47.25 C105.75 46.59 105.75 45.93 105.75 45.25 C105.09 45.25 104.43 45.25 103.75 45.25 C103.523125 44.6725 103.29625 44.095 103.0625 43.5 C100.53858516 39.17328885 96.11255425 36.54608118 91.75 34.25 C90.76 34.25 89.77 34.25 88.75 34.25 C88.75 33.59 88.75 32.93 88.75 32.25 C87.63625 31.59 86.5225 30.93 85.375 30.25 C84.74851562 29.87875 84.12203125 29.5075 83.4765625 29.125 C81.77527333 28.09931652 81.77527333 28.09931652 79.75 28.25 C79.75 27.59 79.75 26.93 79.75 26.25 C78.16925436 25.43247697 76.58528777 24.62118003 75 23.8125 C74.11828125 23.36003906 73.2365625 22.90757813 72.328125 22.44140625 C70.10801434 21.41544602 68.13555381 20.73491397 65.75 20.25 C65.75 19.59 65.75 18.93 65.75 18.25 C65.01394531 18.05664062 64.27789062 17.86328125 63.51953125 17.6640625 C62.54371094 17.40367188 61.56789063 17.14328125 60.5625 16.875 C59.59957031 16.61976562 58.63664062 16.36453125 57.64453125 16.1015625 C54.92789793 15.30233704 52.35862825 14.3468638 49.75 13.25 C49.75 12.59 49.75 11.93 49.75 11.25 C48.82316406 11.04503906 47.89632812 10.84007813 46.94140625 10.62890625 C45.74386719 10.35949219 44.54632813 10.09007813 43.3125 9.8125 C41.52005859 9.41224609 41.52005859 9.41224609 39.69140625 9.00390625 C36.75 8.25 36.75 8.25 35.75 7.25 C31.50771813 6.40085361 27.21611696 5.8244535 22.9375 5.1875 C21.75478516 5.00123047 20.57207031 4.81496094 19.35351562 4.62304688 C11.72921857 3.48128434 4.45837648 3.06744869 -3.25 3.25 Z " fill="#D46C3F" transform="translate(241.25,57.75)"/>
<path d="M0 0 C1.51400391 0.01740234 1.51400391 0.01740234 3.05859375 0.03515625 C4.07050781 0.04417969 5.08242187 0.05320312 6.125 0.0625 C7.29869141 0.07990234 7.29869141 0.07990234 8.49609375 0.09765625 C8.90601563 1.350625 9.3159375 2.60359375 9.73828125 3.89453125 C10.28239192 5.54562571 10.82667161 7.19666447 11.37109375 8.84765625 C11.64050781 9.67265625 11.90992188 10.49765625 12.1875 11.34765625 C12.45175781 12.146875 12.71601563 12.94609375 12.98828125 13.76953125 C13.34962158 14.8692627 13.34962158 14.8692627 13.71826172 15.99121094 C14.503792 18.11850388 15.44475048 20.09018571 16.49609375 22.09765625 C16.70290771 21.46674072 16.90972168 20.8358252 17.12280273 20.18579102 C18.05662801 17.34288176 18.99504701 14.50151009 19.93359375 11.66015625 C20.25908203 10.66693359 20.58457031 9.67371094 20.91992188 8.65039062 C21.23251953 7.70615234 21.54511719 6.76191406 21.8671875 5.7890625 C22.1552124 4.91451416 22.4432373 4.03996582 22.73999023 3.13891602 C23.49609375 1.09765625 23.49609375 1.09765625 24.49609375 0.09765625 C26.18218341 0.02560114 27.87110034 0.01379557 29.55859375 0.03515625 C30.47769531 0.04417969 31.39679688 0.05320312 32.34375 0.0625 C33.05402344 0.07410156 33.76429688 0.08570313 34.49609375 0.09765625 C38.18306105 7.51081391 40.33137213 15.13457313 42.49609375 23.09765625 C45.13609375 15.50765625 47.77609375 7.91765625 50.49609375 0.09765625 C54.12609375 0.09765625 57.75609375 0.09765625 61.49609375 0.09765625 C60.93745059 5.72133068 59.87039182 10.71866684 58.0625 16.0625 C57.8245018 16.78127823 57.5865036 17.50005646 57.34129333 18.24061584 C56.84148134 19.74342735 56.33794375 21.24500458 55.83081055 22.74536133 C55.05360993 25.04993439 54.29275677 27.35948044 53.53320312 29.66992188 C53.04393159 31.13443661 52.55373087 32.59864131 52.0625 34.0625 C51.83534805 34.754077 51.60819611 35.44565399 51.37416077 36.15818787 C49.72607306 40.98266659 49.72607306 40.98266659 47.49609375 42.09765625 C45.21875 42.37109375 45.21875 42.37109375 42.55859375 42.47265625 C41.68332031 42.52164063 40.80804688 42.570625 39.90625 42.62109375 C37.49609375 42.09765625 37.49609375 42.09765625 35.84765625 40.09375 C34.17982596 36.39656552 32.95776532 32.67011997 31.80859375 28.78515625 C31.58365234 28.04458984 31.35871094 27.30402344 31.12695312 26.54101562 C30.57731424 24.72837674 30.03586705 22.91325736 29.49609375 21.09765625 C27.00460591 27.04181506 24.86027199 32.93037242 23.20703125 39.1640625 C22.49609375 41.09765625 22.49609375 41.09765625 20.49609375 42.09765625 C18.21875 42.37109375 18.21875 42.37109375 15.55859375 42.47265625 C14.68332031 42.52164063 13.80804688 42.570625 12.90625 42.62109375 C10.49609375 42.09765625 10.49609375 42.09765625 8.828125 39.96484375 C3.38609267 28.25090906 -1.65797627 13.94630044 -3.50390625 1.09765625 C-2.50390625 0.09765625 -2.50390625 0.09765625 0 0 Z " fill="#3E393C" transform="translate(121.50390625,322.90234375)"/>
<path d="M0 0 C4.48787367 4.48787367 6.68918082 8.14895692 6.734375 14.46484375 C6.71890625 15.19832031 6.7034375 15.93179687 6.6875 16.6875 C6.70296875 17.42097656 6.7184375 18.15445312 6.734375 18.91015625 C6.69047903 25.04461783 4.6770952 28.58325239 0.40625 33.05078125 C-0.1609375 33.52902344 -0.728125 34.00726563 -1.3125 34.5 C-1.8796875 34.99113281 -2.446875 35.48226562 -3.03125 35.98828125 C-8.32828196 39.55448479 -15.72809484 38.6215836 -21.8125 38.1875 C-24.72331631 37.44357666 -27.08077283 36.47301867 -29.8125 35.1875 C-29.8125 34.5275 -29.8125 33.8675 -29.8125 33.1875 C-30.39 32.98125 -30.9675 32.775 -31.5625 32.5625 C-34.83539382 30.56239822 -36.04504057 28.6005251 -37.8125 25.1875 C-39.57807803 17.59170386 -38.8050692 11.1726384 -35.3125 4.1875 C-34.8175 3.5275 -34.3225 2.8675 -33.8125 2.1875 C-33.1525 2.1875 -32.4925 2.1875 -31.8125 2.1875 C-31.8125 1.5275 -31.8125 0.8675 -31.8125 0.1875 C-23.85058495 -8.12058527 -8.68235691 -5.59529668 0 0 Z M-24.8125 10.1875 C-26.5371216 13.6367432 -26.17860104 17.40881431 -25.8125 21.1875 C-24.55104888 24.15191013 -23.58935568 25.62494933 -21 27.5 C-16.75810908 28.83316572 -13.69575447 28.52721326 -9.5625 26.9375 C-6.16686608 24.78147686 -6.16686608 24.78147686 -4.8125 21.1875 C-4.1526154 16.15587994 -4.23664279 13.30814566 -7.3125 9.1875 C-9.70394309 6.72273436 -11.36482348 5.69227427 -14.8125 5.5 C-18.92717557 5.87118954 -21.63542551 7.55285286 -24.8125 10.1875 Z " fill="#3E383C" transform="translate(304.8125,326.8125)"/>
<path d="M0 0 C1.08990234 -0.020625 2.17980469 -0.04125 3.30273438 -0.0625 C10.72369504 -0.09863371 15.0695724 0.87185309 21.125 5.3125 C24.219028 9.4673376 24.58397298 13.13992031 24.3125 18.25 C23.47962312 22.10753502 21.83114978 24.71694328 19.0625 27.5625 C12.64319802 31.50161712 6.61357695 31.45002951 -0.6875 31.25 C-0.6875 34.88 -0.6875 38.51 -0.6875 42.25 C-9.18359375 42.34765625 -9.18359375 42.34765625 -11.6875 42.25 C-13.58373202 40.35376798 -12.81647626 37.58629641 -12.82644653 35.0637207 C-12.8244223 34.19706787 -12.82239807 33.33041504 -12.8203125 32.4375 C-12.82126923 31.55344482 -12.82222595 30.66938965 -12.82321167 29.75854492 C-12.82389351 27.88557871 -12.82203893 26.01261014 -12.81787109 24.13964844 C-12.81252289 21.26231612 -12.81781593 18.38513992 -12.82421875 15.5078125 C-12.82355797 13.69270799 -12.82227681 11.87760357 -12.8203125 10.0625 C-12.82233673 9.19584717 -12.82436096 8.32919434 -12.82644653 7.4362793 C-12.78843761 -2.18034217 -8.45789899 0.03931621 0 0 Z M-0.6875 10.25 C-0.6875 13.88 -0.6875 17.51 -0.6875 21.25 C5.26258735 21.63810153 5.26258735 21.63810153 10.875 20.125 C12.57051873 18.23063203 12.57051873 18.23063203 12.75 15.1875 C12.605625 14.218125 12.46125 13.24875 12.3125 12.25 C8.99879 10.04086 7.9678979 10.02518447 4.125 10.125 C2.536875 10.16625 0.94875 10.2075 -0.6875 10.25 Z " fill="#3F3B3E" transform="translate(240.6875,322.75)"/>
<path d="M0 0 C3.96 0 7.92 0 12 0 C16.42360703 9.14016817 20.53386321 18.40275003 24.5 27.75 C24.95745605 28.80960937 25.41491211 29.86921875 25.88623047 30.9609375 C26.30533691 31.95867187 26.72444336 32.95640625 27.15625 33.984375 C27.53587891 34.87866211 27.91550781 35.77294922 28.30664062 36.69433594 C29 39 29 39 28 42 C24.62131695 42.28525467 21.36802897 42.4508813 18 42 C15.9375 39.625 15.9375 39.625 15 37 C14.67 36.34 14.34 35.68 14 35 C10.810185 34.29257208 10.810185 34.29257208 7 34 C6.31808594 33.88785156 5.63617188 33.77570313 4.93359375 33.66015625 C2.56770227 33.31774865 2.56770227 33.31774865 -1 34 C-2.34107176 35.79586151 -2.34107176 35.79586151 -3.375 38 C-4.50390625 40.21875 -4.50390625 40.21875 -6 42 C-9.4220113 42.71930995 -12.5536476 42.48182014 -16 42 C-16.40109425 36.80984037 -15.03804832 33.05054309 -12.875 28.4375 C-12.55950195 27.74148682 -12.24400391 27.04547363 -11.91894531 26.32836914 C-10.95716225 24.21355579 -9.98021871 22.10632114 -9 20 C-8.43432422 18.77109629 -7.86918728 17.54194435 -7.3046875 16.3125 C-6.30338627 14.13882094 -5.29845866 11.96680684 -4.2890625 9.796875 C-2.79524868 6.55575169 -1.37795067 3.29177104 0 0 Z M5 15 C4.49596232 16.29009643 3.99690074 17.58213789 3.5 18.875 C3.2215625 19.59429687 2.943125 20.31359375 2.65625 21.0546875 C1.89344982 22.97367461 1.89344982 22.97367461 2 25 C4.64 25 7.28 25 10 25 C9.3001048 21.85047161 8.34839851 18.9347497 7 16 C6.34 15.67 5.68 15.34 5 15 Z " fill="#3C393C" transform="translate(197,323)"/>
<path d="M0 0 C1.28403083 4.4941079 0.90525135 5.23687162 -1 10 C-6.94 9.34 -12.88 8.68 -19 8 C-19 9.32 -19 10.64 -19 12 C-18.2265625 12.17015625 -17.453125 12.3403125 -16.65625 12.515625 C-0.75220346 16.21607147 -0.75220346 16.21607147 2.1875 20.88671875 C4.03858295 25.70131431 3.5490992 29.73468446 1.5625 34.3125 C-3.52405477 39.64717939 -9.47528866 40.17753962 -16.625 40.375 C-21.81617239 40.25950553 -27.10695226 39.89304774 -31 36 C-30.30232558 29.60465116 -30.30232558 29.60465116 -29 27 C-25.88362799 27.445196 -23.08494309 27.96860799 -20.125 29.0625 C-16.22502073 30.23249378 -13.05942911 30.13998031 -9 30 C-9.48421467 27.99942487 -9.48421467 27.99942487 -11 26 C-14.09320519 24.8066451 -17.12212849 23.929809 -20.32617188 23.109375 C-25.60991228 21.58330952 -27.96531603 19.6331053 -31 15 C-31.55859375 12.5859375 -31.55859375 12.5859375 -31.4375 10.375 C-31.41558594 9.64023437 -31.39367187 8.90546875 -31.37109375 8.1484375 C-30.82362405 4.9788761 -29.99477669 2.7718095 -27.4140625 0.76953125 C-26.52847656 0.29580078 -26.52847656 0.29580078 -25.625 -0.1875 C-25.03976562 -0.51105469 -24.45453125 -0.83460938 -23.8515625 -1.16796875 C-15.82860375 -4.77322237 -7.87099063 -3.1260672 0 0 Z " fill="#3C383B" transform="translate(345,325)"/>
<path d="M0 0 C0.99 0 1.98 0 3 0 C3.02686553 1.97909398 3.04633375 3.95828971 3.0625 5.9375 C3.07410156 7.03964844 3.08570313 8.14179688 3.09765625 9.27734375 C3 12 3 12 2 13 C-0.61497846 13.11979561 -3.20473777 13.17544974 -5.82104492 13.18945312 C-7.05038757 13.20189308 -7.05038757 13.20189308 -8.30456543 13.21458435 C-10.09102093 13.23202778 -11.87749987 13.24718271 -13.66399193 13.26036072 C-16.492797 13.28134144 -19.32148582 13.30837172 -22.15022278 13.33703613 C-28.16260388 13.39684745 -34.17503951 13.4488887 -40.1875 13.5 C-47.13645388 13.5592611 -54.08535164 13.62169768 -61.03420448 13.69187927 C-63.81821021 13.71839514 -66.60222162 13.73925155 -69.38627625 13.7598877 C-71.1015143 13.77650096 -72.81674988 13.7933737 -74.53198242 13.81054688 C-75.3036525 13.81473129 -76.07532257 13.81891571 -76.87037659 13.82322693 C-81.01198855 13.8710883 -84.93556442 14.19696755 -89 15 C-89.09869385 15.64179199 -89.1973877 16.28358398 -89.29907227 16.94482422 C-90.56556904 24.56012045 -92.60548701 31.77381042 -94.9375 39.125 C-95.28490234 40.24003906 -95.63230469 41.35507813 -95.99023438 42.50390625 C-97.92563218 48.69280545 -99.93980728 54.8517203 -102 61 C-95.16813964 61.02544981 -88.33629161 61.04290873 -81.50439453 61.05493164 C-79.18244978 61.05994629 -76.86050816 61.06675963 -74.53857422 61.07543945 C-71.19237492 61.08763092 -67.84621754 61.09325712 -64.5 61.09765625 C-62.95421265 61.10539818 -62.95421265 61.10539818 -61.37719727 61.11329651 C-56.53864398 61.11366927 -51.94043188 60.89950128 -47.14160156 60.2124176 C-42.322422 59.73442086 -37.45904789 60.00420068 -32.625 60.12109375 C-30.8773938 60.15651024 -30.8773938 60.15651024 -29.09448242 60.19264221 C-25.39618367 60.26883166 -21.69811836 60.3530472 -18 60.4375 C-15.4830841 60.49076549 -12.96615702 60.54350554 -10.44921875 60.59570312 C-4.29933671 60.72438587 1.85037381 60.85964768 8 61 C8 61.33 8 61.66 8 62 C-3.96410303 63.26416511 -15.91090717 63.12781135 -27.92578125 63.09765625 C-30.12680529 63.09578779 -32.32782976 63.09436591 -34.52885437 63.09336853 C-40.28100767 63.08957702 -46.03313513 63.07977603 -51.78527832 63.06866455 C-57.67130179 63.05837751 -63.55732948 63.05385538 -69.44335938 63.04882812 C-80.96225084 63.03815028 -92.48112326 63.021115 -104 63 C-105.27973149 58.78135048 -104.40769983 56.27589724 -103.05078125 52.06640625 C-102.83689255 51.39262436 -102.62300385 50.71884247 -102.40263367 50.02464294 C-101.71551465 47.86738568 -101.01439367 45.71499002 -100.3125 43.5625 C-99.85906884 42.14939533 -99.40658562 40.73598611 -98.95507812 39.32226562 C-98.2868355 37.23030835 -97.61660831 35.13915067 -96.93826294 33.05044556 C-95.16545744 27.58570947 -93.54168138 22.08388579 -91.98120117 16.55444336 C-90.97685973 13.939757 -90.20070142 12.69334692 -88 11 C-84.24854634 9.74951545 -80.76323916 9.86856053 -76.85668945 9.88647461 C-75.61245209 9.88625557 -75.61245209 9.88625557 -74.34307861 9.8860321 C-71.59978628 9.88672908 -68.85656173 9.89451147 -66.11328125 9.90234375 C-64.21184832 9.90420869 -62.31041491 9.90563224 -60.40898132 9.90663147 C-55.40305252 9.91045064 -50.3971527 9.92027584 -45.39123535 9.93133545 C-40.28361402 9.94156244 -35.175988 9.94613185 -30.06835938 9.95117188 C-20.04556018 9.96189862 -10.0227825 9.97896788 0 10 C0 6.7 0 3.4 0 0 Z " fill="#294A50" transform="translate(260,179)"/>
<path d="M0 0 C-0.57454326 3.43233636 -1.63396995 4.92758415 -4.1875 7.25 C-7.5073323 10.39905904 -10.1368044 13.73998882 -12.73828125 17.49609375 C-13.15464844 17.99238281 -13.57101563 18.48867187 -14 19 C-14.66 19 -15.32 19 -16 19 C-16.27328125 19.73863281 -16.5465625 20.47726563 -16.828125 21.23828125 C-17.92811357 23.83058764 -19.14390069 25.88628782 -20.75 28.1875 C-37.24447714 52.46769141 -44.83295791 78.85880009 -46.76635742 107.90966797 C-47 110 -47 110 -48 113 C-54.6 113 -61.2 113 -68 113 C-68.58918003 97.91699134 -66.53508598 84.64616207 -63 70 C-62.67 70 -62.34 70 -62 70 C-61.77954035 76.72401932 -62.23722366 83.25711611 -62.9375 89.9375 C-63.02435059 90.77837158 -63.11120117 91.61924316 -63.20068359 92.4855957 C-63.56800173 95.84611536 -63.92594397 98.7778319 -65 102 C-65.06665376 103.39439664 -65.08538199 104.79169875 -65.0625 106.1875 C-65.0315625 108.0746875 -65.0315625 108.0746875 -65 110 C-60.05 110.33 -55.1 110.66 -50 111 C-50.061875 109.081875 -50.12375 107.16375 -50.1875 105.1875 C-50.15504002 89.10357931 -47.47305401 70.88188027 -39 57 C-38.23306382 54.78717308 -38.23306382 54.78717308 -37.6875 52.5 C-35.85759133 46.04665187 -33.19306271 39.89693754 -30 34 C-29.34 33.67 -28.68 33.34 -28 33 C-26.61844182 30.68254757 -25.2904858 28.36672106 -24 26 C-22.375 23.0625 -22.375 23.0625 -21 21 C-20.34 21 -19.68 21 -19 21 C-18.773125 20.484375 -18.54625 19.96875 -18.3125 19.4375 C-15.32368904 13.88685107 -11.56864454 9.34021231 -7 5 C-6.113125 4.071875 -5.22625 3.14375 -4.3125 2.1875 C-2 0 -2 0 0 0 Z M-48 32 C-47.67 32 -47.34 32 -47 32 C-46.08492894 38.95454004 -49.94559345 44.22774497 -53.14453125 50.1015625 C-54.19034403 52.15066756 -54.19034403 52.15066756 -54.3125 55.25 C-55.18401914 60.00374076 -57.27276581 63.09181394 -60 67 C-60.66 67.99 -61.32 68.98 -62 70 C-61.47171043 63.34199761 -59.68115268 57.76104553 -57.25 51.5625 C-56.91484375 50.67240234 -56.5796875 49.78230469 -56.234375 48.86523438 C-53.9511791 42.94535712 -51.22806649 37.46050647 -48 32 Z " fill="#274C54" transform="translate(126,119)"/>
<path d="M0 0 C0.87237305 0.01796631 1.74474609 0.03593262 2.64355469 0.05444336 C3.88733887 0.11063843 3.88733887 0.11063843 5.15625 0.16796875 C6.26709961 0.20893677 6.26709961 0.20893677 7.40039062 0.25073242 C10.47951317 1.07457672 11.63050086 2.23753438 13.5 4.8125 C13.89842915 7.4451394 14.06215695 9.65262168 14.03125 12.28125 C14.0350769 12.998573 14.03890381 13.715896 14.04284668 14.45495605 C14.04556227 15.96786914 14.03822555 17.48082945 14.02148438 18.99365234 C14.00006551 21.30542976 14.02129351 23.61410013 14.046875 25.92578125 C14.04423166 27.39844434 14.03910653 28.8711055 14.03125 30.34375 C14.03934692 31.03239136 14.04744385 31.72103271 14.05578613 32.43054199 C13.99489905 35.55718138 13.76453044 37.45535542 11.88321018 39.99534035 C8.7213355 42.40621923 6.80661549 42.31058448 2.85105896 42.30697632 C2.18413892 42.31180515 1.51721889 42.31663398 0.83008915 42.32160914 C-1.40346797 42.33287628 -3.63587915 42.31556557 -5.86938477 42.29833984 C-7.47100128 42.30048581 -9.07261628 42.30436365 -10.67422485 42.30984497 C-15.02337755 42.31954238 -19.37212003 42.30423079 -23.72122312 42.28393888 C-28.26954261 42.2663799 -32.8178492 42.26989272 -37.36619568 42.2706604 C-45.00355907 42.26878712 -52.64076356 42.2514186 -60.27807617 42.22412109 C-69.11339172 42.19265875 -77.94853328 42.18212527 -86.7839008 42.1835922 C-95.27777689 42.18481207 -103.7715962 42.17460823 -112.26545525 42.15800858 C-115.88301982 42.15093989 -119.50056431 42.14728165 -123.11813545 42.14622116 C-127.37562701 42.1442149 -131.63297199 42.13202675 -135.89041519 42.11188889 C-137.45494248 42.10603804 -139.01948663 42.10358832 -140.58402443 42.10474396 C-142.7155206 42.10572274 -144.84660386 42.09444067 -146.9780426 42.07992554 C-148.7691287 42.074898 -148.7691287 42.074898 -150.59639835 42.06976891 C-153.5 41.8125 -153.5 41.8125 -156.5 39.8125 C-156.6875 36.6875 -156.6875 36.6875 -156.5 33.8125 C-155.84 33.8125 -155.18 33.8125 -154.5 33.8125 C-153.84 35.4625 -153.18 37.1125 -152.5 38.8125 C-71.815 39.3075 -71.815 39.3075 10.5 39.8125 C10.5 28.5925 10.5 17.3725 10.5 5.8125 C7.3765873 3.73022487 6.50750359 3.54470827 2.9296875 3.43359375 C1.58390625 3.38235352 1.58390625 3.38235352 0.2109375 3.33007812 C-1.19285156 3.29043945 -1.19285156 3.29043945 -2.625 3.25 C-9.30330939 3.02833295 -15.86596052 2.63327585 -22.5 1.8125 C-22.5 1.4825 -22.5 1.1525 -22.5 0.8125 C-14.98666663 -0.18011518 -7.55884249 -0.26741833 0 0 Z " fill="#224B50" transform="translate(305.5,246.1875)"/>
<path d="M0 0 C23.13724051 0.03947372 60.51729081 5.56962187 77.796875 22.22265625 C78.44140625 22.89167969 79.0859375 23.56070313 79.75 24.25 C81.28550544 25.41157406 82.8498002 26.53585328 84.4375 27.625 C85.30761719 28.22570312 86.17773438 28.82640625 87.07421875 29.4453125 C90.33116696 31.64196954 93.62223114 33.78306122 96.9375 35.890625 C98.75 37.25 98.75 37.25 100.75 40.25 C96.75 38.25 92.75 36.25 88.75 34.25 C88.75 33.59 88.75 32.93 88.75 32.25 C87.821875 31.96125 86.89375 31.6725 85.9375 31.375 C82.75 30.25 82.75 30.25 79.75 28.25 C79.75 27.59 79.75 26.93 79.75 26.25 C79.02425781 26.13785156 78.29851562 26.02570313 77.55078125 25.91015625 C74.62436007 25.22038613 72.52712191 24.19489186 69.9375 22.6875 C69.14730469 22.23246094 68.35710937 21.77742188 67.54296875 21.30859375 C66.95128906 20.95925781 66.35960937 20.60992187 65.75 20.25 C65.75 19.59 65.75 18.93 65.75 18.25 C64.88375 18.12625 64.0175 18.0025 63.125 17.875 C58.34167418 16.98919892 54.03414204 15.55684572 49.75 13.25 C49.75 12.59 49.75 11.93 49.75 11.25 C48.5125 11.3428125 48.5125 11.3428125 47.25 11.4375 C43.75 11.25 43.75 11.25 40.359375 9.87109375 C34.59642602 7.63119757 28.59451688 6.9667841 22.5 6.125 C20.77330078 5.87169922 20.77330078 5.87169922 19.01171875 5.61328125 C11.60172883 4.55232441 4.21461117 3.8058753 -3.25 3.25 C-3.25 7.87 -3.25 12.49 -3.25 17.25 C-1.71859375 17.17265625 -1.71859375 17.17265625 -0.15625 17.09375 C6.41513073 17.09375 12.81550881 18.54026334 19.25 19.75 C20.56238106 19.99153258 21.87488041 20.23242333 23.1875 20.47265625 C26.37621771 21.05881759 29.56359166 21.65143409 32.75 22.25 C32.75 23.24 32.75 24.23 32.75 25.25 C31.53828125 24.98445313 30.3265625 24.71890625 29.078125 24.4453125 C17.00080038 21.87432468 5.05406114 20.24479643 -7.25 19.25 C-7.27683987 16.27077407 -7.29676037 13.29178705 -7.3125 10.3125 C-7.32087891 9.46236328 -7.32925781 8.61222656 -7.33789062 7.73632812 C-7.34111328 6.92744141 -7.34433594 6.11855469 -7.34765625 5.28515625 C-7.35289307 4.5362915 -7.35812988 3.78742676 -7.36352539 3.01586914 C-7.09917163 -1.09611103 -3.32208776 0.043144 0 0 Z " fill="#C5643C" transform="translate(241.25,57.75)"/>
<path d="M0 0 C4.62 0 9.24 0 14 0 C14 0.66 14 1.32 14 2 C14.61875 2.144375 15.2375 2.28875 15.875 2.4375 C18 3 18 3 20 4 C20.44921875 5.9609375 20.44921875 5.9609375 20.6875 8.375 C20.77386719 9.16648438 20.86023438 9.95796875 20.94921875 10.7734375 C21 13 21 13 20 16 C19.34 16 18.68 16 18 16 C18 16.66 18 17.32 18 18 C18.82242187 17.98839844 19.64484375 17.97679687 20.4921875 17.96484375 C27.41775034 17.90886345 34.12320612 18.17889028 41 19 C41 13.39 41 7.78 41 2 C34.73 2 28.46 2 22 2 C22.33 1.34 22.66 0.68 23 0 C25.93804996 -0.08086376 28.87388075 -0.1404283 31.8125 -0.1875 C32.64587891 -0.21263672 33.47925781 -0.23777344 34.33789062 -0.26367188 C35.14033203 -0.27333984 35.94277344 -0.28300781 36.76953125 -0.29296875 C37.87711792 -0.31653442 37.87711792 -0.31653442 39.00708008 -0.34057617 C41.59279711 0.10130491 42.45060616 0.91129445 44 3 C44.27255157 5.57605193 44.37402728 7.87058187 44.3125 10.4375 C44.30863281 11.75621094 44.30476563 13.07492188 44.30078125 14.43359375 C44.02910584 17.65488795 43.83669222 19.40160264 42 22 C39.20473202 23.86351199 38.15954373 24.34308907 35 24.75 C34.319375 24.84796875 33.63875 24.9459375 32.9375 25.046875 C31 25 31 25 28 23 C28.66 22.67 29.32 22.34 30 22 C29.26885986 21.97494385 28.53771973 21.9498877 27.78442383 21.92407227 C24.46028583 21.80777359 21.13640759 21.68520072 17.8125 21.5625 C16.66201172 21.52318359 15.51152344 21.48386719 14.32617188 21.44335938 C13.21435547 21.40146484 12.10253906 21.35957031 10.95703125 21.31640625 C9.93585205 21.27974854 8.91467285 21.24309082 7.86254883 21.20532227 C5.16171537 21.01159937 2.63833872 20.59548047 0 20 C-1.19231274 16.42306178 -1.1461202 13.15817447 -1.125 9.4375 C-1.12886719 8.75236328 -1.13273438 8.06722656 -1.13671875 7.36132812 C-1.12669335 2.2533867 -1.12669335 2.2533867 0 0 Z M1 2 C1 7.61 1 13.22 1 19 C4.96 18.67 8.92 18.34 13 18 C12.67 17.34 12.34 16.68 12 16 C11.34 16 10.68 16 10 16 C10.30852185 14.041036 10.6219418 12.08284287 10.9375 10.125 C11.11152344 9.03445312 11.28554687 7.94390625 11.46484375 6.8203125 C12 4 12 4 13 2 C9.04 2 5.08 2 1 2 Z " fill="#274950" transform="translate(244,154)"/>
<path d="M0 0 C6.6 0 13.2 0 20 0 C20.7267315 23.11006165 17.33674716 44.40024599 9 66 C8.67 66.99 8.34 67.98 8 69 C7.34 69 6.68 69 6 69 C5.88897949 69.88155762 5.77795898 70.76311523 5.66357422 71.67138672 C4.99712313 75.01443092 4.02429815 77.29053279 2.3828125 80.2578125 C1.85816406 81.21300781 1.33351563 82.16820312 0.79296875 83.15234375 C0.24253906 84.13332031 -0.30789063 85.11429687 -0.875 86.125 C-1.68904297 87.60806641 -1.68904297 87.60806641 -2.51953125 89.12109375 C-4.81871042 93.27535637 -7.07019227 97.2529244 -10 101 C-13.24208567 100.64950425 -14.61527704 100.43778819 -16.8125 97.9375 C-17.4003125 96.9784375 -17.4003125 96.9784375 -18 96 C-15.36 95.67 -12.72 95.34 -10 95 C-9.9175 94.443125 -9.835 93.88625 -9.75 93.3125 C-8.76104459 90.26322081 -7.15242534 88.34810037 -5 86 C-4.34 86 -3.68 86 -3 86 C-2.82017578 84.93265625 -2.82017578 84.93265625 -2.63671875 83.84375 C-1.97137197 80.87213986 -1.00174589 78.30184793 0.1875 75.5 C0.63480469 74.43523437 1.08210938 73.37046875 1.54296875 72.2734375 C2.46993221 70.19087616 3.44703311 68.12940009 4.48828125 66.1015625 C13.56962913 48.22045893 15.10711589 27.67373692 17 8 C17.66 8 18.32 8 19 8 C19 6.35 19 4.7 19 3 C13.06 3 7.12 3 1 3 C1.020625 4.464375 1.04125 5.92875 1.0625 7.4375 C1.06953385 12.36823058 0.63066267 17.11236433 0 22 C-0.33 22 -0.66 22 -1 22 C-1.02752977 20.02091515 -1.04663002 18.04171269 -1.0625 16.0625 C-1.07410156 14.96035156 -1.08570313 13.85820312 -1.09765625 12.72265625 C-0.98603044 8.46748047 -0.47006721 4.23060493 0 0 Z " fill="#5E2D68" transform="translate(388,233)"/>
<path d="M0 0 C5.25105442 -0.02464928 10.50207545 -0.04283568 15.75317383 -0.05493164 C17.54094021 -0.05997218 19.32870245 -0.06680454 21.11645508 -0.07543945 C23.68051168 -0.0875173 26.24451397 -0.09323094 28.80859375 -0.09765625 C29.6127623 -0.10281754 30.41693085 -0.10797882 31.24546814 -0.11329651 C33.16401715 -0.11349215 35.08245368 -0.06201983 37 0 C38 1 38 1 38.125 4.5 C38 8 38 8 37 9 C34.42978157 9.10094226 31.88701968 9.13971237 29.31640625 9.1328125 C28.16035133 9.13424759 28.16035133 9.13424759 26.98094177 9.13571167 C25.34756387 9.13639349 23.71418327 9.13453909 22.08081055 9.13037109 C19.57659828 9.12503007 17.07256597 9.13031224 14.56835938 9.13671875 C12.9843746 9.13605783 11.40038994 9.13477637 9.81640625 9.1328125 C9.0642836 9.13483673 8.31216095 9.13686096 7.5372467 9.13894653 C2.22991249 9.11495624 2.22991249 9.11495624 0 8 C0 5.36 0 2.72 0 0 Z " fill="#1D454A" transform="translate(178,206)"/>
<path d="M0 0 C4.6068271 0.01040009 9.21366004 0.01483263 13.82049561 0.01983643 C22.79056257 0.03042424 31.76060428 0.0473932 40.73065186 0.06866455 C40.40065186 0.72866455 40.07065186 1.38866455 39.73065186 2.06866455 C20.21566838 3.29106956 0.67645803 3.38627486 -18.86914062 3.60089111 C-23.43551856 3.65185125 -28.00184409 3.70714129 -32.56817627 3.76202393 C-41.46852174 3.86838037 -50.36891345 3.97007746 -59.26934814 4.06866455 C-59.59934814 5.05866455 -59.92934814 6.04866455 -60.26934814 7.06866455 C-61.25934814 7.06866455 -62.24934814 7.06866455 -63.26934814 7.06866455 C-63.08372314 8.30616455 -62.89809814 9.54366455 -62.70684814 10.81866455 C-62.24097895 13.92445916 -62.47212757 16.05103705 -63.26934814 19.06866455 C-63.31203053 20.46384515 -63.3100109 21.86092363 -63.26934814 23.25616455 C-63.20713938 27.93737408 -63.6798491 32.42635956 -64.26934814 37.06866455 C-64.59934814 37.06866455 -64.92934814 37.06866455 -65.26934814 37.06866455 C-65.29403671 32.54799805 -65.31220264 28.02737065 -65.32427979 23.50665283 C-65.32931366 21.96823442 -65.33614122 20.42982081 -65.3447876 18.89141846 C-65.35689453 16.68225929 -65.36258583 14.47316329 -65.36700439 12.26397705 C-65.37216568 11.57433868 -65.37732697 10.88470032 -65.38264465 10.17416382 C-65.38321985 5.29640796 -65.38321985 5.29640796 -64.26934814 3.06866455 C-63.60934814 3.06866455 -62.94934814 3.06866455 -62.26934814 3.06866455 C-62.26934814 2.40866455 -62.26934814 1.74866455 -62.26934814 1.06866455 C-41.51325776 -0.11150546 -20.78117716 -0.05202207 0 0 Z " fill="#2D5057" transform="translate(213.26934814453125,245.93133544921875)"/>
<path d="M0 0 C0.99 0 1.98 0 3 0 C4.01372999 3.04118997 4.28393966 5.82186077 4.54345703 9.00146484 C6.58286639 33.05492411 14.20806089 55.90319422 26.58251953 76.60546875 C27.04126465 77.38664062 27.50000977 78.1678125 27.97265625 78.97265625 C28.38781494 79.65593994 28.80297363 80.33922363 29.23071289 81.04321289 C30.19886924 83.50585115 30.02981348 84.58275994 29 87 C26.125 89.3125 26.125 89.3125 23 91 C21.515 90.505 21.515 90.505 20 90 C21.2684375 88.9171875 21.2684375 88.9171875 22.5625 87.8125 C25.31434798 85.27368771 25.31434798 85.27368771 24.9375 82.25 C24.22002336 79.83767007 24.22002336 79.83767007 22 79 C21.26572863 77.33990821 20.53429857 75.67715972 19.87890625 73.984375 C19.00833097 71.89243765 19.00833097 71.89243765 17.55859375 69.6953125 C15.76488553 66.59341106 14.65707612 63.51463965 13.5 60.125 C12.26933121 56.53554935 11.01368536 53.0314692 9.5 49.55078125 C3.04021188 34.25925155 0 16.55819107 0 0 Z " fill="#5E2D6E" transform="translate(75,237)"/>
<path d="M0 0 C0 6.6 0 13.2 0 20 C-2.96116216 21.48058108 -6.05800694 21.33246652 -9.3125 21.5 C-14.45098247 21.75384225 -14.45098247 21.75384225 -19.5234375 22.52734375 C-22.8131683 23.15519458 -25.96695061 23.09376682 -29.3125 23.0625 C-30.56675781 23.05347656 -31.82101563 23.04445313 -33.11328125 23.03515625 C-34.06589844 23.02355469 -35.01851562 23.01195313 -36 23 C-35.67 22.34 -35.34 21.68 -35 21 C-24.51882215 18.02895746 -12.80163532 17.95070573 -2 17 C-2.33 11.72 -2.66 6.44 -3 1 C-4.04800781 1.28875 -5.09601563 1.5775 -6.17578125 1.875 C-13.24612871 3.64375462 -20.50171872 4.47667221 -27.70898438 5.5 C-28.82982422 5.665 -29.95066406 5.83 -31.10546875 6 C-32.11762451 6.144375 -33.12978027 6.28875 -34.17260742 6.4375 C-36.97943586 6.99590884 -39.35549241 7.9310436 -42 9 C-45.3125 9.125 -45.3125 9.125 -48 9 C-45.4345406 6.4345406 -43.52313332 6.45953913 -40 6 C-40 5.34 -40 4.68 -40 4 C-26.52342662 1.07271152 -13.82588701 -0.15028138 0 0 Z " fill="#264C52" transform="translate(232,58)"/>
<path d="M0 0 C3.76547669 3.76547669 3.91348469 5.90173585 5 11 C5.66 11 6.32 11 7 11 C17.0930108 59.59063771 17.0930108 59.59063771 13 78 C12.67 78 12.34 78 12 78 C12 71.4 12 64.8 12 58 C5.4 58 -1.2 58 -8 58 C-7.34 57.01 -6.68 56.02 -6 55 C-5.67 55.33 -5.34 55.66 -5 56 C-2.65012738 56.23527773 -0.29443961 56.41386417 2.0625 56.5625 C3.35285156 56.64628906 4.64320313 56.73007813 5.97265625 56.81640625 C7.47119141 56.90728516 7.47119141 56.90728516 9 57 C9.11043434 48.59471966 8.95879459 40.35333365 8 32 C7.91621094 31.20078125 7.83242188 30.4015625 7.74609375 29.578125 C7.62425685 25.98494048 7.62425685 25.98494048 6 23 C5.92820036 21.48071962 5.91607993 19.95832518 5.9375 18.4375 C5.94652344 17.61121094 5.95554687 16.78492188 5.96484375 15.93359375 C5.97644531 15.29550781 5.98804688 14.65742188 6 14 C5.01 14 4.02 14 3 14 C2.01 9.38 1.02 4.76 0 0 Z " fill="#D46436" transform="translate(396,175)"/>
<path d="M0 0 C6.73006157 0.53596256 12.62296735 1.87781461 19 4.0625 C19.90484131 4.36905518 20.80968262 4.67561035 21.74194336 4.99145508 C27.8175317 7.10611555 33.72832133 9.47758302 39.5625 12.1875 C40.25794922 12.5079126 40.95339844 12.8283252 41.66992188 13.15844727 C45.4601645 14.99074427 48.15268039 16.92757179 51 20 C52.53550544 21.16157406 54.0998002 22.28585328 55.6875 23.375 C56.55761719 23.97570312 57.42773438 24.57640625 58.32421875 25.1953125 C61.58116696 27.39196954 64.87223114 29.53306122 68.1875 31.640625 C70 33 70 33 72 36 C68 34 64 32 60 30 C60 29.34 60 28.68 60 28 C59.071875 27.71125 58.14375 27.4225 57.1875 27.125 C54 26 54 26 51 24 C51 23.34 51 22.68 51 22 C50.27425781 21.88785156 49.54851562 21.77570313 48.80078125 21.66015625 C45.87436007 20.97038613 43.77712191 19.94489186 41.1875 18.4375 C40.39730469 17.98246094 39.60710937 17.52742188 38.79296875 17.05859375 C38.20128906 16.70925781 37.60960937 16.35992187 37 16 C37 15.34 37 14.68 37 14 C36.13375 13.87625 35.2675 13.7525 34.375 13.625 C29.59167418 12.73919892 25.28414204 11.30684572 21 9 C21 8.34 21 7.68 21 7 C19.7625 7.0928125 19.7625 7.0928125 18.5 7.1875 C14.18775024 6.95648662 10.93661062 5.67740414 7 4 C6.31808594 3.71382813 5.63617188 3.42765625 4.93359375 3.1328125 C3.28425769 2.43309417 1.64140911 1.71811649 0 1 C0 0.67 0 0.34 0 0 Z " fill="#CD6A3A" transform="translate(270,62)"/>
<path d="M0 0 C0.99 0 1.98 0 3 0 C3.02686553 1.97909398 3.04633375 3.95828971 3.0625 5.9375 C3.07410156 7.03964844 3.08570313 8.14179688 3.09765625 9.27734375 C3 12 3 12 2 13 C-0.62025198 13.11979343 -3.21533618 13.17544967 -5.83691406 13.18945312 C-6.65808212 13.19774643 -7.47925018 13.20603973 -8.32530212 13.21458435 C-10.11503386 13.23202699 -11.90478898 13.24718215 -13.69455719 13.26036072 C-16.52728825 13.28133636 -19.35990298 13.30836614 -22.19256592 13.33703613 C-28.21166604 13.39684616 -34.23082048 13.44890177 -40.25 13.5 C-47.20974665 13.55923366 -54.16943689 13.6216257 -61.12908173 13.69187927 C-63.91922713 13.71842746 -66.70937818 13.73926316 -69.49957275 13.7598877 C-71.21488714 13.77649747 -72.93019901 13.7933699 -74.64550781 13.81054688 C-75.42077316 13.81473129 -76.19603851 13.81891571 -76.99479675 13.82322693 C-80.78170495 13.86707275 -84.3171067 14.09101125 -88 15 C-88 14.34 -88 13.68 -88 13 C-84.79637674 11.39818837 -81.30755666 11.81980984 -77.78662109 11.79467773 C-76.9377684 11.78477814 -76.08891571 11.77487854 -75.21434021 11.76467896 C-72.40073462 11.73302083 -69.58711212 11.70828951 -66.7734375 11.68359375 C-64.82572992 11.66302794 -62.87802684 11.64203157 -60.93032837 11.62062073 C-55.7978479 11.56536148 -50.66532689 11.51596921 -45.53277588 11.46777344 C-40.29785545 11.41758652 -35.06299406 11.36188581 -29.828125 11.30664062 C-19.55213374 11.19901194 -9.27609127 11.09757744 1 11 C0.505 5.555 0.505 5.555 0 0 Z " fill="#1D4248" transform="translate(260,179)"/>
<path d="M0 0 C0.66 0 1.32 0 2 0 C2.495 9.405 2.495 9.405 3 19 C0.03883784 20.48058108 -3.05800694 20.33246652 -6.3125 20.5 C-11.45098247 20.75384225 -11.45098247 20.75384225 -16.5234375 21.52734375 C-19.8131683 22.15519458 -22.96695061 22.09376682 -26.3125 22.0625 C-27.56675781 22.05347656 -28.82101563 22.04445313 -30.11328125 22.03515625 C-31.06589844 22.02355469 -32.01851562 22.01195313 -33 22 C-32.67 21.34 -32.34 20.68 -32 20 C-21.51882215 17.02895746 -9.80163532 16.95070573 1 16 C0.67 10.72 0.34 5.44 0 0 Z " fill="#274953" transform="translate(229,59)"/>
<path d="M0 0 C1.98 0.495 1.98 0.495 4 1 C3.01 1 2.02 1 1 1 C1.33 12.88 1.66 24.76 2 37 C4.64 37 7.28 37 10 37 C10 38.32 10 39.64 10 41 C6.37 41 2.74 41 -1 41 C-1.02467609 35.48242521 -1.04284856 29.96488239 -1.05493164 24.44726562 C-1.05996763 22.56933025 -1.06679671 20.6913988 -1.07543945 18.81347656 C-1.08753713 16.11782868 -1.09323557 13.42223253 -1.09765625 10.7265625 C-1.10281754 9.88380768 -1.10797882 9.04105286 -1.11329651 8.17276001 C-1.11387171 2.22774341 -1.11387171 2.22774341 0 0 Z " fill="#392E36" transform="translate(230,324)"/>
<path d="M0 0 C3.70286315 5.55429473 4 9.18096667 4 16 C-14.48 16 -32.96 16 -52 16 C-52 15.67 -52 15.34 -52 15 C-41.08717196 13.8905147 -30.26752575 13.9129649 -19.3125 14 C-15.89193072 14.02656753 -12.47141431 14.0465049 -9.05078125 14.0625 C-8.27068192 14.07079834 -7.49058258 14.07909668 -6.68684387 14.08764648 C-2.714577 14.19588843 -2.714577 14.19588843 1 13 C0.67 8.71 0.34 4.42 0 0 Z " fill="#325054" transform="translate(307,226)"/>
<path d="M0 0 C4.62 0 9.24 0 14 0 C14 0.66 14 1.32 14 2 C14.61875 2.144375 15.2375 2.28875 15.875 2.4375 C18 3 18 3 20 4 C20 6.31 20 8.62 20 11 C18.02 10.34 16.04 9.68 14 9 C14 7.68 14 6.36 14 5 C13.34 5 12.68 5 12 5 C12 4.34 12 3.68 12 3 C8.37 2.67 4.74 2.34 1 2 C1 7.61 1 13.22 1 19 C2.98 19 4.96 19 7 19 C7 19.33 7 19.66 7 20 C4.69 20 2.38 20 0 20 C-1.19231274 16.42306178 -1.1461202 13.15817447 -1.125 9.4375 C-1.12886719 8.75236328 -1.13273438 8.06722656 -1.13671875 7.36132812 C-1.12669335 2.2533867 -1.12669335 2.2533867 0 0 Z " fill="#264B51" transform="translate(244,154)"/>
<path d="M0 0 C1.32 0.33 2.64 0.66 4 1 C3.97679687 1.54785156 3.95359375 2.09570312 3.9296875 2.66015625 C3.7763292 9.3969672 4.59629533 15.81896826 5.5546875 22.48046875 C6.04955273 26.39164044 6.16046751 30.06854611 6 34 C5.34 34 4.68 34 4 34 C0.04424034 22.96376297 -0.3173707 11.60166226 0 0 Z " fill="#582868" transform="translate(58,237)"/>
<path d="M0 0 C1.17755859 -0.00773438 1.17755859 -0.00773438 2.37890625 -0.015625 C4.4375 0.25 4.4375 0.25 6.4375 2.25 C6.5625 4.875 6.5625 4.875 6.4375 7.25 C1.64612412 8.8790678 -1.61882546 9.45577428 -6.5625 8.25 C-6.8925 6.27 -7.2225 4.29 -7.5625 2.25 C-4.42838698 0.16059132 -3.58799528 -0.02364412 0 0 Z " fill="#27494E" transform="translate(209.5625,218.75)"/>
<path d="M0 0 C6.6 0 13.2 0 20 0 C20.02700156 3.72921526 20.04684022 7.45823443 20.0625 11.1875 C20.07087891 12.24259766 20.07925781 13.29769531 20.08789062 14.38476562 C20.09272461 15.91713867 20.09272461 15.91713867 20.09765625 17.48046875 C20.10551147 18.88655396 20.10551147 18.88655396 20.11352539 20.32104492 C20.00082657 22.98049477 19.59376649 25.40920573 19 28 C18.67 28 18.34 28 18 28 C17.87794218 19.59157222 18.19310325 11.37155379 19 3 C13.06 3 7.12 3 1 3 C1.020625 4.464375 1.04125 5.92875 1.0625 7.4375 C1.06953385 12.36823058 0.63066267 17.11236433 0 22 C-0.33 22 -0.66 22 -1 22 C-1.02752977 20.02091515 -1.04663002 18.04171269 -1.0625 16.0625 C-1.07410156 14.96035156 -1.08570313 13.85820312 -1.09765625 12.72265625 C-0.98603044 8.46748047 -0.47006721 4.23060493 0 0 Z " fill="#713564" transform="translate(388,233)"/>
<path d="M0 0 C0.66 0 1.32 0 2 0 C2 0.66 2 1.32 2 2 C2.804375 1.814375 3.60875 1.62875 4.4375 1.4375 C5.7059375 1.2209375 5.7059375 1.2209375 7 1 C7.33 1.33 7.66 1.66 8 2 C9.99964982 2.08758003 12.0023611 2.10696576 14.00390625 2.09765625 C15.82631836 2.09282227 15.82631836 2.09282227 17.68554688 2.08789062 C18.96494141 2.07951172 20.24433594 2.07113281 21.5625 2.0625 C23.48739258 2.05573242 23.48739258 2.05573242 25.45117188 2.04882812 C28.63416022 2.03699545 31.81705762 2.02051068 35 2 C35 2.99 35 3.98 35 5 C11.41761516 6.19388403 11.41761516 6.19388403 0 6 C0 4.02 0 2.04 0 0 Z " fill="#235259" transform="translate(178,207)"/>
<path d="M0 0 C0.33 0 0.66 0 1 0 C1 2.97 1 5.94 1 9 C1.66 8.34 2.32 7.68 3 7 C2.29737977 11.5918716 1.32801536 16.05950908 0.1875 20.5625 C-0.28623047 22.48255859 -0.28623047 22.48255859 -0.76953125 24.44140625 C-2.02715285 28.07852776 -3.48302729 30.13912409 -6 33 C-7.04451438 34.97711651 -8.05698138 36.97250996 -9 39 C-10 37 -10 37 -8.92578125 33.53515625 C-8.39175337 32.04292979 -7.8537032 30.55213911 -7.3125 29.0625 C-3.97177184 19.53177116 -1.86785361 9.91061148 0 0 Z " fill="#68356F" transform="translate(386,255)"/>
<path d="M0 0 C7.2265322 -0.05058332 14.45301899 -0.08568412 21.6796875 -0.10986328 C24.13966579 -0.11993983 26.59963206 -0.13360131 29.05957031 -0.15087891 C32.58922285 -0.17505461 36.11871747 -0.1864664 39.6484375 -0.1953125 C40.75367767 -0.20563507 41.85891785 -0.21595764 42.99765015 -0.22659302 C44.01855743 -0.22674408 45.03946472 -0.22689514 46.09130859 -0.22705078 C46.99287689 -0.231492 47.89444519 -0.23593323 48.82333374 -0.24050903 C51 0 51 0 53 2 C53.125 4.625 53.125 4.625 53 7 C51.5 5.625 51.5 5.625 50 4 C50 3.34 50 2.68 50 2 C33.5 2 17 2 0 2 C0 1.34 0 0.68 0 0 Z " fill="#425661" transform="translate(240,149)"/>
<path d="M0 0 C3.338894 2.86190914 5.00966892 5.7534811 6.8671875 9.63671875 C8.19654259 12.41002851 9.57760104 15.14813969 11 17.875 C11.474375 18.80054688 11.94875 19.72609375 12.4375 20.6796875 C14.10551834 23.15669474 15.24191209 23.96571703 18 25 C17.34 25.66 16.68 26.32 16 27 C14.03173828 26.85473633 14.03173828 26.85473633 12 26 C10.65966797 24.3894043 10.65966797 24.3894043 9.4921875 22.32421875 C9.06292969 21.57849609 8.63367188 20.83277344 8.19140625 20.06445312 C7.75699219 19.28005859 7.32257813 18.49566406 6.875 17.6875 C6.43285156 16.91470703 5.99070312 16.14191406 5.53515625 15.34570312 C4.33674843 13.24034316 3.15288088 11.13061756 2 9 C1.43949951 7.96903198 1.43949951 7.96903198 0.86767578 6.91723633 C-0.21863332 4.5169028 -0.14467984 2.60423715 0 0 Z " fill="#5C2A6A" transform="translate(75,306)"/>
<path d="M0 0 C5.19606986 -0.09895826 10.39158998 -0.17150993 15.58837891 -0.21972656 C17.35572872 -0.2398285 19.12301213 -0.26711472 20.89013672 -0.30175781 C23.43213285 -0.35034009 25.97324896 -0.37298226 28.515625 -0.390625 C29.69865204 -0.42159271 29.69865204 -0.42159271 30.90557861 -0.45318604 C34.48068449 -0.45464475 36.57444578 -0.30946383 39.50585938 1.82226562 C41.60130984 4.87641891 41.39643035 7.08924131 41.25 10.75 C41.21390625 11.92046875 41.1778125 13.0909375 41.140625 14.296875 C41.09421875 15.18890625 41.0478125 16.0809375 41 17 C40.01 17.33 39.02 17.66 38 18 C37.95101562 17.00097656 37.90203125 16.00195312 37.8515625 14.97265625 C37.77679688 13.68230469 37.70203125 12.39195312 37.625 11.0625 C37.52058594 9.13083984 37.52058594 9.13083984 37.4140625 7.16015625 C37.20910156 5.59587891 37.20910156 5.59587891 37 4 C36.34 3.67 35.68 3.34 35 3 C35 2.34 35 1.68 35 1 C23.45 1 11.9 1 0 1 C0 0.67 0 0.34 0 0 Z " fill="#1F494E" transform="translate(179,201)"/>
<path d="M0 0 C-1.95126232 4.39034021 -4.13722242 8.22023264 -8.6875 10.125 C-9.450625 10.41375 -10.21375 10.7025 -11 11 C-11.33 11.99 -11.66 12.98 -12 14 C-16.00840547 18.63471882 -20.8505173 21.73529528 -26 25 C-24.39868849 20.60192783 -22.5469451 18.11439082 -19 15 C-18.01 14.67 -17.02 14.34 -16 14 C-16 13.34 -16 12.68 -16 12 C-14.5390625 10.4921875 -14.5390625 10.4921875 -12.625 8.875 C-11.68527344 8.06675781 -11.68527344 8.06675781 -10.7265625 7.2421875 C-9 6 -9 6 -7 6 C-7 5.34 -7 4.68 -7 4 C-2.52941176 0 -2.52941176 0 0 0 Z " fill="#2B4D59" transform="translate(127,94)"/>
<path d="M0 0 C0.99 0 1.98 0 3 0 C4.33306647 3.99919941 4.62971223 7.94459074 5.0625 12.125 C5.15337891 12.94226563 5.24425781 13.75953125 5.33789062 14.6015625 C5.916256 20.09820784 6.08340025 25.47334336 6 31 C2.89470892 28.49461264 2.49532142 26.49560595 2.05078125 22.59765625 C1.92509766 21.54255859 1.79941406 20.48746094 1.66992188 19.40039062 C1.55197266 18.29888672 1.43402344 17.19738281 1.3125 16.0625 C1.18294922 14.96486328 1.05339844 13.86722656 0.91992188 12.73632812 C0.42603292 8.45334404 0 4.31598322 0 0 Z " fill="#542665" transform="translate(75,237)"/>
<path d="M0 0 C2.64 0 5.28 0 8 0 C8 0.33 8 0.66 8 1 C5.69 1 3.38 1 1 1 C1.33 3.31 1.66 5.62 2 8 C4.97 8 7.94 8 11 8 C11.33 6.35 11.66 4.7 12 3 C12.33 3 12.66 3 13 3 C13 5.64 13 8.28 13 11 C12.34 11 11.68 11 11 11 C11 11.66 11 12.32 11 13 C7.625 13.125 7.625 13.125 4 13 C3.34 12.34 2.68 11.68 2 11 C1.46375 10.5875 0.9275 10.175 0.375 9.75 C-1.64040812 7.18493512 -1.26957962 5.16756054 -1 2 C-0.67 1.34 -0.34 0.68 0 0 Z " fill="#25494F" transform="translate(232,200)"/>
<path d="M0 0 C0.33 0 0.66 0 1 0 C1 4.62 1 9.24 1 14 C2.53140625 13.92265625 2.53140625 13.92265625 4.09375 13.84375 C10.66513073 13.84375 17.06550881 15.29026334 23.5 16.5 C24.81238106 16.74153258 26.12488041 16.98242333 27.4375 17.22265625 C30.62621771 17.80881759 33.81359166 18.40143409 37 19 C37 19.99 37 20.98 37 22 C35.75347656 21.73445313 34.50695312 21.46890625 33.22265625 21.1953125 C22.16005232 18.88496213 11.24291584 17.16306026 0 16 C0 10.72 0 5.44 0 0 Z " fill="#CF652C" transform="translate(237,61)"/>
<path d="M0 0 C1.25261116 3.61865445 0.95828868 6.31427432 0 10 C-0.66 10.94875 -1.32 11.8975 -2 12.875 C-4.50940613 16.79594708 -4.68307928 19.40464958 -5 24 C-7 22.8125 -7 22.8125 -9 21 C-10.06937076 16.18783159 -7.47103989 12.93821982 -5 9 C-4.34 9 -3.68 9 -3 9 C-2.814375 8.1646875 -2.814375 8.1646875 -2.625 7.3125 C-1.94023145 4.77885636 -1.00866237 2.42078968 0 0 Z " fill="#69336D" transform="translate(371,302)"/>
<path d="M0 0 C3.63 0 7.26 0 11 0 C11 1.98 11 3.96 11 6 C7.37 6 3.74 6 0 6 C0 4.02 0 2.04 0 0 Z " fill="#D86426" transform="translate(282,227)"/>
<path d="M0 0 C-4.84060277 3.06242216 -8.29290936 4.53411505 -14 5 C-14 5.66 -14 6.32 -14 7 C-16.64 7.66 -19.28 8.32 -22 9 C-22 9.66 -22 10.32 -22 11 C-23.95330868 12.03041513 -25.91281528 13.0490893 -27.875 14.0625 C-28.96554688 14.63097656 -30.05609375 15.19945313 -31.1796875 15.78515625 C-32.11039063 16.18605469 -33.04109375 16.58695313 -34 17 C-34.66 16.67 -35.32 16.34 -36 16 C-29.20839095 11.59060796 -22.40933629 7.53783663 -15.0625 4.125 C-14.14198853 3.69658813 -14.14198853 3.69658813 -13.20288086 3.25952148 C-2.86832818 -1.43416409 -2.86832818 -1.43416409 0 0 Z " fill="#31545F" transform="translate(175,69)"/>
<path d="M0 0 C5.28 0 10.56 0 16 0 C16 1.32 16 2.64 16 4 C10.72 4 5.44 4 0 4 C0 2.68 0 1.36 0 0 Z " fill="#43535A" transform="translate(178,223)"/>
<path d="M0 0 C0.66 0.33 1.32 0.66 2 1 C-0.72555055 3.40489755 -2.76667334 4.92372013 -6.25 6.0625 C-7.1575 6.371875 -8.065 6.68125 -9 7 C-9.33 7.99 -9.66 8.98 -10 10 C-11.65 10.33 -13.3 10.66 -15 11 C-15.33 11.99 -15.66 12.98 -16 14 C-18.0625 14.6875 -18.0625 14.6875 -20 15 C-19.3125 12.625 -19.3125 12.625 -18 10 C-15.375 8.6875 -15.375 8.6875 -13 8 C-13 7.34 -13 6.68 -13 6 C-11.96939453 5.60167969 -11.96939453 5.60167969 -10.91796875 5.1953125 C-10.01691406 4.84210938 -9.11585938 4.48890625 -8.1875 4.125 C-7.29417969 3.77695313 -6.40085938 3.42890625 -5.48046875 3.0703125 C-2.82288409 2.01167845 -2.82288409 2.01167845 0 0 Z " fill="#254F55" transform="translate(146,82)"/>
<path d="M0 0 C4.20831868 -0.02914348 8.41661122 -0.04684712 12.625 -0.0625 C14.40970703 -0.07506836 14.40970703 -0.07506836 16.23046875 -0.08789062 C17.38417969 -0.09111328 18.53789062 -0.09433594 19.7265625 -0.09765625 C21.31331787 -0.10551147 21.31331787 -0.10551147 22.93212891 -0.11352539 C26.03362346 0.00124422 28.95347657 0.42303718 32 1 C32 1.66 32 2.32 32 3 C34.475 3.495 34.475 3.495 37 4 C37 4.33 37 4.66 37 5 C28.55314768 4.35913185 20.15680494 3.47470321 11.75 2.4375 C10.04263672 2.22963867 10.04263672 2.22963867 8.30078125 2.01757812 C5.53360122 1.68040073 2.76668861 1.34118213 0 1 C0 0.67 0 0.34 0 0 Z " fill="#D06430" transform="translate(239,60)"/>
<path d="M0 0 C0.66 0.33 1.32 0.66 2 1 C2.125 6.75 2.125 6.75 1 9 C-3.28769786 10.29930238 -7.56510345 10.07516774 -12 10 C-12.33 9.01 -12.66 8.02 -13 7 C-10.47524538 5.73762269 -8.68799534 5.90143596 -5.875 5.9375 C-4.96492188 5.94652344 -4.05484375 5.95554688 -3.1171875 5.96484375 C-2.41851562 5.97644531 -1.71984375 5.98804688 -1 6 C-0.67 4.02 -0.34 2.04 0 0 Z " fill="#1F474B" transform="translate(277,226)"/>
<path d="M0 0 C4.27564952 4.27564952 4.12259277 11.14571917 4.1953125 16.91015625 C4.18220788 18.96102956 4.15863825 21.0118607 4.125 23.0625 C4.11597656 24.11888672 4.10695313 25.17527344 4.09765625 26.26367188 C4.0743167 28.84269253 4.04157775 31.4212199 4 34 C3.67 34 3.34 34 3 34 C2.49358702 29.64655438 1.99601358 25.29214175 1.5 20.9375 C1.35691406 19.70837891 1.21382813 18.47925781 1.06640625 17.21289062 C0.93105469 16.01728516 0.79570312 14.82167969 0.65625 13.58984375 C0.53056641 12.49534912 0.40488281 11.40085449 0.27539062 10.27319336 C-0.01398305 6.83380258 -0.04582048 3.4499 0 0 Z " fill="#D67047" transform="translate(385,198)"/>
<path d="M0 0 C0 4.62 0 9.24 0 14 C-0.33 14 -0.66 14 -1 14 C-1 9.71 -1 5.42 -1 1 C-2.65 1.33 -4.3 1.66 -6 2 C-13.68149554 3.30475164 -21.24009843 3.17725663 -29 3 C-20.84673317 -1.71930268 -9.07191387 -0.09860776 0 0 Z " fill="#364F5A" transform="translate(232,58)"/>
<path d="M0 0 C0.33 0 0.66 0 1 0 C1.08131463 1.43655854 1.13933559 2.8744483 1.1875 4.3125 C1.22230469 5.11300781 1.25710937 5.91351563 1.29296875 6.73828125 C1 9 1 9 -0.1875 10.78125 C-2.62969263 12.42341401 -4.27236294 12.30107677 -7.1875 12.1875 C-8.08855469 12.16042969 -8.98960937 12.13335937 -9.91796875 12.10546875 C-10.60503906 12.07066406 -11.29210937 12.03585937 -12 12 C-12 11.01 -12 10.02 -12 9 C-8.7 9 -5.4 9 -2 9 C-1.855625 7.88625 -1.71125 6.7725 -1.5625 5.625 C-1 2 -1 2 0 0 Z " fill="#352C32" transform="translate(171,353)"/>
<path d="M0 0 C3.01111938 4.51667907 3.10067926 7.6639991 3 13 C3.99 13.33 4.98 13.66 6 14 C6 15.65 6 17.3 6 19 C5.34 19.33 4.68 19.66 4 20 C2.99394407 17.39802798 1.99497475 14.79370638 1 12.1875 C0.57074219 11.08051758 0.57074219 11.08051758 0.1328125 9.95117188 C-0.13789062 9.23896484 -0.40859375 8.52675781 -0.6875 7.79296875 C-0.93886719 7.1383667 -1.19023438 6.48376465 -1.44921875 5.80932617 C-2 4 -2 4 -2 1 C-1.34 0.67 -0.68 0.34 0 0 Z " fill="#5C2B6C" transform="translate(68,285)"/>
<path d="M0 0 C2.62386487 3.06117568 3 3.73173127 3 8 C6.3 8 9.6 8 13 8 C13 8.99 13 9.98 13 11 C9.62100859 11.2852807 6.37055407 11.42878224 3 11 C0.22141617 8.22141617 0.03286472 6.58061005 -0.1875 2.6875 C-0.125625 1.800625 -0.06375 0.91375 0 0 Z " fill="#342B32" transform="translate(129,354)"/>
<path d="M0 0 C0.33 0 0.66 0 1 0 C1.33 9.9 1.66 19.8 2 30 C3.98 30.66 5.96 31.32 8 32 C8 32.33 8 32.66 8 33 C5.36 33 2.72 33 0 33 C0 22.11 0 11.22 0 0 Z " fill="#30282D" transform="translate(230,331)"/>
<path d="M0 0 C1.09570312 0.00902344 2.19140625 0.01804687 3.3203125 0.02734375 C4.16335937 0.03894531 5.00640625 0.05054688 5.875 0.0625 C6.535 1.3825 7.195 2.7025 7.875 4.0625 C3.255 3.4025 -1.365 2.7425 -6.125 2.0625 C-6.455 5.0325 -6.785 8.0025 -7.125 11.0625 C-7.455 11.0625 -7.785 11.0625 -8.125 11.0625 C-8.125 7.7625 -8.125 4.4625 -8.125 1.0625 C-5.36047967 -0.31976016 -3.0788637 -0.03275387 0 0 Z " fill="#3A3539" transform="translate(245.125,329.9375)"/>
<path d="M0 0 C0.66 0.66 1.32 1.32 2 2 C2.99 2 3.98 2 5 2 C7.25 4.25 7.25 4.25 9 7 C8.75 9.3125 8.75 9.3125 8 11 C8.66 11 9.32 11 10 11 C10.99 12.98 11.98 14.96 13 17 C12.01 16.67 11.02 16.34 10 16 C9.66666667 14.66666667 9.33333333 13.33333333 9 12 C8.01 11.67 7.02 11.34 6 11 C5.31513275 9.67592331 4.65129797 8.34090759 4 7 C3.29875 6.319375 2.5975 5.63875 1.875 4.9375 C0 3 0 3 0 0 Z " fill="#D16B3A" transform="translate(363,117)"/>
<path d="M0 0 C2.475 0.495 2.475 0.495 5 1 C6.57554134 5.13579601 7.50427005 8.56242357 7 13 C6.01 13.66 5.02 14.32 4 15 C3.87882812 14.25234375 3.75765625 13.5046875 3.6328125 12.734375 C3.46523438 11.74953125 3.29765625 10.7646875 3.125 9.75 C2.96257812 8.77546875 2.80015625 7.8009375 2.6328125 6.796875 C2.05144152 4.22735883 1.29159735 2.27928944 0 0 Z " fill="#372F36" transform="translate(258,328)"/>
<path d="M0 0 C3.31981497 2.92116224 4.70471362 5.16630223 5.8125 9.4375 C6.06644531 10.36433594 6.32039063 11.29117188 6.58203125 12.24609375 C7.02247438 15.14807885 6.75163547 17.18264527 6 20 C3.27216889 17.27216889 2.7975372 14.19456312 1.875 10.5625 C1.69324219 9.88123047 1.51148438 9.19996094 1.32421875 8.49804688 C0.56488021 5.58344292 0 3.02438796 0 0 Z " fill="#25474D" transform="translate(297,198)"/>
<path d="M0 0 C2.5 2 2.5 2 4 4 C3.38511719 3.90460938 2.77023438 3.80921875 2.13671875 3.7109375 C1.32847656 3.60007812 0.52023438 3.48921875 -0.3125 3.375 C-1.11300781 3.25898438 -1.91351563 3.14296875 -2.73828125 3.0234375 C-5.28723215 2.78466593 -5.28723215 2.78466593 -8 5 C-8.72382467 7.05925139 -8.72382467 7.05925139 -9 9 C-9.66 9 -10.32 9 -11 9 C-11.1875 5.625 -11.1875 5.625 -11 2 C-7.33952058 -0.44031962 -4.25894744 -0.73696072 0 0 Z " fill="#1F4B4E" transform="translate(237,261)"/>
<path d="M0 0 C6.6 0.33 13.2 0.66 20 1 C20.33 1.66 20.66 2.32 21 3 C13.74 3 6.48 3 -1 3 C-0.67 2.01 -0.34 1.02 0 0 Z " fill="#224A52" transform="translate(254,246)"/>
<path d="M0 0 C2.33425788 0.3267961 4.66742506 0.66140041 7 1 C8.11375 1.144375 9.2275 1.28875 10.375 1.4375 C11.24125 1.623125 12.1075 1.80875 13 2 C13.33 2.66 13.66 3.32 14 4 C15.7325 4.4640625 15.7325 4.4640625 17.5 4.9375 C18.655 5.288125 19.81 5.63875 21 6 C21.33 6.99 21.66 7.98 22 9 C14.25 7.125 14.25 7.125 12 6 C9.96130009 5.13877636 7.919186 4.28561972 5.875 3.4375 C4.23144531 2.75494141 4.23144531 2.75494141 2.5546875 2.05859375 C1.71164062 1.70925781 0.86859375 1.35992187 0 1 C0 0.67 0 0.34 0 0 Z " fill="#D2652F" transform="translate(278,83)"/>
<path d="M0 0 C5.94 0 11.88 0 18 0 C18 0.66 18 1.32 18 2 C14.6717269 3.66413655 11.00266027 2.81867406 7.375 2.5625 C6.57320312 2.51029297 5.77140625 2.45808594 4.9453125 2.40429688 C2.96320897 2.27451629 0.98155501 2.13790265 -1 2 C-0.67 1.34 -0.34 0.68 0 0 Z " fill="#2E272D" transform="translate(194,354)"/>
<path d="M0 0 C4.75 0.875 4.75 0.875 7 2 C7 4.31 7 6.62 7 9 C5.02 8.34 3.04 7.68 1 7 C1 5.68 1 4.36 1 3 C0.34 3 -0.32 3 -1 3 C-0.67 2.01 -0.34 1.02 0 0 Z " fill="#3A5053" transform="translate(257,156)"/>
<path d="M0 0 C0.66 0.33 1.32 0.66 2 1 C2 7.6 2 14.2 2 21 C1.01 21 0.02 21 -1 21 C-0.67 14.07 -0.34 7.14 0 0 Z " fill="#214A50" transform="translate(291,155)"/>
<path d="M0 0 C1.2065625 0.0309375 1.2065625 0.0309375 2.4375 0.0625 C2.1075 0.7225 1.7775 1.3825 1.4375 2.0625 C0.4475 2.0625 -0.5425 2.0625 -1.5625 2.0625 C-1.5625 3.7125 -1.5625 5.3625 -1.5625 7.0625 C1.7375 7.0625 5.0375 7.0625 8.4375 7.0625 C8.1075 7.7225 7.7775 8.3825 7.4375 9.0625 C5.79175434 9.08938151 4.14588587 9.10884123 2.5 9.125 C1.58347656 9.13660156 0.66695313 9.14820313 -0.27734375 9.16015625 C-2.5625 9.0625 -2.5625 9.0625 -3.5625 8.0625 C-3.6875 4.5625 -3.6875 4.5625 -3.5625 1.0625 C-2.5625 0.0625 -2.5625 0.0625 0 0 Z " fill="#3A545B" transform="translate(267.5625,212.9375)"/>
<path d="M0 0 C-1.485 2.475 -1.485 2.475 -3 5 C-6.24208567 4.64950425 -7.61527704 4.43778819 -9.8125 1.9375 C-10.4003125 0.9784375 -10.4003125 0.9784375 -11 0 C-7.18243176 -1.37432457 -3.92744671 -0.67975039 0 0 Z " fill="#6A316A" transform="translate(381,329)"/>
<path d="M0 0 C0.99 0.495 0.99 0.495 2 1 C1.67 2.98 1.34 4.96 1 7 C4.63 7 8.26 7 12 7 C12 7.99 12 8.98 12 10 C8.37 10 4.74 10 1 10 C-0.60725635 6.78548731 -0.05748185 3.56387464 0 0 Z " fill="#1E444C" transform="translate(232,225)"/>
<path d="M0 0 C0.33 0 0.66 0 1 0 C1.05394705 2.60444348 1.09364469 5.20776998 1.125 7.8125 C1.14175781 8.55048828 1.15851563 9.28847656 1.17578125 10.04882812 C1.21074628 13.91246426 1.19397555 15.70903668 -1 19 C-3.85195184 13.29609632 -1.5158 5.84665714 0 0 Z " fill="#304B56" transform="translate(78,213)"/>
<path d="M0 0 C0.33 0 0.66 0 1 0 C1 1.98 1 3.96 1 6 C3.31 6.33 5.62 6.66 8 7 C8 7.66 8 8.32 8 9 C4.7 9 1.4 9 -2 9 C-2.25 3.375 -2.25 3.375 0 0 Z " fill="#352B33" transform="translate(183,356)"/>
<path d="M0 0 C1.32 0.33 2.64 0.66 4 1 C5.17571451 4.67410785 5.07366746 8.16929183 5 12 C4.01 11.67 3.02 11.34 2 11 C1.34 7.37 0.68 3.74 0 0 Z " fill="#5B2B6B" transform="translate(62,272)"/>
<path d="M0 0 C1.04470097 3.13410292 1.23774165 4.03889558 0 7 C-1.84765625 8.265625 -1.84765625 8.265625 -4.0625 9.25 C-4.79597656 9.58515625 -5.52945312 9.9203125 -6.28515625 10.265625 C-7.13400391 10.62914062 -7.13400391 10.62914062 -8 11 C-8.99 10.34 -9.98 9.68 -11 9 C-10.37351562 8.68546875 -9.74703125 8.3709375 -9.1015625 8.046875 C-8.28429687 7.61890625 -7.46703125 7.1909375 -6.625 6.75 C-5.81289063 6.33234375 -5.00078125 5.9146875 -4.1640625 5.484375 C-1.79198795 3.85732025 -1.02905196 2.64613361 0 0 Z " fill="#342C33" transform="translate(345,354)"/>
<path d="M0 0 C1.32 0 2.64 0 4 0 C4 2.97 4 5.94 4 9 C1.0625 8.625 1.0625 8.625 -2 8 C-2.33 7.34 -2.66 6.68 -3 6 C-5.32156597 5.59270772 -7.6568787 5.25561323 -10 5 C-10 4.67 -10 4.34 -10 4 C-1.42857143 3.85714286 -1.42857143 3.85714286 2 5 C2.33 3.68 2.66 2.36 3 1 C2.01 0.67 1.02 0.34 0 0 Z " fill="#332C32" transform="translate(340,326)"/>
<path d="M0 0 C1.1859375 0.00257813 2.371875 0.00515625 3.59375 0.0078125 C4.7796875 0.00523437 5.965625 0.00265625 7.1875 0 C10.09375 0.1328125 10.09375 0.1328125 11.09375 1.1328125 C11.16554964 2.65209288 11.17767007 4.17448732 11.15625 5.6953125 C11.14722656 6.52160156 11.13820313 7.34789062 11.12890625 8.19921875 C11.11730469 8.83730469 11.10570312 9.47539062 11.09375 10.1328125 C10.76375 10.1328125 10.43375 10.1328125 10.09375 10.1328125 C9.949375 8.9984375 9.805 7.8640625 9.65625 6.6953125 C9.48203522 3.32504049 9.48203522 3.32504049 8.09375 2.1328125 C6.24087498 2.06054748 4.38541122 2.0490003 2.53125 2.0703125 C1.51933594 2.07933594 0.50742187 2.08835938 -0.53515625 2.09765625 C-1.31761719 2.10925781 -2.10007812 2.12085938 -2.90625 2.1328125 C-2.90625 4.4428125 -2.90625 6.7528125 -2.90625 9.1328125 C-3.23625 9.1328125 -3.56625 9.1328125 -3.90625 9.1328125 C-4.00390625 2.98046875 -4.00390625 2.98046875 -3.90625 1.1328125 C-2.90625 0.1328125 -2.90625 0.1328125 0 0 Z " fill="#3E4F46" transform="translate(283.90625,223.8671875)"/>
<path d="M0 0 C3.06146933 2.54242712 4.01341898 5.20468641 5.25 8.9375 C5.60578125 9.97777344 5.9615625 11.01804688 6.328125 12.08984375 C6.98659513 14.94193823 7.01284874 16.30556265 6 19 C0 4.52427184 0 4.52427184 0 0 Z " fill="#D46F4D" transform="translate(395,167)"/>
<path d="M0 0 C0.33 0.99 0.66 1.98 1 3 C-0.51171875 5.33984375 -0.51171875 5.33984375 -2.6875 7.9375 C-3.39261719 8.79214844 -4.09773438 9.64679688 -4.82421875 10.52734375 C-6.80583667 12.779344 -8.85065325 14.90887483 -11 17 C-10.39350408 13.39380806 -8.91097948 11.31648105 -6.625 8.5 C-6.01914063 7.7471875 -5.41328125 6.994375 -4.7890625 6.21875 C-3.90347656 5.12046875 -3.90347656 5.12046875 -3 4 C-1.994184 2.67104855 -0.99219148 1.33915415 0 0 Z " fill="#35515E" transform="translate(99,119)"/>
<path d="M0 0 C0.33 0.66 0.66 1.32 1 2 C-0.93302372 2.5574301 -2.87164853 3.09546757 -4.8125 3.625 C-5.89144531 3.92664063 -6.97039062 4.22828125 -8.08203125 4.5390625 C-11 5 -11 5 -14 3 C-9.03006806 0.56574762 -5.65394631 -0.34615998 0 0 Z " fill="#274D51" transform="translate(190,83)"/>
<path d="M0 0 C5.22000584 0.52200058 9.58713788 2.20904902 14 5 C14.33 5.66 14.66 6.32 15 7 C12.36 6.67 9.72 6.34 7 6 C7 5.01 7 4.02 7 3 C4.69 2.67 2.38 2.34 0 2 C0 1.34 0 0.68 0 0 Z " fill="#CD6E48" transform="translate(296,70)"/>
<path d="M0 0 C0.33 0 0.66 0 1 0 C1.78441153 6.56492112 2.10914408 12.46837378 1 19 C0.67 19 0.34 19 0 19 C-1.24714829 6.68441065 -1.24714829 6.68441065 -1 1 C-0.67 0.67 -0.34 0.34 0 0 Z " fill="#D2642C" transform="translate(405,199)"/>
<path d="M0 0 C7.95393759 4.35215453 7.95393759 4.35215453 10 7 C10 7.66 10 8.32 10 9 C10.61875 9.2475 11.2375 9.495 11.875 9.75 C14.35068687 11.20628639 14.95125002 12.37812506 16 15 C13.5 13.625 13.5 13.625 11 12 C11 11.34 11 10.68 11 10 C10.41734375 9.731875 9.8346875 9.46375 9.234375 9.1875 C6.97213399 7.98519009 5.19423682 6.66174087 3.25 5 C2.63640625 4.484375 2.0228125 3.96875 1.390625 3.4375 C0 2 0 2 0 0 Z " fill="#D06632" transform="translate(331,110)"/>
<path d="M0 0 C0.99 0 1.98 0 3 0 C3.96070434 2.88211302 4.10581883 4.69850044 4.0625 7.6875 C4.05347656 8.49574219 4.04445313 9.30398437 4.03515625 10.13671875 C4.02355469 10.75160156 4.01195313 11.36648437 4 12 C1.95780294 10.30820672 1.08206694 9.36272334 0.48828125 6.73828125 C0.43027344 5.93777344 0.37226562 5.13726562 0.3125 4.3125 C0.24675781 3.50425781 0.18101563 2.69601563 0.11328125 1.86328125 C0.07589844 1.24839844 0.03851563 0.63351563 0 0 Z " fill="#5A2F6C" transform="translate(75,237)"/>
<path d="M0 0 C0.66 0.66 1.32 1.32 2 2 C1.69907526 5.81171337 0.71549428 8.30722952 -2 11 C-5.13671875 11.390625 -5.13671875 11.390625 -8.6875 11.25 C-10.45673828 11.19585937 -10.45673828 11.19585937 -12.26171875 11.140625 C-13.16535156 11.09421875 -14.06898438 11.0478125 -15 11 C-15 10.67 -15 10.34 -15 10 C-14.22914063 9.93941406 -13.45828125 9.87882812 -12.6640625 9.81640625 C-11.66117188 9.73261719 -10.65828125 9.64882813 -9.625 9.5625 C-8.62726563 9.48128906 -7.62953125 9.40007812 -6.6015625 9.31640625 C-4.02072387 9.15034374 -4.02072387 9.15034374 -2 8 C-1.31527335 6.11235097 -1.31527335 6.11235097 -0.875 3.9375 C-0.70742187 3.20402344 -0.53984375 2.47054688 -0.3671875 1.71484375 C-0.24601563 1.14894531 -0.12484375 0.58304687 0 0 Z " fill="#372F35" transform="translate(254,335)"/>
<path d="M0 0 C1.04449911 3.13349732 0.93423645 3.98968256 0 7 C-0.66 7 -1.32 7 -2 7 C-2.33 8.65 -2.66 10.3 -3 12 C-3.66 11.34 -4.32 10.68 -5 10 C-4.56414572 6.84005649 -3.32709527 3.88838382 -2 1 C-1.34 0.67 -0.68 0.34 0 0 Z " fill="#372E36" transform="translate(193,336)"/>
<path d="M0 0 C3.3 0 6.6 0 10 0 C9.67 0.99 9.34 1.98 9 3 C9 2.34 9 1.68 9 1 C6.69 1.33 4.38 1.66 2 2 C1.01 4.64 0.02 7.28 -1 10 C-1.66 10 -2.32 10 -3 10 C-2.835 9.236875 -2.67 8.47375 -2.5 7.6875 C-1.90854604 4.96403764 -1.90854604 4.96403764 -2 2 C-1.34 2 -0.68 2 0 2 C0 1.34 0 0.68 0 0 Z " fill="#342C33" transform="translate(198,324)"/>
<path d="M0 0 C1.58468677 0.45363171 3.16769924 0.91311452 4.75 1.375 C5.63171875 1.63023437 6.5134375 1.88546875 7.421875 2.1484375 C9.76080572 2.9209934 11.83442562 3.83625676 14 5 C12.39620659 5.05416188 10.79188594 5.09286638 9.1875 5.125 C8.29417969 5.14820313 7.40085937 5.17140625 6.48046875 5.1953125 C4 5 4 5 1 3 C0.67 2.01 0.34 1.02 0 0 Z " fill="#322B32" transform="translate(315,359)"/>
<path d="M0 0 C0.99 0 1.98 0 3 0 C2.34 3.3 1.68 6.6 1 10 C0.01 10 -0.98 10 -2 10 C-1.34 6.7 -0.68 3.4 0 0 Z " fill="#382E36" transform="translate(144,351)"/>
<path d="M0 0 C0 0.99 0 1.98 0 3 C-2.40545638 4.20272819 -3.94996953 4.10071472 -6.625 4.0625 C-7.85089844 4.04896484 -7.85089844 4.04896484 -9.1015625 4.03515625 C-10.04128906 4.01775391 -10.04128906 4.01775391 -11 4 C-11.33 3.01 -11.66 2.02 -12 1 C-11.21753906 1.01160156 -10.43507812 1.02320313 -9.62890625 1.03515625 C-8.61699219 1.04417969 -7.60507813 1.05320312 -6.5625 1.0625 C-5.04849609 1.07990234 -5.04849609 1.07990234 -3.50390625 1.09765625 C-1.05978933 1.28612676 -1.05978933 1.28612676 0 0 Z " fill="#22494C" transform="translate(239,272)"/>
<path d="M0 0 C4.29 0 8.58 0 13 0 C12.67 0.66 12.34 1.32 12 2 C9.78515625 2.37890625 9.78515625 2.37890625 7.0625 2.5625 C3.39324879 2.76801323 3.39324879 2.76801323 0 4 C0 2.68 0 1.36 0 0 Z " fill="#264B51" transform="translate(279,200)"/>
<path d="M0 0 C1 3 1 3 -0.21484375 5.69921875 C-0.78332031 6.68535156 -1.35179688 7.67148438 -1.9375 8.6875 C-2.50339844 9.68136719 -3.06929688 10.67523438 -3.65234375 11.69921875 C-4.31943359 12.83810547 -4.31943359 12.83810547 -5 14 C-5.66 14 -6.32 14 -7 14 C-7 13.01 -7 12.02 -7 11 C-6.34 11 -5.68 11 -5 11 C-5 9.68 -5 8.36 -5 7 C-4.34 7 -3.68 7 -3 7 C-2.814375 5.824375 -2.814375 5.824375 -2.625 4.625 C-2 2 -2 2 0 0 Z " fill="#37525E" transform="translate(86,137)"/>
<path d="M0 0 C0.66 0 1.32 0 2 0 C2.33 5.61 2.66 11.22 3 17 C2.01 17.33 1.02 17.66 0 18 C0 12.06 0 6.12 0 0 Z " fill="#22444C" transform="translate(229,59)"/>
<path d="M0 0 C0 0.99 0 1.98 0 3 C-3.96 3 -7.92 3 -12 3 C-12 2.34 -12 1.68 -12 1 C-10.37512529 0.83211627 -8.75009558 0.66573213 -7.125 0.5 C-6.22007812 0.4071875 -5.31515625 0.314375 -4.3828125 0.21875 C-2 0 -2 0 0 0 Z " fill="#21434A" transform="translate(261,232)"/>
<path d="M0 0 C3.63 0.33 7.26 0.66 11 1 C10.67 1.66 10.34 2.32 10 3 C8.00390625 3.44921875 8.00390625 3.44921875 5.5625 3.6875 C4.75941406 3.77386719 3.95632812 3.86023438 3.12890625 3.94921875 C1 4 1 4 -1 3 C-0.67 2.01 -0.34 1.02 0 0 Z " fill="#325056" transform="translate(233,219)"/>
<path d="M0 0 C1.45047396 2.90094791 0.45356803 4.55972596 -0.4375 7.625 C-0.86869141 9.12933594 -0.86869141 9.12933594 -1.30859375 10.6640625 C-1.53675781 11.43492187 -1.76492187 12.20578125 -2 13 C-3.32717683 10.7962922 -4.04043638 9.49534564 -3.828125 6.89453125 C-3.63734375 6.20746094 -3.4465625 5.52039063 -3.25 4.8125 C-3.06953125 4.11769531 -2.8890625 3.42289063 -2.703125 2.70703125 C-2 1 -2 1 0 0 Z " fill="#23414E" transform="translate(167,205)"/>
<path d="M0 0 C0.99 0.33 1.98 0.66 3 1 C-0.06093224 4.93548431 -2.49115974 7.68116787 -7 10 C-5.6062718 5.56541027 -3.39417765 3.12621626 0 0 Z " fill="#375160" transform="translate(108,109)"/>
<path d="M0 0 C0.91007813 0.00902344 1.82015625 0.01804687 2.7578125 0.02734375 C3.45648438 0.03894531 4.15515625 0.05054687 4.875 0.0625 C4.875 0.7225 4.875 1.3825 4.875 2.0625 C-3.69642857 3.49107143 -3.69642857 3.49107143 -7.125 1.0625 C-4.60024538 -0.19987731 -2.81299534 -0.03606404 0 0 Z " fill="#1F434B" transform="translate(214.125,76.9375)"/>
<path d="M0 0 C0.66 0 1.32 0 2 0 C1.71788123 1.6266848 1.42397625 3.25132896 1.125 4.875 C0.96257812 5.77992188 0.80015625 6.68484375 0.6328125 7.6171875 C0 10 0 10 -2 12 C-3.15957207 8.52128379 -2.77456651 7.65780355 -1.5625 4.3125 C-1.13130859 3.10013672 -1.13130859 3.10013672 -0.69140625 1.86328125 C-0.46324219 1.24839844 -0.23507813 0.63351563 0 0 Z " fill="#33515C" transform="translate(158,229)"/>
<path d="M0 0 C2.5654594 2.5654594 2.54046087 4.47686668 3 8 C2.34 8 1.68 8 1 8 C1 7.34 1 6.68 1 6 C0.34 6 -0.32 6 -1 6 C-2.625 4.625 -2.625 4.625 -4 3 C-4 2.34 -4 1.68 -4 1 C-2 0 -2 0 0 0 Z " fill="#354B52" transform="translate(259,164)"/>
<path d="M0 0 C4.29238623 1.65091778 6.8793915 4.73754566 10 8 C9.67 8.99 9.34 9.98 9 11 C8.67 10.01 8.34 9.02 8 8 C5.99983534 6.79117904 5.99983534 6.79117904 4 6 C4 5.34 4 4.68 4 4 C3.34 4 2.68 4 2 4 C1.34 2.68 0.68 1.36 0 0 Z " fill="#D5734E" transform="translate(356,109)"/>
<path d="M0 0 C1.65 0 3.3 0 5 0 C1.44008172 2.96659857 -2.65222543 5.381348 -7 7 C-7.66 6.67 -8.32 6.34 -9 6 C-8.01 5.67 -7.02 5.34 -6 5 C-5.67 4.01 -5.34 3.02 -5 2 C-3.35 2 -1.7 2 0 2 C0 1.34 0 0.68 0 0 Z " fill="#2E535C" transform="translate(166,91)"/>
<path d="M0 0 C-10.37357631 4.59225513 -10.37357631 4.59225513 -16 4 C-13.71185277 1.71185277 -12.19248378 1.24548839 -9.125 0.3125 C-8.26132813 0.04050781 -7.39765625 -0.23148438 -6.5078125 -0.51171875 C-3.91305068 -1.01692938 -2.469215 -0.85561171 0 0 Z " fill="#375861" transform="translate(192,64)"/>
<path d="M0 0 C0.33 0 0.66 0 1 0 C1.02705729 1.77074917 1.04642195 3.54161711 1.0625 5.3125 C1.07410156 6.29863281 1.08570313 7.28476563 1.09765625 8.30078125 C1 11 1 11 0 14 C-0.66 14 -1.32 14 -2 14 C-2.04254356 12.00045254 -2.04080783 9.99958364 -2 8 C-1.67 7.67 -1.34 7.34 -1 7 C-0.63239269 4.67182036 -0.29758419 2.3381615 0 0 Z " fill="#22414D" transform="translate(61,207)"/>
<path d="M0 0 C-1.78524649 1.19713017 -3.5784028 2.38247279 -5.375 3.5625 C-6.87160156 4.55443359 -6.87160156 4.55443359 -8.3984375 5.56640625 C-9.25695312 6.03949219 -10.11546875 6.51257813 -11 7 C-11.66 6.67 -12.32 6.34 -13 6 C-11.90081184 5.01524786 -10.7954398 4.03739527 -9.6875 3.0625 C-9.07261719 2.51722656 -8.45773438 1.97195312 -7.82421875 1.41015625 C-4.87547488 -0.86927959 -3.56172274 -1.18724091 0 0 Z " fill="#2D4E5B" transform="translate(157,99)"/>
<path d="M0 0 C0.99 0 1.98 0 3 0 C2.67 1.65 2.34 3.3 2 5 C0.68 5.33 -0.64 5.66 -2 6 C-1.125 1.125 -1.125 1.125 0 0 Z " fill="#582761" transform="translate(380,323)"/>
<path d="M0 0 C2.64 0 5.28 0 8 0 C8 0.33 8 0.66 8 1 C6.02 1 4.04 1 2 1 C2 2.65 2 4.3 2 6 C1.01 6 0.02 6 -1 6 C-0.67 4.02 -0.34 2.04 0 0 Z " fill="#40595F" transform="translate(265,226)"/>
<path d="M0 0 C0.66 0.66 1.32 1.32 2 2 C1.625 4.625 1.625 4.625 1 7 C-0.32 7.33 -1.64 7.66 -3 8 C-1.125 2.25 -1.125 2.25 0 0 Z " fill="#6C346F" transform="translate(375,294)"/>
<path d="M0 0 C3 2 3 2 3.8125 5 C3.874375 5.99 3.93625 6.98 4 8 C3.34 8.66 2.68 9.32 2 10 C0.68373308 6.38026598 0 3.90432869 0 0 Z " fill="#1D4146" transform="translate(300,208)"/>
<path d="M0 0 C2.4375 0.375 2.4375 0.375 5 1 C5.33 1.66 5.66 2.32 6 3 C5.67 3.99 5.34 4.98 5 6 C4.01 6 3.02 6 2 6 C0 3 0 3 0 0 Z " fill="#253D42" transform="translate(259,164)"/>
<path d="M0 0 C1.98 0.66 3.96 1.32 6 2 C6 2.66 6 3.32 6 4 C7.32 4.66 8.64 5.32 10 6 C9.01 6.33 8.02 6.66 7 7 C5.17578125 5.8203125 5.17578125 5.8203125 3.3125 4.125 C2.68988281 3.57070312 2.06726563 3.01640625 1.42578125 2.4453125 C0 1 0 1 0 0 Z " fill="#D8714E" transform="translate(325,108)"/>
<path d="M0 0 C0.66 0 1.32 0 2 0 C2 2.64 2 5.28 2 8 C1.01 7.34 0.02 6.68 -1 6 C-1.25 3.4375 -1.25 3.4375 -1 1 C-0.67 0.67 -0.34 0.34 0 0 Z " fill="#5A2663" transform="translate(364,318)"/>
<path d="M0 0 C0.99 0.33 1.98 0.66 3 1 C3.94921875 3.06640625 3.94921875 3.06640625 4.6875 5.5625 C4.93886719 6.38878906 5.19023437 7.21507812 5.44921875 8.06640625 C5.63097656 8.70449219 5.81273437 9.34257812 6 10 C5.01 9.67 4.02 9.34 3 9 C2.67 6.69 2.34 4.38 2 2 C1.34 2 0.68 2 0 2 C0 1.34 0 0.68 0 0 Z " fill="#50414A" transform="translate(217,346)"/>
<path d="M0 0 C3.96 0 7.92 0 12 0 C12.33 0.99 12.66 1.98 13 3 C8.71 2.34 4.42 1.68 0 1 C0 0.67 0 0.34 0 0 Z " fill="#332D33" transform="translate(240,331)"/>
<path d="M0 0 C4.75 0.75 4.75 0.75 7 3 C6.67 3.99 6.34 4.98 6 6 C6 5.34 6 4.68 6 4 C4.02 3.34 2.04 2.68 0 2 C0 1.34 0 0.68 0 0 Z " fill="#372E35" transform="translate(298,325)"/>
<path d="M0 0 C1.98 0.99 1.98 0.99 4 2 C4 2.66 4 3.32 4 4 C4.66 4 5.32 4 6 4 C6 4.66 6 5.32 6 6 C3.83125748 5.49396008 2.00032373 5.00016187 0 4 C0 2.68 0 1.36 0 0 Z " fill="#2B3E44" transform="translate(254,166)"/>
<path d="M0 0 C0 4.38968456 -2.12805101 5.76905739 -5 9 C-5 5.84012675 -4.61785127 4.63965207 -3 2 C-2.01 1.34 -1.02 0.68 0 0 Z " fill="#224A51" transform="translate(104,116)"/>
<path d="M0 0 C0 0.99 0 1.98 0 3 C-3.375 3.125 -3.375 3.125 -7 3 C-7.66 2.34 -8.32 1.68 -9 1 C-2.25 0 -2.25 0 0 0 Z " fill="#2D262C" transform="translate(224,361)"/>
<path d="M0 0 C2.35448165 2.55068845 2.98327924 3.71017358 3.1875 7.25 C3.125625 8.1575 3.06375 9.065 3 10 C2.01 9.34 1.02 8.68 0 8 C-0.40843923 5.28796348 -0.13336867 2.7562858 0 0 Z " fill="#392D37" transform="translate(155,349)"/>
<path d="M0 0 C0 0.66 0 1.32 0 2 C-4.625 4.125 -4.625 4.125 -8 3 C-5.53387212 -0.1151089 -3.89156016 -0.31553191 0 0 Z " fill="#31535A" transform="translate(179,87)"/>
<path d="M0 0 C1.98 0.99 1.98 0.99 4 2 C3.67 3.65 3.34 5.3 3 7 C2.67 6.34 2.34 5.68 2 5 C1.34 5 0.68 5 0 5 C0 3.35 0 1.7 0 0 Z " fill="#25484D" transform="translate(304,223)"/>
<path d="M0 0 C0.99 0 1.98 0 3 0 C3 0.99 3 1.98 3 3 C2.34 3 1.68 3 1 3 C1 4.65 1 6.3 1 8 C0.34 7.67 -0.32 7.34 -1 7 C-0.67 4.69 -0.34 2.38 0 0 Z " fill="#204B4F" transform="translate(249,223)"/>
<path d="M0 0 C0.66 0.33 1.32 0.66 2 1 C-3.14285714 5.42857143 -3.14285714 5.42857143 -7 6 C-2.25 1.125 -2.25 1.125 0 0 Z " fill="#1E4D4F" transform="translate(146,82)"/>
</svg>
