<?xml version="1.0" encoding="UTF-8"?>
<svg version="1.1" xmlns="http://www.w3.org/2000/svg" width="310" height="310">
<path d="M0 0 C0.70523804 0.00404846 1.41047607 0.00809692 2.13708496 0.01226807 C2.8619812 0.01035461 3.58687744 0.00844116 4.33374023 0.00646973 C5.86698758 0.0051082 7.40024646 0.00880243 8.93347168 0.01715088 C11.28415755 0.02785129 13.63407919 0.01725498 15.98474121 0.00445557 C17.47302415 0.00577717 18.96130662 0.00833957 20.44958496 0.01226807 C21.154823 0.0082196 21.86006104 0.00417114 22.58666992 0 C27.56341011 0.04796821 27.56341011 0.04796821 29.79333496 2.27789307 C29.99227426 4.96649923 30.07168798 7.5289449 30.04333496 10.21539307 C30.05493652 11.30884033 30.05493652 11.30884033 30.06677246 12.42437744 C30.05279667 16.2362753 29.95459423 18.03600416 27.79333496 21.27789307 C24.97302246 21.57086182 24.97302246 21.57086182 21.66833496 21.46539307 C20.57263184 21.43832275 19.47692871 21.41125244 18.34802246 21.38336182 C17.50497559 21.34855713 16.66192871 21.31375244 15.79333496 21.27789307 C15.79333496 23.25789307 15.79333496 25.23789307 15.79333496 27.27789307 C17.00569824 27.22568604 17.00569824 27.22568604 18.24255371 27.17242432 C19.31118652 27.145354 20.37981934 27.11828369 21.48083496 27.09039307 C22.53657715 27.05558838 23.59231934 27.02078369 24.68005371 26.98492432 C28.2978964 27.32537375 29.8945376 28.1134268 32.79333496 30.27789307 C34.07946777 32.78643799 34.07946777 32.78643799 34.99645996 35.75836182 C35.33677246 36.84052979 35.67708496 37.92269775 36.02770996 39.03765869 C36.36286621 40.16881104 36.69802246 41.29996338 37.04333496 42.46539307 C37.39395996 43.57720947 37.74458496 44.68902588 38.10583496 45.83453369 C39.94405025 51.80519836 41.00537528 56.97421562 41.79333496 63.27789307 C7.47333496 63.27789307 -26.84666504 63.27789307 -62.20666504 63.27789307 C-61.33575382 55.43969205 -59.89961021 49.25867282 -57.45666504 41.90289307 C-57.12150879 40.82394775 -56.78635254 39.74500244 -56.44104004 38.63336182 C-56.10072754 37.60082275 -55.76041504 36.56828369 -55.40979004 35.50445557 C-55.10718262 34.57197998 -54.8045752 33.63950439 -54.49279785 32.67877197 C-52.84342954 29.59982588 -51.32115994 28.81611494 -48.20666504 27.27789307 C-45.47941589 26.91712952 -45.47941589 26.91712952 -42.49841309 26.93731689 C-40.8172364 26.93765678 -40.8172364 26.93765678 -39.10209656 26.93800354 C-37.90297134 26.9534874 -36.70384613 26.96897125 -35.46838379 26.98492432 C-34.23248001 26.98916916 -32.99657623 26.993414 -31.72322083 26.99778748 C-28.44990422 27.01171527 -25.17703596 27.0386333 -21.90386963 27.07189941 C-18.55887989 27.10268059 -15.21387057 27.11605388 -11.86877441 27.13140869 C-5.31456323 27.16446664 1.23934921 27.21465843 7.79333496 27.27789307 C7.79333496 25.29789307 7.79333496 23.31789307 7.79333496 21.27789307 C6.79431152 21.28949463 5.79528809 21.30109619 4.76599121 21.31304932 C3.47563965 21.32207275 2.18528809 21.33109619 0.85583496 21.34039307 C-0.43193848 21.35199463 -1.71971191 21.36359619 -3.04650879 21.37554932 C-6.20666504 21.27789307 -6.20666504 21.27789307 -7.20666504 20.27789307 C-7.33334268 17.28771145 -7.39187342 14.33095199 -7.39416504 11.34039307 C-7.40641113 10.50314697 -7.41865723 9.66590088 -7.43127441 8.80328369 C-7.43320801 8.00213135 -7.4351416 7.200979 -7.43713379 6.37554932 C-7.44124268 5.63828613 -7.44535156 4.90102295 -7.44958496 4.14141846 C-6.87123888 -0.29528069 -3.73371592 0.03598735 0 0 Z M-2.20666504 5.27789307 C-2.20666504 8.90789307 -2.20666504 12.53789307 -2.20666504 16.27789307 C0.10333496 16.27789307 2.41333496 16.27789307 4.79333496 16.27789307 C4.7817334 15.65140869 4.77013184 15.02492432 4.75817871 14.37945557 C4.74915527 13.56218994 4.74013184 12.74492432 4.73083496 11.90289307 C4.7192334 11.09078369 4.70763184 10.27867432 4.69567871 9.44195557 C4.79333496 7.27789307 4.79333496 7.27789307 5.79333496 5.27789307 C3.15333496 5.27789307 0.51333496 5.27789307 -2.20666504 5.27789307 Z M8.79333496 5.27789307 C8.58580076 9.8472596 8.58580076 9.8472596 9.35583496 12.46539307 C9.79333496 14.27789307 9.79333496 14.27789307 8.79333496 16.27789307 C13.74333496 16.27789307 18.69333496 16.27789307 23.79333496 16.27789307 C23.79333496 12.64789307 23.79333496 9.01789307 23.79333496 5.27789307 C18.84333496 5.27789307 13.89333496 5.27789307 8.79333496 5.27789307 Z M11.79333496 37.27789307 C11.79333496 38.26789307 11.79333496 39.25789307 11.79333496 40.27789307 C13.77333496 40.27789307 15.75333496 40.27789307 17.79333496 40.27789307 C17.79333496 39.28789307 17.79333496 38.29789307 17.79333496 37.27789307 C14.74420268 36.26678214 14.74420268 36.26678214 11.79333496 37.27789307 Z M21.79333496 36.27789307 C21.79333496 37.59789307 21.79333496 38.91789307 21.79333496 40.27789307 C23.77333496 40.27789307 25.75333496 40.27789307 27.79333496 40.27789307 C27.79333496 38.95789307 27.79333496 37.63789307 27.79333496 36.27789307 C25.81333496 36.27789307 23.83333496 36.27789307 21.79333496 36.27789307 Z M-10.20666504 37.27789307 C-10.20666504 38.26789307 -10.20666504 39.25789307 -10.20666504 40.27789307 C-8.22666504 40.27789307 -6.24666504 40.27789307 -4.20666504 40.27789307 C-3.87666504 39.28789307 -3.54666504 38.29789307 -3.20666504 37.27789307 C-6.34016236 36.23339396 -7.1963476 36.34365662 -10.20666504 37.27789307 Z M0.79333496 37.27789307 C0.79333496 38.26789307 0.79333496 39.25789307 0.79333496 40.27789307 C2.77333496 40.27789307 4.75333496 40.27789307 6.79333496 40.27789307 C6.79333496 38.95789307 6.79333496 37.63789307 6.79333496 36.27789307 C4.6369946 36.27789307 2.86887144 36.72441667 0.79333496 37.27789307 Z M-30.20666504 38.27789307 C-30.20666504 38.60789307 -30.20666504 38.93789307 -30.20666504 39.27789307 C-27.56666504 39.27789307 -24.92666504 39.27789307 -22.20666504 39.27789307 C-22.20666504 41.25789307 -22.20666504 43.23789307 -22.20666504 45.27789307 C-30.12666504 44.94789307 -38.04666504 44.61789307 -46.20666504 44.27789307 C-46.53666504 42.62789307 -46.86666504 40.97789307 -47.20666504 39.27789307 C-47.53666504 39.27789307 -47.86666504 39.27789307 -48.20666504 39.27789307 C-48.20666504 43.56789307 -48.20666504 47.85789307 -48.20666504 52.27789307 C-47.87666504 51.61789307 -47.54666504 50.95789307 -47.20666504 50.27789307 C-43.57666504 50.27789307 -39.94666504 50.27789307 -36.20666504 50.27789307 C-36.20666504 51.26789307 -36.20666504 52.25789307 -36.20666504 53.27789307 C-39.50666504 53.27789307 -42.80666504 53.27789307 -46.20666504 53.27789307 C-46.20666504 53.60789307 -46.20666504 53.93789307 -46.20666504 54.27789307 C-38.61666504 54.27789307 -31.02666504 54.27789307 -23.20666504 54.27789307 C-23.20666504 53.94789307 -23.20666504 53.61789307 -23.20666504 53.27789307 C-25.51666504 52.94789307 -27.82666504 52.61789307 -30.20666504 52.27789307 C-30.53666504 50.95789307 -30.86666504 49.63789307 -31.20666504 48.27789307 C-28.56666504 48.27789307 -25.92666504 48.27789307 -23.20666504 48.27789307 C-22.87666504 49.92789307 -22.54666504 51.57789307 -22.20666504 53.27789307 C-21.87666504 53.27789307 -21.54666504 53.27789307 -21.20666504 53.27789307 C-21.20666504 48.32789307 -21.20666504 43.37789307 -21.20666504 38.27789307 C-24.68489619 37.11848268 -26.66562082 37.56968422 -30.20666504 38.27789307 Z M-9.20666504 44.27789307 C-9.20666504 45.59789307 -9.20666504 46.91789307 -9.20666504 48.27789307 C-7.22666504 48.27789307 -5.24666504 48.27789307 -3.20666504 48.27789307 C-3.53666504 46.95789307 -3.86666504 45.63789307 -4.20666504 44.27789307 C-5.85666504 44.27789307 -7.50666504 44.27789307 -9.20666504 44.27789307 Z M1.79333496 44.27789307 C1.46333496 45.59789307 1.13333496 46.91789307 0.79333496 48.27789307 C2.77333496 48.27789307 4.75333496 48.27789307 6.79333496 48.27789307 C6.46333496 46.95789307 6.13333496 45.63789307 5.79333496 44.27789307 C4.47333496 44.27789307 3.15333496 44.27789307 1.79333496 44.27789307 Z M11.79333496 44.27789307 C11.79333496 45.59789307 11.79333496 46.91789307 11.79333496 48.27789307 C13.77333496 48.27789307 15.75333496 48.27789307 17.79333496 48.27789307 C17.46333496 46.95789307 17.13333496 45.63789307 16.79333496 44.27789307 C15.14333496 44.27789307 13.49333496 44.27789307 11.79333496 44.27789307 Z M22.79333496 44.27789307 C22.46333496 45.26789307 22.13333496 46.25789307 21.79333496 47.27789307 C22.85978611 48.57422927 22.85978611 48.57422927 25.35583496 48.34039307 C26.16020996 48.31976807 26.96458496 48.29914307 27.79333496 48.27789307 C27.79333496 46.95789307 27.79333496 45.63789307 27.79333496 44.27789307 C26.14333496 44.27789307 24.49333496 44.27789307 22.79333496 44.27789307 Z M-9.20666504 53.27789307 C-9.20666504 54.26789307 -9.20666504 55.25789307 -9.20666504 56.27789307 C-7.22666504 56.27789307 -5.24666504 56.27789307 -3.20666504 56.27789307 C-3.20666504 55.28789307 -3.20666504 54.29789307 -3.20666504 53.27789307 C-5.18666504 53.27789307 -7.16666504 53.27789307 -9.20666504 53.27789307 Z M0.79333496 53.27789307 C0.79333496 54.26789307 0.79333496 55.25789307 0.79333496 56.27789307 C3.10333496 56.27789307 5.41333496 56.27789307 7.79333496 56.27789307 C7.46333496 55.28789307 7.13333496 54.29789307 6.79333496 53.27789307 C4.81333496 53.27789307 2.83333496 53.27789307 0.79333496 53.27789307 Z M11.79333496 53.27789307 C11.79333496 54.26789307 11.79333496 55.25789307 11.79333496 56.27789307 C13.77333496 56.27789307 15.75333496 56.27789307 17.79333496 56.27789307 C17.79333496 55.28789307 17.79333496 54.29789307 17.79333496 53.27789307 C15.81333496 53.27789307 13.83333496 53.27789307 11.79333496 53.27789307 Z " fill="#225257" transform="translate(166.2066650390625,98.72210693359375)"/>
<path d="M0 0 C23.10946435 0.25173708 51.22021085 9.33035954 68.03515625 25.81640625 C68.49792969 26.28949219 68.96070313 26.76257813 69.4375 27.25 C70.49169846 28.11439144 71.55404538 28.96895797 72.625 29.8125 C73.553125 30.616875 74.48125 31.42125 75.4375 32.25 C75.4375 32.91 75.4375 33.57 75.4375 34.25 C76.0975 34.25 76.7575 34.25 77.4375 34.25 C77.4375 34.91 77.4375 35.57 77.4375 36.25 C78.9225 36.745 78.9225 36.745 80.4375 37.25 C82.10835041 39.11078722 83.62353066 40.94724039 85.125 42.9375 C85.56416748 43.5154834 86.00333496 44.0934668 86.45581055 44.68896484 C103.0025717 66.9529689 114.75174125 98.17981755 111.4375 126.25 C108.09699311 147.79884514 101.40999721 165.51435259 90.4375 184.25 C85.79428167 183.58555308 83.72560884 182.24988842 80.6171875 178.8515625 C79.4375 177.25 79.4375 177.25 78.75 174.875 C79.55945135 171.78436758 81.11658889 169.57675518 82.87109375 166.9375 C93.11494565 149.36201345 95.92846622 130.30597 95.4375 110.25 C95.42976563 108.87134766 95.42976563 108.87134766 95.421875 107.46484375 C94.78892219 91.39236344 88.20590401 76.66785788 80.34960938 62.93408203 C79.18076172 60.77596878 78.27270323 58.55569401 77.4375 56.25 C76.7775 56.25 76.1175 56.25 75.4375 56.25 C74.23722216 54.83613889 73.10321652 53.36583314 72 51.875 C67.38438451 45.96098088 62.14408414 41.09680336 56.4375 36.25 C55.78136719 35.68410156 55.12523437 35.11820313 54.44921875 34.53515625 C38.69447375 21.81665761 16.27600442 15.67659443 -3.55078125 14.4609375 C-5.5625 14.25 -5.5625 14.25 -6.5625 13.25 C-6.66123816 11.25200428 -6.69221799 9.25042842 -6.6875 7.25 C-6.69007813 6.156875 -6.69265625 5.06375 -6.6953125 3.9375 C-6.46027071 -0.81863975 -4.26587434 0.06281042 0 0 Z " fill="#E16524" transform="translate(162.5625,38.75)"/>
<path d="M0 0 C4.10617829 0.00570076 8.21229122 0.0024023 12.31846714 -0.00357246 C15.54205291 -0.00723218 18.76562385 -0.00601511 21.98921013 -0.00344467 C23.50105739 -0.00279051 25.01290612 -0.00354906 26.52475166 -0.00592422 C34.79409847 -0.01607549 43.04649994 0.12854805 51.30761719 0.51367188 C52.08351731 0.54401457 52.85941744 0.57435726 53.65882969 0.60561943 C59.13205708 0.8959731 59.13205708 0.8959731 61.36645508 3.13037109 C61.82128275 6.923836 61.69048858 10.75028238 61.67895508 14.56787109 C61.69506836 15.63070312 61.71118164 16.69353516 61.7277832 17.78857422 C61.72842773 18.80757812 61.72907227 19.82658203 61.72973633 20.87646484 C61.73271729 21.81159912 61.73569824 22.7467334 61.73876953 23.71020508 C61.28867861 26.63594363 60.66769044 27.3298763 58.36645508 29.13037109 C56.3190155 29.50789452 56.3190155 29.50789452 53.92578125 29.51132202 C52.56300552 29.52401123 52.56300552 29.52401123 51.17269897 29.53695679 C50.17831818 29.53088409 49.18393738 29.5248114 48.15942383 29.51855469 C46.5859166 29.52644012 46.5859166 29.52644012 44.98062134 29.53448486 C41.50491551 29.54771423 38.02966576 29.53893614 34.55395508 29.52880859 C32.14404207 29.53082848 29.73412966 29.5337392 27.32421875 29.5375061 C22.27020455 29.54193345 17.21634927 29.53548505 12.16235352 29.52148438 C5.67536267 29.50439246 -0.81125585 29.51423142 -7.29823303 29.53220177 C-12.27554137 29.54302841 -17.25276105 29.53959837 -22.23007202 29.53181839 C-24.62234542 29.52981329 -27.01462679 29.53228646 -29.40689087 29.53925705 C-32.7469829 29.54685294 -36.08646706 29.53529292 -39.42651367 29.51855469 C-40.42089447 29.52462738 -41.41527527 29.53070007 -42.43978882 29.53695679 C-43.34830597 29.52849731 -44.25682312 29.52003784 -45.19287109 29.51132202 C-46.37752205 29.50962541 -46.37752205 29.50962541 -47.58610535 29.50789452 C-50.1663557 29.03212714 -51.05519898 28.1923634 -52.63354492 26.13037109 C-53.00585938 23.71020508 -53.00585938 23.71020508 -52.99682617 20.87646484 C-52.99585937 19.34795898 -52.99585937 19.34795898 -52.99487305 17.78857422 C-52.97875977 16.72574219 -52.96264648 15.66291016 -52.94604492 14.56787109 C-52.94926758 13.50117188 -52.95249023 12.43447266 -52.95581055 11.33544922 C-52.9005102 3.39733638 -52.9005102 3.39733638 -50.63354492 1.13037109 C-48.1530714 0.7989566 -45.7880728 0.61423951 -43.29370117 0.51318359 C-42.07034813 0.45688278 -42.07034813 0.45688278 -40.82228088 0.39944458 C-27.22654246 -0.13557833 -13.60394487 -0.01897353 0 0 Z M2.36645508 12.13037109 C1.70645508 13.45037109 1.04645508 14.77037109 0.36645508 16.13037109 C1.35645508 17.61537109 1.35645508 17.61537109 2.36645508 19.13037109 C4.01645508 18.80037109 5.66645508 18.47037109 7.36645508 18.13037109 C7.36645508 16.48037109 7.36645508 14.83037109 7.36645508 13.13037109 C5.71645508 12.80037109 4.06645508 12.47037109 2.36645508 12.13037109 Z " fill="#205558" transform="translate(151.633544921875,163.86962890625)"/>
<path d="M0 0 C0 4.62 0 9.24 0 14 C-1.0415625 14.09796875 -2.083125 14.1959375 -3.15625 14.296875 C-20.6970862 16.07344952 -36.67575146 20.01979812 -52.0859375 28.9296875 C-54.31648276 30.17697199 -56.5925802 31.14575427 -59 32 C-59 32.66 -59 33.32 -59 34 C-60.57421875 35.33203125 -60.57421875 35.33203125 -62.6875 36.8125 C-66.12444304 39.31045335 -69.06197456 41.91507329 -72 45 C-72.57105469 45.50402344 -73.14210937 46.00804687 -73.73046875 46.52734375 C-82.80461932 54.80456293 -89.69340185 66.54402461 -94 78 C-94.33386719 78.79921875 -94.66773437 79.5984375 -95.01171875 80.421875 C-99.52324427 91.75938894 -101.15899879 103.88958253 -102 116 C-106.62 116 -111.24 116 -116 116 C-117.025984 92.14587208 -109.02665829 63.37451269 -93 45 C-92.34 45 -91.68 45 -91 45 C-90.731875 44.4225 -90.46375 43.845 -90.1875 43.25 C-88.97070811 40.94449957 -87.69666121 38.97943808 -86 37 C-85.34 37 -84.68 37 -84 37 C-83.7421875 36.40703125 -83.484375 35.8140625 -83.21875 35.203125 C-81.90230105 32.82339035 -80.57419218 31.49021208 -78.5 29.75 C-77.8915625 29.22921875 -77.283125 28.7084375 -76.65625 28.171875 C-75 27 -75 27 -73 27 C-72.505 25.515 -72.505 25.515 -72 24 C-69.92174738 22.44353406 -67.88604359 21.05263143 -65.6875 19.6875 C-65.05521484 19.29014648 -64.42292969 18.89279297 -63.77148438 18.48339844 C-44.06726479 6.27943094 -23.15533375 -0.23871478 0 0 Z " fill="#20565B" transform="translate(155,39)"/>
<path d="M0 0 C4.29 0 8.58 0 13 0 C13.7928808 25.63647924 6.78824784 45.16394044 -6 67 C-10.64321833 66.33555308 -12.71189116 64.99988842 -15.8203125 61.6015625 C-17 60 -17 60 -17.6875 57.625 C-16.87804865 54.53436758 -15.32091111 52.32675518 -13.56640625 49.6875 C-4.58058949 34.27043782 -1.65223997 17.49430558 0 0 Z " fill="#632D7C" transform="translate(259,156)"/>
<path d="M0 0 C2.14576637 -0.02685938 4.29162645 -0.04633088 6.4375 -0.0625 C7.63246094 -0.07410156 8.82742187 -0.08570313 10.05859375 -0.09765625 C13 0 13 0 14 1 C14.23717035 2.36934077 14.41977398 3.74822929 14.578125 5.12890625 C16.57732751 21.40856137 19.74748892 35.12048356 28.14111328 49.33105469 C31.00860773 54.31998963 31.00860773 54.31998963 30.96484375 57.77734375 C29.86911819 60.30150506 28.78547548 61.60497358 26.6875 63.375 C25.79611328 64.16003906 25.79611328 64.16003906 24.88671875 64.9609375 C23 66 23 66 21.01171875 66.046875 C13.39511761 62.08328451 8.32646808 45.95234889 5.69677734 38.22705078 C1.77544727 25.69363351 -1.01199665 13.17844533 0 0 Z " fill="#652C7C" transform="translate(39,157)"/>
<path d="M0 0 C23.10946435 0.25173708 51.22021085 9.33035954 68.03515625 25.81640625 C68.49792969 26.28949219 68.96070313 26.76257813 69.4375 27.25 C70.49169846 28.11439144 71.55404538 28.96895797 72.625 29.8125 C73.553125 30.616875 74.48125 31.42125 75.4375 32.25 C75.4375 32.91 75.4375 33.57 75.4375 34.25 C76.0975 34.25 76.7575 34.25 77.4375 34.25 C77.4375 34.91 77.4375 35.57 77.4375 36.25 C78.9225 36.745 78.9225 36.745 80.4375 37.25 C82.17646019 39.27927074 83.78642353 41.29658045 85.375 43.4375 C85.80490234 44.00275391 86.23480469 44.56800781 86.67773438 45.15039062 C87.95066232 46.83668212 89.19686349 48.53985315 90.4375 50.25 C90.84758301 50.79736816 91.25766602 51.34473633 91.68017578 51.90869141 C92.81640625 53.48828125 92.81640625 53.48828125 94.4375 56.25 C94.1075 57.24 93.7775 58.23 93.4375 59.25 C92.26517315 57.6290787 91.0997923 56.00313167 89.9375 54.375 C89.2878125 53.47007813 88.638125 52.56515625 87.96875 51.6328125 C86.4375 49.25 86.4375 49.25 86.4375 47.25 C85.880625 47.064375 85.32375 46.87875 84.75 46.6875 C81.82741558 44.87075833 80.50588968 42.68244405 78.68359375 39.80859375 C77.42389666 37.94351671 77.42389666 37.94351671 74.4375 37.25 C74.4375 36.26 74.4375 35.27 74.4375 34.25 C72.9525 33.755 72.9525 33.755 71.4375 33.25 C71.4375 32.59 71.4375 31.93 71.4375 31.25 C70.86 31.1675 70.2825 31.085 69.6875 31 C67.4375 30.25 67.4375 30.25 65.6875 28.4296875 C62.24043802 25.09034621 58.10753597 23.12903884 53.921875 20.8359375 C53.10203125 20.31257813 52.2821875 19.78921875 51.4375 19.25 C51.4375 18.59 51.4375 17.93 51.4375 17.25 C50.85871094 17.12625 50.27992188 17.0025 49.68359375 16.875 C47.4023128 16.24020878 45.58033741 15.37049856 43.5 14.25 C40.48684437 12.69554962 37.83733381 11.67497923 34.4375 11.25 C34.4375 10.59 34.4375 9.93 34.4375 9.25 C33.7775 9.25 33.1175 9.25 32.4375 9.25 C32.4375 8.59 32.4375 7.93 32.4375 7.25 C31.138125 7.1159375 29.83875 6.981875 28.5 6.84375 C23.02032698 6.23489744 17.61594308 5.30733117 12.1875 4.35546875 C6.94934638 3.4551611 1.72489592 2.79552498 -3.5625 2.25 C-3.5625 5.55 -3.5625 8.85 -3.5625 12.25 C-2.056875 12.20875 -0.55125 12.1675 1 12.125 C5.50302158 12.11866664 9.12717302 12.89304521 13.4375 14.25 C14.78817177 14.44295311 16.14293052 14.60890582 17.5 14.75 C27.79997549 16.0579334 38.66855519 20.74391837 47.4375 26.25 C47.4375 26.91 47.4375 27.57 47.4375 28.25 C48.241875 28.37375 49.04625 28.4975 49.875 28.625 C51.1434375 28.934375 51.1434375 28.934375 52.4375 29.25 C52.9325 30.24 52.9325 30.24 53.4375 31.25 C54.283125 31.745 55.12875 32.24 56 32.75 C56.804375 33.245 57.60875 33.74 58.4375 34.25 C58.4375 34.91 58.4375 35.57 58.4375 36.25 C60.0875 36.58 61.7375 36.91 63.4375 37.25 C63.4375 37.91 63.4375 38.57 63.4375 39.25 C64.0975 39.25 64.7575 39.25 65.4375 39.25 C69.22670323 42.90585883 72.22171399 47.31082631 75.2109375 51.62109375 C76.57823374 53.51572457 76.57823374 53.51572457 79.125 55.9375 C82.21854765 59.03104765 83.4375 60.86859259 83.4375 65.25 C84.0975 65.25 84.7575 65.25 85.4375 65.25 C85.4375 66.24 85.4375 67.23 85.4375 68.25 C86.0975 68.25 86.7575 68.25 87.4375 68.25 C87.94410156 69.57064453 87.94410156 69.57064453 88.4609375 70.91796875 C88.90695313 72.07941406 89.35296875 73.24085937 89.8125 74.4375 C90.25335938 75.58605469 90.69421875 76.73460938 91.1484375 77.91796875 C92.2260402 80.70340845 93.32417159 83.47872799 94.4375 86.25 C98.06121311 95.62902216 97.56446451 105.33266114 97.4375 115.25 C100.7375 115.25 104.0375 115.25 107.4375 115.25 C107.63239526 108.62356116 107.14141832 102.61735801 105.875 96.109375 C105.4166646 93.11382579 105.36588738 90.27563321 105.4375 87.25 C104.7775 87.25 104.1175 87.25 103.4375 87.25 C102.96570313 85.5484375 102.96570313 85.5484375 102.484375 83.8125 C100.34640291 76.24446462 98.25073736 69.17031965 94.4375 62.25 C94.4375 61.59 94.4375 60.93 94.4375 60.25 C95.0975 60.25 95.7575 60.25 96.4375 60.25 C106.74366739 81.18078377 115.7332835 107.69883273 110.4375 131.25 C110.1075 131.25 109.7775 131.25 109.4375 131.25 C109.4375 126.63 109.4375 122.01 109.4375 117.25 C105.1475 117.25 100.8575 117.25 96.4375 117.25 C96.32535156 115.54070312 96.32535156 115.54070312 96.2109375 113.796875 C94.7529362 95.07285832 89.65506006 79.2011621 80.34960938 62.93408203 C79.18076172 60.77596878 78.27270323 58.55569401 77.4375 56.25 C76.7775 56.25 76.1175 56.25 75.4375 56.25 C74.23722216 54.83613889 73.10321652 53.36583314 72 51.875 C67.38438451 45.96098088 62.14408414 41.09680336 56.4375 36.25 C55.78136719 35.68410156 55.12523437 35.11820313 54.44921875 34.53515625 C38.69447375 21.81665761 16.27600442 15.67659443 -3.55078125 14.4609375 C-5.5625 14.25 -5.5625 14.25 -6.5625 13.25 C-6.66123816 11.25200428 -6.69221799 9.25042842 -6.6875 7.25 C-6.69007813 6.156875 -6.69265625 5.06375 -6.6953125 3.9375 C-6.46027071 -0.81863975 -4.26587434 0.06281042 0 0 Z " fill="#D2693B" transform="translate(162.5625,38.75)"/>
<path d="M0 0 C2.64 0 5.28 0 8 0 C10.22656164 4.74354436 11.46148032 8.72250715 12 14 C12.66 14 13.32 14 14 14 C14.18175781 13.11248047 14.18175781 13.11248047 14.3671875 12.20703125 C15.26744643 7.96196415 16.20456621 3.97560339 18 0 C20.64 0 23.28 0 26 0 C27.65 4.62 29.3 9.24 31 14 C31.639375 11.875625 32.27875 9.75125 32.9375 7.5625 C34.875 1.125 34.875 1.125 36 0 C38.33297433 -0.04092937 40.66705225 -0.04241723 43 0 C42.42063175 6.33638191 40.93337939 11.97068452 38.9375 18 C38.65583984 18.87011719 38.37417969 19.74023438 38.08398438 20.63671875 C37.39567574 22.75997589 36.70093339 24.88088417 36 27 C28.25 28.125 28.25 28.125 26 27 C25.21655744 25.00708223 24.51983635 22.97948177 23.875 20.9375 C23.34519531 19.28041016 23.34519531 19.28041016 22.8046875 17.58984375 C22.53914063 16.73519531 22.27359375 15.88054687 22 15 C21.566875 16.216875 21.13375 17.43375 20.6875 18.6875 C18.04417752 25.57727108 18.04417752 25.57727108 16 28 C13 28.5 13 28.5 10 28 C7.11577337 25.76601096 6.24872539 23.42843807 5.17578125 20 C4.86962891 19.030625 4.56347656 18.06125 4.24804688 17.0625 C3.93931641 16.051875 3.63058594 15.04125 3.3125 14 C2.83200195 12.4840625 2.83200195 12.4840625 2.34179688 10.9375 C0 3.42777186 0 3.42777186 0 0 Z " fill="#3D383C" transform="translate(79,216)"/>
<path d="M0 0 C5.56200357 0.47135623 9.78602029 2.35159905 13.6875 6.375 C15.26868412 11.01972835 15.34139923 15.46511658 14.6875 20.3125 C12.69781547 24.22325925 11.32216354 25.88939098 7.6875 28.3125 C2.5302749 29.74506253 -2.36872475 30.01225909 -7.4375 28.1875 C-10.80924046 25.98853883 -13.53645787 23.95566334 -15.3125 20.3125 C-16.09701 15.69425244 -15.93520772 11.74472776 -14.0625 7.4375 C-9.27562364 1.62486443 -9.27562364 1.62486443 -6 0.5625 C-3.99986543 0.37644097 -1.99989007 0.18866887 0 0 Z M-6.3125 10.3125 C-7.54465824 13.85495493 -7.57687963 15.61267155 -6.25 19.125 C-4.43572962 21.54913266 -4.43572962 21.54913266 -1.375 22.25 C1.75712827 22.31392099 3.15449434 22.09498547 5.6875 20.3125 C7.13180855 17.42388291 7.06438506 15.51602299 6.6875 12.3125 C4.49947419 9.37395926 4.49947419 9.37395926 1.6875 7.3125 C-2.0077982 7.3125 -3.42623339 8.03386847 -6.3125 10.3125 Z " fill="#3E383C" transform="translate(193.3125,214.6875)"/>
<path d="M0 0 C2.97 0 5.94 0 9 0 C15.73842043 14.19611045 15.73842043 14.19611045 18.5 20.75 C18.8196875 21.50796875 19.139375 22.2659375 19.46875 23.046875 C20 25 20 25 19 28 C13.25 28.125 13.25 28.125 11 27 C10.375 24.4375 10.375 24.4375 10 22 C6.60043999 22.07015978 3.31943691 22.23231264 0 23 C-1.69882448 25.49759982 -1.69882448 25.49759982 -3 28 C-6.6875 28.3125 -6.6875 28.3125 -10 28 C-9.49825923 21.42263461 -7.10790672 16.0453561 -4.4375 10.0625 C-4.01275391 9.09248047 -3.58800781 8.12246094 -3.15039062 7.12304688 C-2.10789047 4.74520943 -1.05762761 2.37113802 0 0 Z M4 10 C3.34 11.98 2.68 13.96 2 16 C3.65 16 5.3 16 7 16 C6.34 14.02 5.68 12.04 5 10 C4.67 10 4.34 10 4 10 Z " fill="#3C383C" transform="translate(131,216)"/>
<path d="M0 0 C0.639375 0.33 1.27875 0.66 1.9375 1 C1.6075 3.31 1.2775 5.62 0.9375 8 C-4.5075 7.505 -4.5075 7.505 -10.0625 7 C-10.3925 7.66 -10.7225 8.32 -11.0625 9 C-10.30324219 9.18175781 -9.54398438 9.36351562 -8.76171875 9.55078125 C-7.76785156 9.80214844 -6.77398437 10.05351562 -5.75 10.3125 C-4.76386719 10.55613281 -3.77773437 10.79976562 -2.76171875 11.05078125 C-0.02582769 12.01289634 1.17767256 12.74145924 2.9375 15 C4.18535582 18.29790466 4.00242365 19.79305585 2.9375 23.1875 C0.9375 26 0.9375 26 -2.25 27.375 C-8.24343513 28.35753035 -13.449119 28.8066905 -19.0625 26 C-19.0625 24.02 -19.0625 22.04 -19.0625 20 C-15.65848052 18.86267574 -13.28793336 19.16010043 -9.8125 19.9375 C-8.92046875 20.13214844 -8.0284375 20.32679688 -7.109375 20.52734375 C-6.43390625 20.68332031 -5.7584375 20.83929688 -5.0625 21 C-7.23091672 18.56053119 -8.96518585 17.48550905 -12.0625 16.5 C-15.15096704 15.51730594 -16.96582221 14.50593922 -19.0625 12 C-20.05418797 9.10121978 -20.1430016 7.37567416 -19.5 4.375 C-15.39671933 -2.40433328 -6.77372884 -2.21182982 0 0 Z " fill="#3B363A" transform="translate(229.0625,216)"/>
<path d="M0 0 C4.5478125 -0.12375 4.5478125 -0.12375 9.1875 -0.25 C10.60712036 -0.30462402 10.60712036 -0.30462402 12.05541992 -0.36035156 C16.21574001 -0.41511005 18.4337676 -0.35090458 22.05078125 1.890625 C24.55504528 4.6006502 24.95478202 5.52973298 25.3125 9.25 C24.94567755 13.65186937 23.8035514 15.63573832 21 19 C17.98509443 20.00496852 15.95818308 20.10335303 12.8125 20.0625 C11.91144531 20.05347656 11.01039063 20.04445312 10.08203125 20.03515625 C9.39496094 20.02355469 8.70789063 20.01195312 8 20 C8 22.31 8 24.62 8 27 C5.36 27 2.72 27 0 27 C0 18.09 0 9.18 0 0 Z M8 6 C8 8.31 8 10.62 8 13 C10.91482778 13.80967438 12.46113217 14.21845993 15.3125 13.0625 C15.869375 12.711875 16.42625 12.36125 17 12 C16.65555119 9.52733235 16.65555119 9.52733235 16 7 C13.29120665 5.64560332 10.99066732 5.93498549 8 6 Z " fill="#3E3A3D" transform="translate(152,216)"/>
<path d="M0 0 C0.66 0.66 1.32 1.32 2 2 C1.34 2.639375 0.68 3.27875 0 3.9375 C-1.00479369 4.95361531 -2.00410149 5.97516497 -3 7 C-3.90685547 7.93005859 -3.90685547 7.93005859 -4.83203125 8.87890625 C-12.74017566 17.3485757 -18.79392786 27.20885564 -23 38 C-23.33644531 38.80308594 -23.67289063 39.60617188 -24.01953125 40.43359375 C-28.51843759 51.77353369 -30.15908791 63.89086584 -31 76 C-35.62 76 -40.24 76 -45 76 C-45.83063839 56.6876575 -41.0228562 39.04317283 -32 22 C-31.14303725 24.41805413 -30.88130896 25.64523838 -31.70703125 28.11328125 C-32.07183594 28.83902344 -32.43664063 29.56476563 -32.8125 30.3125 C-34.64350769 34.15636204 -35.89560409 37.87692193 -37 42 C-37.48256958 43.32227488 -37.96711362 44.64383005 -38.453125 45.96484375 C-40.3350777 51.56674966 -41.01196298 57.21153728 -41.6875 63.0625 C-41.81705078 64.11888672 -41.94660156 65.17527344 -42.08007812 66.26367188 C-42.39501011 68.84144847 -42.69867787 71.4205971 -43 74 C-39.7 74 -36.4 74 -33 74 C-33.04125 72.39125 -33.0825 70.7825 -33.125 69.125 C-33.11781442 63.5058751 -32.35346683 58.4389315 -31 53 C-30.77054688 52.06800781 -30.54109375 51.13601562 -30.3046875 50.17578125 C-28.34231117 42.60513994 -25.55821077 35.96816276 -22 29 C-21.566875 28.071875 -21.13375 27.14375 -20.6875 26.1875 C-15.35043503 16.10637728 -8.01927464 8.01927464 0 0 Z " fill="#264B54" transform="translate(84,79)"/>
<path d="M0 0 C2 2 2 2 4 5 C7.06556598 5.73343428 7.06556598 5.73343428 10 6 C10 4.35 10 2.7 10 1 C12 3 12 3 12.1953125 5.8203125 C12.17210937 6.91085938 12.14890625 8.00140625 12.125 9.125 C12.10695312 10.22070312 12.08890625 11.31640625 12.0703125 12.4453125 C12.04710937 13.28835937 12.02390625 14.13140625 12 15 C10.52093108 15.02689216 9.04172517 15.04634621 7.5625 15.0625 C6.32693359 15.07990234 6.32693359 15.07990234 5.06640625 15.09765625 C3 15 3 15 2 14 C1.67 14.66 1.34 15.32 1 16 C-1.06640625 16.4140625 -1.06640625 16.4140625 -3.5625 16.625 C-4.38878906 16.69976562 -5.21507812 16.77453125 -6.06640625 16.8515625 C-7.02353516 16.92503906 -7.02353516 16.92503906 -8 17 C-8 16.34 -8 15.68 -8 15 C-8.99 15.495 -8.99 15.495 -10 16 C-11.54023996 16.06950541 -13.08334988 16.08452357 -14.625 16.0625 C-15.85089844 16.04896484 -15.85089844 16.04896484 -17.1015625 16.03515625 C-17.72804687 16.02355469 -18.35453125 16.01195312 -19 16 C-19.36305732 10.55414013 -19.36305732 10.55414013 -17.8125 8.1875 C-15.57968261 6.72461964 -13.62655933 6.35494045 -11 6 C-10.67 4.68 -10.34 3.36 -10 2 C-9.7215625 2.9590625 -9.7215625 2.9590625 -9.4375 3.9375 C-8.05753944 6.42126213 -8.05753944 6.42126213 -4.375 6.75 C-3.26125 6.8325 -2.1475 6.915 -1 7 C-0.67 4.69 -0.34 2.38 0 0 Z M-18 11 C-18 11.99 -18 12.98 -18 14 C-15.69 14 -13.38 14 -11 14 C-11.33 13.01 -11.66 12.02 -12 11 C-13.98 11 -15.96 11 -18 11 Z M-7 11 C-7 11.99 -7 12.98 -7 14 C-5.02 14 -3.04 14 -1 14 C-1 13.01 -1 12.02 -1 11 C-2.98 11 -4.96 11 -7 11 Z " fill="#2A4F51" transform="translate(185,141)"/>
<path d="M0 0 C0 1.98 0 3.96 0 6 C-3.97915159 6.02886984 -7.95827653 6.04675406 -11.9375 6.0625 C-13.64196289 6.07506836 -13.64196289 6.07506836 -15.38085938 6.08789062 C-16.46044922 6.09111328 -17.54003906 6.09433594 -18.65234375 6.09765625 C-20.15269165 6.10551147 -20.15269165 6.10551147 -21.68334961 6.11352539 C-24 6 -24 6 -25 5 C-25.04063832 3.33382885 -25.042721 1.66611905 -25 0 C-17.34431023 -2.55189659 -7.89229429 -1.26276709 0 0 Z " fill="#24404B" transform="translate(144,138)"/>
<path d="M0 0 C0.78826172 0.01353516 1.57652344 0.02707031 2.38867188 0.04101562 C4.32191169 0.07616544 6.25479682 0.12996639 8.1875 0.1875 C8.2685206 2.29103495 8.32669907 4.39545952 8.375 6.5 C8.42720703 8.25763672 8.42720703 8.25763672 8.48046875 10.05078125 C8.1875 13.1875 8.1875 13.1875 6.875 15.09375 C4.3481671 16.73151207 2.11829906 16.3828866 -0.8125 16.1875 C-0.8125 15.5275 -0.8125 14.8675 -0.8125 14.1875 C-6.4225 14.1875 -12.0325 14.1875 -17.8125 14.1875 C-16.4925 13.1975 -15.1725 12.2075 -13.8125 11.1875 C-13.57544194 9.04966734 -13.86642835 7.2494977 -14.16015625 5.125 C-13.8125 3.1875 -13.8125 3.1875 -11.859375 1.44921875 C-7.79521474 -0.23376043 -4.34608748 -0.14207662 0 0 Z M-8.8125 1.1875 C-9.0200342 5.75686654 -9.0200342 5.75686654 -8.25 8.375 C-7.8125 10.1875 -7.8125 10.1875 -8.8125 12.1875 C-3.8625 12.1875 1.0875 12.1875 6.1875 12.1875 C6.1875 8.5575 6.1875 4.9275 6.1875 1.1875 C1.2375 1.1875 -3.7125 1.1875 -8.8125 1.1875 Z " fill="#274951" transform="translate(183.8125,102.8125)"/>
<path d="M0 0 C0.66 0 1.32 0 2 0 C2.84537547 18.56695015 -2.20163674 35.75686783 -11 52 C-11.66 51.67 -12.32 51.34 -13 51 C-11.68610311 46.77541286 -10.0431359 42.95119224 -8.0625 39 C-2.3273163 26.65051685 -1.29054956 13.39134955 0 0 Z " fill="#602E67" transform="translate(270,161)"/>
<path d="M0 0 C1 1 1 1 1.0625 3.5625 C1.041875 4.366875 1.02125 5.17125 1 6 C1.66 6.33 2.32 6.66 3 7 C-0.44633882 9.29755922 -1.71068391 9.23643976 -5.76171875 9.1953125 C-6.87998047 9.18886719 -7.99824219 9.18242187 -9.15039062 9.17578125 C-10.90125977 9.15064453 -10.90125977 9.15064453 -12.6875 9.125 C-13.86634766 9.11597656 -15.04519531 9.10695312 -16.25976562 9.09765625 C-19.17338026 9.07406423 -22.08658892 9.0411454 -25 9 C-24.67 8.34 -24.34 7.68 -24 7 C-15.585 6.505 -15.585 6.505 -7 6 C-7.33 4.35 -7.66 2.7 -8 1 C-5.26752652 -0.36623674 -3.01801098 -0.128426 0 0 Z " fill="#26494F" transform="translate(143,146)"/>
<path d="M0 0 C0.66 0.33 1.32 0.66 2 1 C0.71034824 2.37562854 -0.62689293 3.70766393 -2 5 C-2.66 5 -3.32 5 -4 5 C-4 5.66 -4 6.32 -4 7 C-4.99 7 -5.98 7 -7 7 C-7.33 7.99 -7.66 8.98 -8 10 C-8.969375 10.309375 -9.93875 10.61875 -10.9375 10.9375 C-14.10517046 11.66180893 -14.10517046 11.66180893 -15.1875 14.0625 C-15.455625 14.701875 -15.72375 15.34125 -16 16 C-16.99 16.33 -17.98 16.66 -19 17 C-19.2475 17.598125 -19.495 18.19625 -19.75 18.8125 C-21.68799499 22.20399123 -24.5674469 23.22015765 -28 25 C-27.34 23.68 -26.68 22.36 -26 21 C-25.34 21 -24.68 21 -24 21 C-23.7421875 20.40703125 -23.484375 19.8140625 -23.21875 19.203125 C-21.90230105 16.82339035 -20.57419218 15.49021208 -18.5 13.75 C-17.8915625 13.22921875 -17.283125 12.7084375 -16.65625 12.171875 C-15 11 -15 11 -13 11 C-12.67 10.01 -12.34 9.02 -12 8 C-9.27734375 5.95703125 -9.27734375 5.95703125 -5.9375 3.8125 C-4.83277344 3.09707031 -3.72804688 2.38164063 -2.58984375 1.64453125 C-1.73519531 1.10183594 -0.88054687 0.55914062 0 0 Z " fill="#294F59" transform="translate(95,55)"/>
<path d="M0 0 C0.99 0.33 1.98 0.66 3 1 C3.921875 3.046875 3.921875 3.046875 4.75 5.75 C6.7191394 11.61144608 9.46561277 16.7841527 12.51171875 22.15234375 C13.74733918 24.51656236 14.53004216 26.39956663 15 29 C16.32 29 17.64 29 19 29 C18.67 29.99 18.34 30.98 18 32 C16.2421875 31.8828125 16.2421875 31.8828125 14 31 C8.50084148 23.4970995 0 9.60969061 0 0 Z " fill="#5D2A6C" transform="translate(44,191)"/>
<path d="M0 0 C4.29 0 8.58 0 13 0 C13 0.33 13 0.66 13 1 C9.04 1 5.08 1 1 1 C1.309375 3.35125 1.309375 3.35125 1.625 5.75 C2.50826476 15.57947494 0.07705955 24.72779388 -3 34 C-3.33 34 -3.66 34 -4 34 C-4.17874328 28.9951882 -3.7968233 25.10384073 -2.51220703 20.22070312 C-1.6210128 16.35687915 -1.2664888 12.44055942 -0.875 8.5 C-0.78863281 7.67757812 -0.70226562 6.85515625 -0.61328125 6.0078125 C-0.40376148 4.00573474 -0.20114956 2.00293603 0 0 Z " fill="#66316A" transform="translate(259,156)"/>
<path d="M0 0 C0.99 0 1.98 0 3 0 C3.08040527 0.59949463 3.16081055 1.19898926 3.24365234 1.81665039 C3.61546743 4.56601347 3.99517304 7.31423278 4.375 10.0625 C4.50132813 11.00544922 4.62765625 11.94839844 4.7578125 12.91992188 C5.32717195 17.00507593 5.90450544 20.98196919 7.09375 24.9375 C8.12068751 28.40784056 8.14692288 31.40038952 8 35 C0.32487893 27.32487893 0.83038925 10.24875153 0 0 Z " fill="#59296A" transform="translate(50,158)"/>
<path d="M0 0 C0.66 0 1.32 0 2 0 C13.40275476 23.15784183 13.40275476 23.15784183 13 34 C12.34 33.67 11.68 33.34 11 33 C11 31.02 11 29.04 11 27 C10.34 27 9.68 27 9 27 C8.68546875 25.865625 8.3709375 24.73125 8.046875 23.5625 C5.90890291 15.99446462 3.81323736 8.92031965 0 2 C0 1.34 0 0.68 0 0 Z " fill="#D26A40" transform="translate(257,99)"/>
<path d="M0 0 C1.35015859 4.05047576 0.62084998 6.7920168 0 11 C0.99 11.66 1.98 12.32 3 13 C3.33 13.99 3.66 14.98 4 16 C4.66 16.33 5.32 16.66 6 17 C6 15.35 6 13.7 6 12 C7.32 11.34 8.64 10.68 10 10 C10 9.34 10 8.68 10 8 C10.66 8.33 11.32 8.66 12 9 C10.35 11.97 8.7 14.94 7 18 C1.40651111 16.88130222 -0.72056753 15.48879129 -4 11 C-4.625 8.5 -4.625 8.5 -4 6 C-2 2.6875 -2 2.6875 0 0 Z " fill="#662E68" transform="translate(246,205)"/>
<path d="M0 0 C0.66 0.33 1.32 0.66 2 1 C2.41064453 3.22485352 2.41064453 3.22485352 2.6328125 6.12890625 C2.71660156 7.16337891 2.80039062 8.19785156 2.88671875 9.26367188 C2.96535156 10.35228516 3.04398437 11.44089844 3.125 12.5625 C3.21136719 13.65498047 3.29773438 14.74746094 3.38671875 15.87304688 C3.59960083 18.58137994 3.8008744 21.29062078 4 24 C7.96 24.33 11.92 24.66 16 25 C16 29.95 16 34.9 16 40 C15.67 40 15.34 40 15 40 C15 35.38 15 30.76 15 26 C10.71 26 6.42 26 2 26 C1.86722656 24.69804687 1.73445313 23.39609375 1.59765625 22.0546875 C1.41936886 20.32811487 1.24097798 18.60155293 1.0625 16.875 C0.93198242 15.59109375 0.93198242 15.59109375 0.79882812 14.28125 C0.42044371 10.63754818 0.00969739 7.05481135 -0.62890625 3.4453125 C-0.75136719 2.63835937 -0.87382812 1.83140625 -1 1 C-0.67 0.67 -0.34 0.34 0 0 Z " fill="#C56041" transform="translate(257,130)"/>
<path d="M0 0 C0.33 0 0.66 0 1 0 C1 1.65 1 3.3 1 5 C1.88042969 4.89300781 2.76085937 4.78601563 3.66796875 4.67578125 C4.82941406 4.55589844 5.99085938 4.43601562 7.1875 4.3125 C8.91033203 4.12107422 8.91033203 4.12107422 10.66796875 3.92578125 C14.51446327 4.01145932 16.08212752 4.51364387 19 7 C20.36328125 9.77734375 20.36328125 9.77734375 21.3125 12.9375 C21.80169922 14.49791016 21.80169922 14.49791016 22.30078125 16.08984375 C23 19 23 19 23 23 C22.34 23 21.68 23 21 23 C20.49363393 21.25183142 19.99515381 19.50137737 19.5 17.75 C19.2215625 16.77546875 18.943125 15.8009375 18.65625 14.796875 C18 12 18 12 18 8 C16.78441406 7.93941406 15.56882813 7.87882813 14.31640625 7.81640625 C12.73175772 7.73201668 11.14712298 7.6473679 9.5625 7.5625 C8.76005859 7.52318359 7.95761719 7.48386719 7.13085938 7.44335938 C1.11328125 7.11328125 1.11328125 7.11328125 0 6 C-0.04080783 4.00041636 -0.04254356 1.99954746 0 0 Z " fill="#23464E" transform="translate(180,122)"/>
<path d="M0 0 C12.27433558 0.02584071 12.27433558 0.02584071 18.0859375 1.1328125 C17.7559375 2.4528125 17.4259375 3.7728125 17.0859375 5.1328125 C17.0859375 4.4728125 17.0859375 3.8128125 17.0859375 3.1328125 C15.18908203 3.16761719 15.18908203 3.16761719 13.25390625 3.203125 C11.5937559 3.22188376 9.93359917 3.24008385 8.2734375 3.2578125 C7.44005859 3.27457031 6.60667969 3.29132813 5.74804688 3.30859375 C4.94560547 3.31503906 4.14316406 3.32148438 3.31640625 3.328125 C2.20881958 3.34383545 2.20881958 3.34383545 1.07885742 3.35986328 C-0.9140625 3.1328125 -0.9140625 3.1328125 -3.9140625 1.1328125 C-2.9140625 0.1328125 -2.9140625 0.1328125 0 0 Z " fill="#194648" transform="translate(124.9140625,136.8671875)"/>
<path d="M0 0 C0.66 0 1.32 0 2 0 C2.33772739 2.70784994 2.67030687 5.41616996 3 8.125 C3.09539063 8.88554687 3.19078125 9.64609375 3.2890625 10.4296875 C3.79830188 14.64909952 4.10888068 18.74004344 4 23 C3.34 23 2.68 23 2 23 C0.04596958 15.27111181 -0.22428282 7.94957992 0 0 Z " fill="#582869" transform="translate(39,158)"/>
<path d="M0 0 C0.63292969 0.15339844 1.26585938 0.30679688 1.91796875 0.46484375 C6.04026849 1.18062964 10.13766507 1.36150163 14.3125 1.5625 C15.14845703 1.60568359 15.98441406 1.64886719 16.84570312 1.69335938 C18.89696935 1.79885307 20.9484648 1.89987315 23 2 C23 2.66 23 3.32 23 4 C15.41 4 7.82 4 0 4 C0 2.68 0 1.36 0 0 Z " fill="#235359" transform="translate(119,138)"/>
<path d="M0 0 C0.99 0.495 0.99 0.495 2 1 C2 4.63 2 8.26 2 12 C5.63 12 9.26 12 13 12 C13 12.99 13 13.98 13 15 C6.565 15.495 6.565 15.495 0 16 C0 10.72 0 5.44 0 0 Z " fill="#41545C" transform="translate(117,137)"/>
<path d="M0 0 C0.33 0 0.66 0 1 0 C1.33 4.29 1.66 8.58 2 13 C-6.03891904 13.76561134 -13.92648346 14.12883271 -22 14 C-22 13.67 -22 13.34 -22 13 C-7.40318907 10.70387244 -7.40318907 10.70387244 0 11 C0 7.37 0 3.74 0 0 Z " fill="#234750" transform="translate(153,40)"/>
<path d="M0 0 C0 3.59750625 -0.95245516 4.95875881 -2.8125 8 C-3.33457031 8.86625 -3.85664062 9.7325 -4.39453125 10.625 C-5.80201625 12.70711893 -7.2036566 14.26852455 -9 16 C-10.03357147 17.64605826 -11.04060332 19.30963442 -12 21 C-12.33 20.34 -12.66 19.68 -13 19 C-11.890625 16.79296875 -11.890625 16.79296875 -10.25 14.1875 C-9.71890625 13.33542969 -9.1878125 12.48335937 -8.640625 11.60546875 C-8.09921875 10.74566406 -7.5578125 9.88585937 -7 9 C-6.47921875 8.06800781 -5.9584375 7.13601562 -5.421875 6.17578125 C-4.95265625 5.45777344 -4.4834375 4.73976563 -4 4 C-3.34 4 -2.68 4 -2 4 C-1.34 2.68 -0.68 1.36 0 0 Z " fill="#2F505C" transform="translate(66,80)"/>
<path d="M0 0 C2.64 0 5.28 0 8 0 C8 0.66 8 1.32 8 2 C6.02 2 4.04 2 2 2 C2 2.99 2 3.98 2 5 C3.65 5 5.3 5 7 5 C7 5.33 7 5.66 7 6 C3.04 6 -0.92 6 -5 6 C-4.34 5.67 -3.68 5.34 -3 5 C-3 4.01 -3 3.02 -3 2 C-2.01 2 -1.02 2 0 2 C0 1.34 0 0.68 0 0 Z " fill="#2D4D55" transform="translate(176,134)"/>
<path d="M0 0 C2.64 0 5.28 0 8 0 C8 1.65 8 3.3 8 5 C5.36 5 2.72 5 0 5 C0 3.35 0 1.7 0 0 Z " fill="#BD6636" transform="translate(188,151)"/>
<path d="M0 0 C0.33 0 0.66 0 1 0 C1 1.65 1 3.3 1 5 C2.98 5 4.96 5 7 5 C7.33 4.01 7.66 3.02 8 2 C8.33 2 8.66 2 9 2 C9 5.63 9 9.26 9 13 C8.01 11.68 7.02 10.36 6 9 C2.91222828 7.71991738 2.91222828 7.71991738 0 7 C0 4.69 0 2.38 0 0 Z " fill="#264A51" transform="translate(155,134)"/>
<path d="M0 0 C0.99 0 1.98 0 3 0 C3.33 1.98 3.66 3.96 4 6 C3.01 6 2.02 6 1 6 C1.33 6.99 1.66 7.98 2 9 C0.68 8.67 -0.64 8.34 -2 8 C-2.125 5.125 -2.125 5.125 -2 2 C-1.34 1.34 -0.68 0.68 0 0 Z " fill="#33494E" transform="translate(172,104)"/>
<path d="M0 0 C0.99 0 1.98 0 3 0 C1.52440331 4.42679007 -0.90057368 4.91432696 -5 7 C-5.66 7 -6.32 7 -7 7 C-7 7.66 -7 8.32 -7 9 C-8.65 9.66 -10.3 10.32 -12 11 C-10.6015209 7.5912072 -9.14993067 6.12606165 -6 4.25 C-5.29875 3.82203125 -4.5975 3.3940625 -3.875 2.953125 C-2 2 -2 2 0 2 C0 1.34 0 0.68 0 0 Z " fill="#264D57" transform="translate(103,64)"/>
<path d="M0 0 C0 0.66 0 1.32 0 2 C-5.28830549 4.15294651 -10.55123997 6.27933894 -16 8 C-16 7.01 -16 6.02 -16 5 C-5.3255814 0 -5.3255814 0 0 0 Z " fill="#264F54" transform="translate(130,54)"/>
<path d="M0 0 C0.33 0 0.66 0 1 0 C1.02505615 0.59014893 1.0501123 1.18029785 1.07592773 1.78833008 C1.19200052 4.46326814 1.31467572 7.1378638 1.4375 9.8125 C1.47681641 10.74126953 1.51613281 11.67003906 1.55664062 12.62695312 C1.59853516 13.51962891 1.64042969 14.41230469 1.68359375 15.33203125 C1.72025146 16.15421143 1.75690918 16.9763916 1.79467773 17.82348633 C1.93427772 20.17905178 1.93427772 20.17905178 3 23 C5.00016466 24.20882096 5.00016466 24.20882096 7 25 C4.69 25 2.38 25 0 25 C0 16.75 0 8.5 0 0 Z " fill="#332A30" transform="translate(153,218)"/>
<path d="M0 0 C0.66 0 1.32 0 2 0 C1.67 1.65 1.34 3.3 1 5 C1.99 5 2.98 5 4 5 C4.66 4.34 5.32 3.68 6 3 C6.33 3.66 6.66 4.32 7 5 C6.01 6.485 6.01 6.485 5 8 C1.375 8.1875 1.375 8.1875 -2 8 C-1.125 1.125 -1.125 1.125 0 0 Z " fill="#372E35" transform="translate(123,236)"/>
<path d="M0 0 C3.87467873 1.25665256 6.10609704 2.31187319 8 6 C8.1875 9.75 8.1875 9.75 8 13 C7.34 13 6.68 13 6 13 C5.81824219 12.36191406 5.63648438 11.72382813 5.44921875 11.06640625 C5.19785156 10.24011719 4.94648438 9.41382813 4.6875 8.5625 C4.44386719 7.73878906 4.20023438 6.91507813 3.94921875 6.06640625 C3.63597656 5.38449219 3.32273438 4.70257813 3 4 C2.01 3.67 1.02 3.34 0 3 C0 2.01 0 1.02 0 0 Z " fill="#393038" transform="translate(169,216)"/>
<path d="M0 0 C1.9375 0.625 1.9375 0.625 4 2 C4.9375 4.9375 4.9375 4.9375 5 8 C3.75 9.875 3.75 9.875 2 11 C1.01 11 0.02 11 -1 11 C-0.67 10.01 -0.34 9.02 0 8 C0.66 7.67 1.32 7.34 2 7 C1.67 6.401875 1.34 5.80375 1 5.1875 C0 3 0 3 0 0 Z " fill="#602B6E" transform="translate(65,208)"/>
<path d="M0 0 C2.64 0 5.28 0 8 0 C8 0.66 8 1.32 8 2 C5.69 2 3.38 2 1 2 C1 3.32 1 4.64 1 6 C3.31 6 5.62 6 8 6 C7.67 6.66 7.34 7.32 7 8 C5.02 8 3.04 8 1 8 C-0.42944945 5.64561267 -1.08661261 4.51967567 -0.625 1.75 C-0.41875 1.1725 -0.2125 0.595 0 0 Z " fill="#274B51" transform="translate(187,133)"/>
<path d="M0 0 C3 1 3 1 4.203125 2.99609375 C4.54859375 3.80175781 4.8940625 4.60742188 5.25 5.4375 C5.78367187 6.64212891 5.78367187 6.64212891 6.328125 7.87109375 C7 10 7 10 6 12 C5.34 12 4.68 12 4 12 C3.3291288 10.3767313 2.66342971 8.75132422 2 7.125 C1.62875 6.22007812 1.2575 5.31515625 0.875 4.3828125 C0 2 0 2 0 0 Z " fill="#5E2B6E" transform="translate(58,194)"/>
<path d="M0 0 C0 2.31 0 4.62 0 7 C-0.33 5.68 -0.66 4.36 -1 3 C-2.65 3 -4.3 3 -6 3 C-6.66 4.32 -7.32 5.64 -8 7 C-8.33 5.02 -8.66 3.04 -9 1 C-1.125 0 -1.125 0 0 0 Z " fill="#2D555D" transform="translate(195,140)"/>
<path d="M0 0 C1.98 0.99 1.98 0.99 4 2 C4 5.3 4 8.6 4 12 C3.34 12 2.68 12 2 12 C2 9.03 2 6.06 2 3 C1.34 3 0.68 3 0 3 C0 2.01 0 1.02 0 0 Z " fill="#1F484D" transform="translate(143,134)"/>
<path d="M0 0 C0.66 0.99 1.32 1.98 2 3 C-3.28 2.34 -8.56 1.68 -14 1 C-14 0.67 -14 0.34 -14 0 C-8.96204923 -1.13353892 -5.01852377 -1.00370475 0 0 Z " fill="#D26530" transform="translate(182,41)"/>
<path d="M0 0 C0.33 0 0.66 0 1 0 C1 1.98 1 3.96 1 6 C-3.455 6.495 -3.455 6.495 -8 7 C-7.67 6.01 -7.34 5.02 -7 4 C-4.69 4 -2.38 4 0 4 C0 2.68 0 1.36 0 0 Z " fill="#20464B" transform="translate(185,151)"/>
<path d="M0 0 C3.625 0.375 3.625 0.375 7 1 C4 3 4 3 1 3 C0.67 4.32 0.34 5.64 0 7 C-0.66 7 -1.32 7 -2 7 C-2.125 4.625 -2.125 4.625 -2 2 C-1.34 1.34 -0.68 0.68 0 0 Z " fill="#1F4C4F" transform="translate(153,174)"/>
<path d="M0 0 C2.97 0 5.94 0 9 0 C7 2 7 2 4.5 2.375 C1.83529804 2.73647686 1.83529804 2.73647686 0.6875 5.0625 C0.3471875 6.0215625 0.3471875 6.0215625 0 7 C-0.66 6.34 -1.32 5.68 -2 5 C-1.34 3.35 -0.68 1.7 0 0 Z " fill="#352F35" transform="translate(131,216)"/>
<path d="M0 0 C2.31 0 4.62 0 7 0 C7.33 1.32 7.66 2.64 8 4 C5.69 3.67 3.38 3.34 1 3 C0.67 2.01 0.34 1.02 0 0 Z " fill="#1E484B" transform="translate(136,148)"/>
<path d="M0 0 C1.32 0 2.64 0 4 0 C4 0.99 4 1.98 4 3 C2.68 2.67 1.36 2.34 0 2 C0 1.34 0 0.68 0 0 Z M-3 2 C-1.68 2.33 -0.36 2.66 1 3 C1 3.66 1 4.32 1 5 C-0.32 4.67 -1.64 4.34 -3 4 C-3 3.34 -3 2.68 -3 2 Z " fill="#293F44" transform="translate(173,110)"/>
<path d="M0 0 C0.99 0 1.98 0 3 0 C3 2.64 3 5.28 3 8 C2.34 8 1.68 8 1 8 C0.67 5.36 0.34 2.72 0 0 Z " fill="#5B2F6E" transform="translate(50,158)"/>
<path d="M0 0 C-0.33 0.99 -0.66 1.98 -1 3 C-3.875 3.125 -3.875 3.125 -7 3 C-7.66 2.34 -8.32 1.68 -9 1 C-5.94152152 0.45627049 -3.11227195 0 0 0 Z " fill="#362F35" transform="translate(151,241)"/>
<path d="M0 0 C0.66 0.33 1.32 0.66 2 1 C0.515 4.96 0.515 4.96 -1 9 C-1.66 8.01 -2.32 7.02 -3 6 C-2.01 4.02 -1.02 2.04 0 0 Z " fill="#382F37" transform="translate(128,224)"/>
<path d="M0 0 C5.75 -0.125 5.75 -0.125 8 1 C8 1.66 8 2.32 8 3 C5.03 2.67 2.06 2.34 -1 2 C-0.67 1.34 -0.34 0.68 0 0 Z " fill="#373137" transform="translate(161,220)"/>
<path d="M0 0 C1.98 0 3.96 0 6 0 C6 0.99 6 1.98 6 3 C4.02 3 2.04 3 0 3 C0 2.01 0 1.02 0 0 Z " fill="#DE621D" transform="translate(189,152)"/>
<path d="M0 0 C0.99 0.33 1.98 0.66 3 1 C2.34 3.31 1.68 5.62 1 8 C0.34 7.67 -0.32 7.34 -1 7 C-0.67 4.69 -0.34 2.38 0 0 Z " fill="#382F36" transform="translate(96,234)"/>
<path d="M0 0 C0.33 0 0.66 0 1 0 C1 1.98 1 3.96 1 6 C-1.97 5.505 -1.97 5.505 -5 5 C-4.67 4.34 -4.34 3.68 -4 3 C-2.68 3 -1.36 3 0 3 C0 2.01 0 1.02 0 0 Z " fill="#352D34" transform="translate(229,218)"/>
<path d="M0 0 C0.99 0 1.98 0 3 0 C3.33 1.98 3.66 3.96 4 6 C2.68 5.67 1.36 5.34 0 5 C-0.5625 3.0625 -0.5625 3.0625 -1 1 C-0.67 0.67 -0.34 0.34 0 0 Z " fill="#3A5053" transform="translate(172,104)"/>
</svg>
