<?xml version="1.0" encoding="UTF-8"?>
<svg version="1.1" xmlns="http://www.w3.org/2000/svg" width="388" height="388">
<path d="M0 0 C1.81948976 3.63897951 1.18470453 7.93159288 1.1875 11.9375 C1.19974609 12.85724609 1.21199219 13.77699219 1.22460938 14.72460938 C1.22654297 15.60826172 1.22847656 16.49191406 1.23046875 17.40234375 C1.23457764 18.21179443 1.23868652 19.02124512 1.24291992 19.85522461 C1 22 1 22 -1 25 C-6.63736762 26.16635192 -11.34264292 25.9092181 -17 25 C-17 27.64 -17 30.28 -17 33 C-15.98679687 32.97679687 -14.97359375 32.95359375 -13.9296875 32.9296875 C-12.57813242 32.9109159 -11.22656931 32.8927172 -9.875 32.875 C-9.20984375 32.85824219 -8.5446875 32.84148437 -7.859375 32.82421875 C-3.51175384 32.78159501 0.02060273 33.21694662 4 35 C5.81195748 37.71793623 6.52729639 39.393933 7.3671875 42.46484375 C7.61130371 43.34197021 7.85541992 44.21909668 8.10693359 45.12280273 C8.48712646 46.51607788 8.48712646 46.51607788 8.875 47.9375 C10.80642052 54.90021763 12.82142014 61.75041281 15.3359375 68.52734375 C16.11436102 71.42582663 16.11307492 74.01221277 16 77 C13.50353208 78.24823396 11.82816226 78.12583371 9.03419495 78.12698364 C7.98401184 78.12980347 6.93382874 78.13262329 5.8518219 78.13552856 C4.69488327 78.13350433 3.53794464 78.1314801 2.34594727 78.12939453 C0.52394302 78.13202301 0.52394302 78.13202301 -1.33486938 78.13470459 C-4.67164456 78.13835923 -8.00835797 78.13749179 -11.34512973 78.1343255 C-14.83377082 78.13179813 -18.32240922 78.13414055 -21.81105042 78.13571167 C-27.67132034 78.1375325 -33.53157768 78.13512957 -39.3918457 78.13037109 C-46.16965827 78.12493117 -52.94744074 78.12668951 -59.72525257 78.1321975 C-65.54015626 78.13673411 -71.3550509 78.13737641 -77.16995579 78.13475883 C-80.64479221 78.13319876 -84.11961448 78.13299489 -87.59445 78.13629532 C-91.46849616 78.13971766 -95.34250857 78.13497529 -99.21655273 78.12939453 C-100.94892433 78.13243088 -100.94892433 78.13243088 -102.71629333 78.13552856 C-103.76929626 78.13270874 -104.82229919 78.12988892 -105.9072113 78.12698364 C-106.82364127 78.12660662 -107.74007124 78.12622959 -108.68427181 78.12584114 C-111 78 -111 78 -114 77 C-113.61010518 70.50175296 -111.67554347 65.09400759 -109.3984375 59.01953125 C-107.49934372 53.77119885 -106.13477051 48.3661201 -104.78808594 42.95361328 C-103.78941746 39.12031474 -103.07829017 36.53788752 -100 34 C-96.51893486 32.83964495 -93.8152767 32.87997296 -90.1418457 32.88647461 C-89.44890411 32.88632858 -88.75596252 32.88618256 -88.04202271 32.8860321 C-85.75324363 32.88672837 -83.4645461 32.8945074 -81.17578125 32.90234375 C-79.58823186 32.90420894 -78.00068189 32.90563237 -76.41313171 32.90663147 C-72.2357728 32.91044866 -68.05844869 32.92027214 -63.88110352 32.93133545 C-59.61800609 32.94156672 -55.35490304 32.94613277 -51.09179688 32.95117188 C-42.72784862 32.96189511 -34.36392864 32.97896197 -26 33 C-26 30.36 -26 27.72 -26 25 C-27.03640625 25.09539062 -28.0728125 25.19078125 -29.140625 25.2890625 C-30.51036729 25.40164406 -31.88016193 25.51358988 -33.25 25.625 C-34.27287109 25.72167969 -34.27287109 25.72167969 -35.31640625 25.8203125 C-39.24990038 26.12582661 -41.59146932 25.92799129 -45 24 C-45.02887236 20.18751574 -45.04675492 16.3750593 -45.0625 12.5625 C-45.07087891 11.47388672 -45.07925781 10.38527344 -45.08789062 9.26367188 C-45.09111328 8.22919922 -45.09433594 7.19472656 -45.09765625 6.12890625 C-45.10289307 5.17056885 -45.10812988 4.21223145 -45.11352539 3.22485352 C-45 1 -45 1 -44 0 C-42.33623782 -0.15855229 -40.66612503 -0.25129921 -38.99609375 -0.31640625 C-37.95211426 -0.35846191 -36.90813477 -0.40051758 -35.83251953 -0.44384766 C-34.71216309 -0.48300293 -33.59180664 -0.5221582 -32.4375 -0.5625 C-31.30683105 -0.6042334 -30.17616211 -0.6459668 -29.01123047 -0.68896484 C-4.61962551 -1.53987517 -4.61962551 -1.53987517 0 0 Z M-39 6 C-39 10.29 -39 14.58 -39 19 C-35.7 19 -32.4 19 -29 19 C-29.33 18.34 -29.66 17.68 -30 17 C-30.07033769 15.12620395 -30.0843022 13.24998898 -30.0625 11.375 C-30.05347656 10.37210938 -30.04445313 9.36921875 -30.03515625 8.3359375 C-30.02355469 7.56507813 -30.01195312 6.79421875 -30 6 C-32.97 6 -35.94 6 -39 6 Z M-25 6 C-24.67 7.98 -24.34 9.96 -24 12 C-23.79166667 16.58333333 -23.79166667 16.58333333 -25 19 C-18.73 19 -12.46 19 -6 19 C-6 14.71 -6 10.42 -6 6 C-12.27 6 -18.54 6 -25 6 Z M-9 44 C-9 45.65 -9 47.3 -9 49 C-6.36 49 -3.72 49 -1 49 C-1 47.35 -1 45.7 -1 44 C-3.64 44 -6.28 44 -9 44 Z M-46.1875 44.375 C-47.115625 44.58125 -48.04375 44.7875 -49 45 C-48.67 46.32 -48.34 47.64 -48 49 C-45.69 49 -43.38 49 -41 49 C-40.67 48.01 -40.34 47.02 -40 46 C-42.84826598 43.63307034 -42.84826598 43.63307034 -46.1875 44.375 Z M-35 45 C-35 46.32 -35 47.64 -35 49 C-32.69 49 -30.38 49 -28 49 C-28 47.35 -28 45.7 -28 44 C-30.33859436 44 -32.70030423 44.60856242 -35 45 Z M-22 45 C-22 46.32 -22 47.64 -22 49 C-19.36 49 -16.72 49 -14 49 C-14 47.68 -14 46.36 -14 45 C-17.05263664 44.01879536 -18.94736336 44.01879536 -22 45 Z M-95 46 C-95 46.33 -95 46.66 -95 47 C-79.16 47.495 -79.16 47.495 -63 48 C-63 47.34 -63 46.68 -63 46 C-73.56 46 -84.12 46 -95 46 Z M-96 47 C-96 52.94 -96 58.88 -96 65 C-92.035885 66.9820575 -90.50936584 67.25607756 -86.24609375 67.265625 C-85.14458984 67.26820313 -84.04308594 67.27078125 -82.90820312 67.2734375 C-81.76287109 67.26570313 -80.61753906 67.25796875 -79.4375 67.25 C-78.28830078 67.25773437 -77.13910156 67.26546875 -75.95507812 67.2734375 C-74.30475586 67.26957031 -74.30475586 67.26957031 -72.62109375 67.265625 C-71.6148999 67.26336914 -70.60870605 67.26111328 -69.57202148 67.25878906 C-66.76056981 67.17882454 -66.76056981 67.17882454 -64 65 C-67.3 64.67 -70.6 64.34 -74 64 C-74.33 62.35 -74.66 60.7 -75 59 C-73.37509046 58.97301811 -71.75005367 58.95361243 -70.125 58.9375 C-68.76761719 58.92009766 -68.76761719 58.92009766 -67.3828125 58.90234375 C-65 59 -65 59 -63 60 C-63 58.02 -63 56.04 -63 54 C-73.23 54 -83.46 54 -94 54 C-94.33 51.69 -94.66 49.38 -95 47 C-95.33 47 -95.66 47 -96 47 Z M-49 55 C-48.67 56.32 -48.34 57.64 -48 59 C-45.36 59 -42.72 59 -40 59 C-40.33 57.35 -40.66 55.7 -41 54 C-45.14093698 53.79029441 -45.14093698 53.79029441 -49 55 Z M-34 54 C-34.33 55.65 -34.66 57.3 -35 59 C-32.69 59 -30.38 59 -28 59 C-28.33 57.35 -28.66 55.7 -29 54 C-30.65 54 -32.3 54 -34 54 Z M-22 55 C-21.67 56.32 -21.34 57.64 -21 59 C-18.69 59 -16.38 59 -14 59 C-14 57.35 -14 55.7 -14 54 C-17.04386724 53.91773332 -19.07175348 54.02391783 -22 55 Z M-8 54 C-8 55.65 -8 57.3 -8 59 C-5.69 59 -3.38 59 -1 59 C-1 57.35 -1 55.7 -1 54 C-3.31 54 -5.62 54 -8 54 Z M-48 65 C-48 66.32 -48 67.64 -48 69 C-45.36 69 -42.72 69 -40 69 C-40 67.68 -40 66.36 -40 65 C-42.64 65 -45.28 65 -48 65 Z M-34 65 C-34.33 66.32 -34.66 67.64 -35 69 C-31.62182575 69.84454356 -29.32534757 70.10844919 -26 69 C-26.33 67.68 -26.66 66.36 -27 65 C-29.31 65 -31.62 65 -34 65 Z M-21 65 C-21 66.32 -21 67.64 -21 69 C-18.69 69 -16.38 69 -14 69 C-14 67.68 -14 66.36 -14 65 C-16.31 65 -18.62 65 -21 65 Z " fill="#205458" transform="translate(244,125)"/>
<path d="M0 0 C18.31490886 -0.59080351 34.78436896 2.94153751 52 9 C52.94101563 9.31710938 53.88203125 9.63421875 54.8515625 9.9609375 C67.03898354 14.4038435 79.84477923 21.97968359 90 30 C90 30.66 90 31.32 90 32 C90.66 32 91.32 32 92 32 C92 32.66 92 33.32 92 34 C92.59603027 34.10924805 93.19206055 34.21849609 93.80615234 34.33105469 C96.25943801 35.07910752 97.29639163 35.91012382 99.1015625 37.703125 C99.95258545 38.54435913 99.95258545 38.54435913 100.82080078 39.40258789 C101.41618652 40.01223389 102.01157227 40.62187988 102.625 41.25 C103.24745605 41.88478271 103.86991211 42.51956543 104.51123047 43.17358398 C132.36997854 72.03369648 146.54084263 110.95319172 146.56445312 150.79589844 C145.89682262 178.68168472 135.41002439 206.88496342 120 230 C117.21788056 229.62403791 115.4120716 229.32681541 113.1875 227.5625 C112 226 112 226 112 224 C111.195625 223.773125 110.39125 223.54625 109.5625 223.3125 C107 222 107 222 106.1875 219.64453125 C105.96089729 216.44848889 106.44535518 215.806969 108.4375 213.375 C120.17770242 196.84065459 126.90431751 173.14116365 127 153 C127.02578125 151.77023438 127.0515625 150.54046875 127.078125 149.2734375 C127.23463369 136.46580973 126.41130008 124.37855724 123 112 C122.68417969 110.85015625 122.36835938 109.7003125 122.04296875 108.515625 C117.82178429 94.61405638 110.99828225 81.27654977 102.1796875 69.71484375 C101 68 101 68 101 66 C100.34 66 99.68 66 99 66 C97.61490475 64.37609523 96.29241051 62.69859667 95 61 C91.07401815 56.0526245 86.95488202 52.28051484 81.87109375 48.55859375 C80.94490234 47.78708984 80.94490234 47.78708984 80 47 C80 46.34 80 45.68 80 45 C79.26394531 44.73445313 78.52789062 44.46890625 77.76953125 44.1953125 C75.0297295 43.01283107 73.05051515 41.67978955 70.6875 39.875 C51.68643466 26.37498164 28.11344668 19.21863564 4.984375 18.2109375 C2 18 2 18 0 17 C0 11.39 0 5.78 0 0 Z " fill="#E16524" transform="translate(196,49)"/>
<path d="M0 0 C1.13707397 -0.00983414 2.27414795 -0.01966827 3.44567871 -0.02980042 C5.3105619 -0.01529846 5.3105619 -0.01529846 7.21311951 -0.00050354 C8.52561676 -0.00590652 9.83811401 -0.01130951 11.19038391 -0.01687622 C14.78750938 -0.03083658 18.38415686 -0.01965806 21.98125577 -0.00316501 C25.74482172 0.01068434 29.5083599 0.00422566 33.27194214 0.0007019 C39.59111741 -0.00199999 45.91010271 0.01147459 52.22923279 0.03465271 C59.53771876 0.06127395 66.84588732 0.06300589 74.15440518 0.05126435 C81.1831777 0.04049078 88.21183528 0.04666953 95.24059868 0.06081963 C98.2329829 0.06658197 101.22528307 0.06649486 104.21766853 0.06175423 C108.39341184 0.05610229 112.56867972 0.07528819 116.74436951 0.09715271 C117.9896492 0.09265106 119.23492889 0.08814941 120.51794434 0.08351135 C121.65219849 0.09341599 122.78645264 0.10332062 123.95507812 0.11352539 C124.94265389 0.11595529 125.93022966 0.11838518 126.94773197 0.12088871 C129.82470529 0.56453073 130.67321791 1.21951017 132.41404724 3.50120544 C134.5167256 7.70656216 133.59897468 13.25589303 133.60154724 17.87620544 C133.61379333 19.02604919 133.62603943 20.17589294 133.63865662 21.36058044 C133.64059021 22.46659607 133.6425238 23.57261169 133.64451599 24.71214294 C133.64862488 25.72582947 133.65273376 26.73951599 133.65696716 27.78392029 C133.40890767 30.55869636 132.92879975 32.1816262 131.41404724 34.50120544 C128.82108489 35.79768662 126.93540557 35.63592778 124.03063965 35.64837646 C122.31653145 35.65910942 122.31653145 35.65910942 120.5677948 35.6700592 C119.30799805 35.67274811 118.04820129 35.67543701 116.75022888 35.6782074 C115.41491519 35.6844713 114.07960324 35.69111804 112.74429321 35.69812012 C109.11210072 35.71553313 105.47992139 35.72608205 101.8476975 35.73432565 C99.57991446 35.73947373 97.31213553 35.74554946 95.04435539 35.75183678 C87.95315577 35.77088719 80.86196658 35.78512029 73.77074629 35.79344875 C65.57689127 35.80323054 57.38330571 35.82957495 49.18954569 35.86994964 C42.86084606 35.90006781 36.53222389 35.91491339 30.20345396 35.91822976 C26.42109857 35.92058462 22.63903111 35.92960131 18.8567524 35.95469093 C15.3001539 35.97790285 11.74403433 35.98223318 8.18737984 35.97192955 C6.25682108 35.971195 4.32628702 35.99033333 2.39582825 36.00999451 C1.25026962 36.00305069 0.104711 35.99610687 -1.07556152 35.98895264 C-2.57188315 35.99253517 -2.57188315 35.99253517 -4.09843349 35.99619007 C-6.58595276 35.50120544 -6.58595276 35.50120544 -8.40509892 33.65004253 C-10.9584729 29.00358714 -10.05308777 23.1684743 -10.02345276 18.00120544 C-10.04343323 16.76499451 -10.0634137 15.52878357 -10.08399963 14.25511169 C-10.0833551 13.06788513 -10.08271057 11.88065857 -10.08204651 10.65745544 C-10.08389954 9.57270935 -10.08575256 8.48796326 -10.08766174 7.37034607 C-9.07009538 1.5511539 -5.53380072 0.00117226 0 0 Z M57.41404724 16.50120544 C56.99738057 19.00120544 56.99738057 19.00120544 57.41404724 21.50120544 C58.07404724 22.16120544 58.73404724 22.82120544 59.41404724 23.50120544 C61.96118128 23.49197842 61.96118128 23.49197842 64.41404724 22.50120544 C65.77424875 20.53362271 65.77424875 20.53362271 66.41404724 18.50120544 C65.11937047 16.44130067 65.11937047 16.44130067 63.41404724 14.50120544 C60.22914718 14.22385535 60.22914718 14.22385535 57.41404724 16.50120544 Z " fill="#205659" transform="translate(133.58595275878906,205.49879455566406)"/>
<path d="M0 0 C0 5.61 0 11.22 0 17 C-2.15982422 17.23783203 -2.15982422 17.23783203 -4.36328125 17.48046875 C-15.86508101 18.82168889 -26.84133539 20.69964263 -37.96875 23.9140625 C-41.63339364 24.95985229 -45.21729771 25.55204841 -49 26 C-49 26.66 -49 27.32 -49 28 C-50.02996094 28.42667969 -51.05992187 28.85335937 -52.12109375 29.29296875 C-63.74922033 34.32052881 -73.29253971 40.91086923 -83 49 C-83.63309082 49.52561523 -84.26618164 50.05123047 -84.91845703 50.59277344 C-88.05135165 53.231262 -90.97261822 55.86417918 -93.625 59 C-94.15351562 59.61875 -94.68203125 60.2375 -95.2265625 60.875 C-95.81179687 61.57625 -96.39703125 62.2775 -97 63 C-98.20462891 64.40185547 -98.20462891 64.40185547 -99.43359375 65.83203125 C-102.02675706 68.95028079 -104.27063783 72.26303248 -106.4375 75.6875 C-106.82583008 76.30052979 -107.21416016 76.91355957 -107.61425781 77.54516602 C-120.83488998 98.59466881 -125.66812759 120.51533971 -128 145 C-133.61 145 -139.22 145 -145 145 C-146.28829523 115.88452778 -136.47001781 84.53028095 -119 61 C-118.34 61 -117.68 61 -117 61 C-116.92652344 60.45859375 -116.85304688 59.9171875 -116.77734375 59.359375 C-115.69095941 56.06200747 -113.7672898 53.91691374 -111.5625 51.25 C-110.75941406 50.26515625 -109.95632812 49.2803125 -109.12890625 48.265625 C-108.07509766 47.14414063 -108.07509766 47.14414063 -107 46 C-106.34 46 -105.68 46 -105 46 C-104.34 44.68 -103.68 43.36 -103 42 C-102.34 42 -101.68 42 -101 42 C-100.7525 41.401875 -100.505 40.80375 -100.25 40.1875 C-98.81927475 37.68373081 -97.4308418 36.51927612 -95 35 C-94.34 35 -93.68 35 -93 35 C-93 34.34 -93 33.68 -93 33 C-92.34 33 -91.68 33 -91 33 C-91 32.34 -91 31.68 -91 31 C-88.93011715 29.39112245 -86.8751541 27.93501325 -84.6875 26.5 C-84.01960449 26.06075195 -83.35170898 25.62150391 -82.66357422 25.16894531 C-57.21729369 8.7651719 -30.39906269 -0.35763603 0 0 Z " fill="#20565B" transform="translate(194,49)"/>
<path d="M0 0 C5.61 0 11.22 0 17 0 C17.83822706 25.98503898 11.28187491 49.20889193 -1 72 C-1.51175781 72.95390625 -2.02351563 73.9078125 -2.55078125 74.890625 C-4.26416969 78.02425577 -6.01754486 81.02631729 -8 84 C-10.78211944 83.62403791 -12.5879284 83.32681541 -14.8125 81.5625 C-16 80 -16 80 -16 78 C-16.804375 77.773125 -17.60875 77.54625 -18.4375 77.3125 C-21 76 -21 76 -21.8125 73.64453125 C-22.03910271 70.44848889 -21.55464482 69.806969 -19.5625 67.375 C-5.98521584 48.25339563 -1.35750696 22.89037595 0 0 Z " fill="#622D7C" transform="translate(324,195)"/>
<path d="M0 0 C0.70253906 0.00386719 1.40507813 0.00773438 2.12890625 0.01171875 C2.83144531 0.00785156 3.53398438 0.00398437 4.2578125 0 C9.50229247 0.01010497 9.50229247 0.01010497 10.62890625 1.13671875 C10.86674912 2.54389323 11.04902084 3.96054735 11.20703125 5.37890625 C13.85195633 27.64052666 18.59242701 49.40937563 31.6953125 68.09375 C32.97405935 70.89201194 32.66266234 72.26668541 31.62890625 75.13671875 C29.921875 77.12109375 29.921875 77.12109375 27.81640625 78.88671875 C26.78580078 79.77617187 26.78580078 79.77617187 25.734375 80.68359375 C23.5822653 82.16890879 22.24307792 82.98824653 19.62890625 83.13671875 C4.99611805 73.35585506 -1.6765185 41.69736899 -5.12109375 25.640625 C-6.55120657 17.52672103 -6.84372815 9.35835906 -6.37109375 1.13671875 C-4.61549433 -0.61888067 -2.33526933 0.00449956 0 0 Z " fill="#652C7D" transform="translate(55.37109375,195.86328125)"/>
<path d="M0 0 C3.3 0 6.6 0 10 0 C12.21682402 5.95098874 14.36307418 11.86152818 16 18 C16.38091797 16.93072266 16.38091797 16.93072266 16.76953125 15.83984375 C18.69493254 10.48189183 20.68760351 5.2028921 23 0 C25.97 0 28.94 0 32 0 C34.52958084 5.5409866 36.33846988 11.14340094 38 17 C40.02853866 13.95719201 40.95462925 11.4043351 42.0625 7.9375 C43.91525424 2.16949153 43.91525424 2.16949153 45 0 C47.97 0 50.94 0 54 0 C53.41075591 7.30305549 51.36545627 13.92075222 49.125 20.875 C48.77308594 22.01453125 48.42117187 23.1540625 48.05859375 24.328125 C47.71183594 25.41351563 47.36507812 26.49890625 47.0078125 27.6171875 C46.69473145 28.60315918 46.38165039 29.58913086 46.05908203 30.60498047 C45 33 45 33 42 35 C39.95703125 35.1953125 39.95703125 35.1953125 37.8125 35.125 C36.554375 35.08375 35.29625 35.0425 34 35 C31.50772744 30.49017346 30.02037947 26.00878422 28.6484375 21.07421875 C28.18578739 19.03115006 28.18578739 19.03115006 27 18 C26.66226563 19.14339844 26.32453125 20.28679687 25.9765625 21.46484375 C25.52644693 22.95585157 25.07590397 24.44673041 24.625 25.9375 C24.29242188 27.06961914 24.29242188 27.06961914 23.953125 28.22460938 C23.36037548 30.16847912 22.68548828 32.08686452 22 34 C19.75487738 35.12256131 18.48543351 35.13413762 16 35.125 C14.948125 35.12886719 14.948125 35.12886719 13.875 35.1328125 C12 35 12 35 10 34 C9.11356984 31.74593474 8.34165101 29.53297846 7.6171875 27.2265625 C7.28849167 26.20724136 7.28849167 26.20724136 6.95315552 25.16732788 C6.49070368 23.72761856 6.03197257 22.28670965 5.57666016 20.84472656 C4.87919151 18.63825999 4.16911359 16.43616316 3.45703125 14.234375 C3.00966066 12.83617917 2.56302178 11.43774896 2.1171875 10.0390625 C1.90472382 9.37959625 1.69226013 8.72013 1.47335815 8.04067993 C0.59202824 5.23324171 0 2.96387395 0 0 Z " fill="#3E393C" transform="translate(99,270)"/>
<path d="M0 0 C18.31490886 -0.59080351 34.78436896 2.94153751 52 9 C52.94101563 9.31710938 53.88203125 9.63421875 54.8515625 9.9609375 C67.03898354 14.4038435 79.84477923 21.97968359 90 30 C90 30.66 90 31.32 90 32 C90.66 32 91.32 32 92 32 C92 32.66 92 33.32 92 34 C92.59603027 34.10924805 93.19206055 34.21849609 93.80615234 34.33105469 C96.25943801 35.07910752 97.29639163 35.91012382 99.1015625 37.703125 C99.95258545 38.54435913 99.95258545 38.54435913 100.82080078 39.40258789 C101.41618652 40.01223389 102.01157227 40.62187988 102.625 41.25 C103.24745605 41.88478271 103.86991211 42.51956543 104.51123047 43.17358398 C119.53191911 58.73418143 130.97420353 77.5274805 138 98 C138.40992188 99.175625 138.81984375 100.35125 139.2421875 101.5625 C141.09558077 107.18658991 142.55189034 112.06717888 142 118 C141.34 117.67 140.68 117.34 140 117 C139.66666667 114.66666667 139.33333333 112.33333333 139 110 C138.34 109.67 137.68 109.34 137 109 C136.2890625 106.91796875 136.2890625 106.91796875 135.625 104.1875 C134.28282824 98.9352258 132.64709122 93.84551041 130.8671875 88.7265625 C130.05091185 86.16007419 129.47201097 83.64904116 129 81 C128.01 80.67 127.02 80.34 126 80 C125.05078125 77.93359375 125.05078125 77.93359375 124.3125 75.4375 C124.06113281 74.61121094 123.80976563 73.78492187 123.55078125 72.93359375 C123.36902344 72.29550781 123.18726563 71.65742187 123 71 C122.34 71 121.68 71 121 71 C118 65.25 118 65.25 118 63 C116.515 62.505 116.515 62.505 115 62 C111 56.62857143 111 56.62857143 111 54 C110.01 54 109.02 54 108 54 C105 48.25 105 48.25 105 46 C103.68 46 102.36 46 101 46 C101 45.01 101 44.02 101 43 C99.68 42.34 98.36 41.68 97 41 C97 40.34 97 39.68 97 39 C96.39542969 38.89171875 95.79085937 38.7834375 95.16796875 38.671875 C92.2264871 37.76028069 90.81423092 35.77532718 88.734375 33.59765625 C86.31269023 31.36687006 83.66418061 30.00159768 80.7578125 28.484375 C77.24029982 26.59109622 73.84889598 24.5141663 70.4375 22.4375 C62.85388064 17.85837615 55.36688406 13.98817288 47 11 C47 10.34 47 9.68 47 9 C45.6696875 9.061875 45.6696875 9.061875 44.3125 9.125 C41 9 41 9 38.81640625 8.08984375 C35.16633835 6.67740416 31.47020222 6.05818225 27.625 5.4375 C26.8407666 5.30819092 26.0565332 5.17888184 25.24853516 5.0456543 C17.84994436 3.87922325 10.48061238 3.3199672 3 3 C3 6.63 3 10.26 3 14 C4.17755859 14.09087891 4.17755859 14.09087891 5.37890625 14.18359375 C10.95361148 14.62820214 16.47640616 15.12124643 22 16 C22 16.66 22 17.32 22 18 C23.58309905 18.29293565 25.16649915 18.58424419 26.75 18.875 C27.7503125 19.05933594 28.750625 19.24367188 29.78125 19.43359375 C31.90171063 19.80673306 34.02695208 20.15378862 36.15625 20.47265625 C41.93191254 21.34046413 46.7522825 22.43196803 52 25 C52.99 25.33 53.98 25.66 55 26 C55 26.66 55 27.32 55 28 C55.598125 28.144375 56.19625 28.28875 56.8125 28.4375 C58.56150404 28.8872439 60.28677023 29.42892341 62 30 C62 30.66 62 31.32 62 32 C62.70125 32.0825 63.4025 32.165 64.125 32.25 C67.6903452 33.18009005 70.09015572 34.76686369 73 37 C73 37.66 73 38.32 73 39 C74.65 39.33 76.3 39.66 78 40 C78 40.66 78 41.32 78 42 C78.70125 42.226875 79.4025 42.45375 80.125 42.6875 C83.74128535 44.33841288 86.08769976 46.2908835 89 49 C89 49.66 89 50.32 89 51 C89.639375 51.268125 90.27875 51.53625 90.9375 51.8125 C93 53 93 53 94 56 C94.66 56 95.32 56 96 56 C96.495 57.98 96.495 57.98 97 60 C98.98 60.495 98.98 60.495 101 61 C101 62.32 101 63.64 101 65 C101.66 65 102.32 65 103 65 C103 65.66 103 66.32 103 67 C103.66 67 104.32 67 105 67 C107.19409111 69.38488164 108.21422443 71.53090403 109.4375 74.5625 C110.66895764 78.00172418 110.66895764 78.00172418 113 79.5 C115.42373375 81.31780031 116.14993114 83.21671322 117.22265625 86 C118.03633923 88.09349591 118.97821642 90.09445422 119.9375 92.125 C124.0945093 101.53799806 126.39141076 110.99886238 127.60546875 121.19921875 C127.84116504 123.9473968 127.84116504 123.9473968 129 126 C129.15004973 127.3734635 129.24838006 128.7528526 129.31640625 130.1328125 C129.37924805 131.34130859 129.37924805 131.34130859 129.44335938 132.57421875 C129.48267578 133.41597656 129.52199219 134.25773438 129.5625 135.125 C129.60568359 135.97449219 129.64886719 136.82398438 129.69335938 137.69921875 C129.79954236 139.79928223 129.90028497 141.89961948 130 144 C134.95 144.33 139.9 144.66 145 145 C145 145.33 145 145.66 145 146 C139.39 146 133.78 146 128 146 C127.83564453 143.95232422 127.83564453 143.95232422 127.66796875 141.86328125 C126.80828111 131.70130864 125.84504163 121.83286317 123 112 C122.52820313 110.29070312 122.52820313 110.29070312 122.046875 108.546875 C117.84295402 94.63248866 111.00193262 81.28133562 102.1796875 69.71484375 C101 68 101 68 101 66 C100.34 66 99.68 66 99 66 C97.61490475 64.37609523 96.29241051 62.69859667 95 61 C91.07401815 56.0526245 86.95488202 52.28051484 81.87109375 48.55859375 C80.94490234 47.78708984 80.94490234 47.78708984 80 47 C80 46.34 80 45.68 80 45 C79.26394531 44.73445313 78.52789062 44.46890625 77.76953125 44.1953125 C75.0297295 43.01283107 73.05051515 41.67978955 70.6875 39.875 C51.68643466 26.37498164 28.11344668 19.21863564 4.984375 18.2109375 C2 18 2 18 0 17 C0 11.39 0 5.78 0 0 Z " fill="#D36B3F" transform="translate(196,49)"/>
<path d="M0 0 C6.46364041 0.64636404 11.63859715 3.41441164 16.375 7.8125 C18.56852946 13.49573542 18.53031219 19.36448717 17.75 25.375 C16.34765625 28.30859375 16.34765625 28.30859375 14.75 30.375 C14.09 30.375 13.43 30.375 12.75 30.375 C12.42 31.365 12.09 32.355 11.75 33.375 C6.71244083 36.73337278 0.71190176 37.01047402 -5.25 36.375 C-11.75192416 34.28116002 -15.49449324 31.00826014 -19.25 25.375 C-19.94979597 18.56789373 -20.20996334 12.14994653 -16.25 6.375 C-15.59 6.375 -14.93 6.375 -14.25 6.375 C-14.25 5.715 -14.25 5.055 -14.25 4.375 C-9.67790448 1.01316506 -5.49360921 0.63387799 0 0 Z M-8.25 12.375 C-9.78214888 15.43929776 -9.47938548 17.9915642 -9.25 21.375 C-7.50271222 25.10303465 -7.50271222 25.10303465 -4.25 27.375 C1.60415468 27.76044538 1.60415468 27.76044538 6.75 25.375 C8.80954722 22.38865653 9.10792138 19.95421383 8.75 16.375 C7.54373167 12.95723973 5.9198208 11.13601156 2.75 9.375 C-1.88090542 8.78382059 -4.51784448 9.60254162 -8.25 12.375 Z " fill="#3E383C" transform="translate(242.25,268.625)"/>
<path d="M0 0 C1.37478516 0.01740234 1.37478516 0.01740234 2.77734375 0.03515625 C3.69644531 0.04417969 4.61554688 0.05320312 5.5625 0.0625 C6.27277344 0.07410156 6.98304688 0.08570313 7.71484375 0.09765625 C11.55083148 8.10775828 15.25849394 16.16565566 18.71484375 24.34765625 C19.18676147 25.43711548 19.18676147 25.43711548 19.66821289 26.54858398 C21.83153819 31.74757292 21.83153819 31.74757292 20.71484375 35.09765625 C15.3839672 35.53461334 15.3839672 35.53461334 12.71484375 35.09765625 C10.68655003 32.68905746 9.71484375 31.26721316 9.71484375 28.09765625 C5.09484375 28.09765625 0.47484375 28.09765625 -4.28515625 28.09765625 C-4.94515625 30.07765625 -5.60515625 32.05765625 -6.28515625 34.09765625 C-7.28515625 35.09765625 -7.28515625 35.09765625 -9.1328125 35.1953125 C-11.18359375 35.16276042 -13.234375 35.13020833 -15.28515625 35.09765625 C-16.37828507 31.85702043 -16.25531611 30.27069625 -14.80859375 27.19140625 C-14.46965088 26.45269287 -14.13070801 25.71397949 -13.78149414 24.95288086 C-13.41145264 24.17565674 -13.04141113 23.39843262 -12.66015625 22.59765625 C-11.91547922 20.98492277 -11.1719925 19.37163915 -10.4296875 17.7578125 C-9.87982178 16.57276123 -9.87982178 16.57276123 -9.31884766 15.36376953 C-7.48987868 11.35420646 -5.84830666 7.27235676 -4.1953125 3.1875 C-2.86034752 0.12223707 -2.86034752 0.12223707 0 0 Z M1.71484375 12.09765625 C0.45819397 15.00365886 -0.28515625 16.89370209 -0.28515625 20.09765625 C1.69484375 20.09765625 3.67484375 20.09765625 5.71484375 20.09765625 C4.44509403 15.68243516 4.44509403 15.68243516 1.71484375 12.09765625 Z " fill="#3C383B" transform="translate(167.28515625,269.90234375)"/>
<path d="M0 0 C-0.33 2.64 -0.66 5.28 -1 8 C-6.28 7.34 -11.56 6.68 -17 6 C-16.67 7.32 -16.34 8.64 -16 10 C-15.02160156 10.14695312 -15.02160156 10.14695312 -14.0234375 10.296875 C-8.37077988 11.26399636 -4.44600385 12.33204682 0 16 C2.33909307 19.5086396 2.41291057 20.87089433 2 25 C0.33237678 28.49406769 -0.74006022 29.82670681 -4 32 C-10.45513254 33.67554189 -17.30951925 33.92775198 -23.625 31.75 C-26 30 -26 30 -27 28.0625 C-27 25.55345499 -26.29024129 24.1251033 -25 22 C-24.195625 22.144375 -23.39125 22.28875 -22.5625 22.4375 C-15.3158935 23.59741317 -15.3158935 23.59741317 -8 24 C-10.55020256 20.87622247 -13.11676065 20.19235117 -16.9375 19.125 C-20.59954937 17.95155008 -22.78366246 17.18192021 -25.75 14.6875 C-27.36616096 11.21275395 -27.41381766 8.79332853 -27 5 C-25.38203439 0.80907444 -23.24308766 -0.42393548 -19.27734375 -2.23828125 C-12.34048242 -4.55850073 -6.48421079 -2.8294738 0 0 Z " fill="#3C383B" transform="translate(289,272)"/>
<path d="M0 0 C3.54138618 -0.11681812 7.0822724 -0.187455 10.625 -0.25 C11.62402344 -0.28351563 12.62304688 -0.31703125 13.65234375 -0.3515625 C19.7832342 -0.43276635 23.37324029 -0.16258641 28 4 C30.97412962 8.46119443 30.74600921 12.77047545 30 18 C28.15299945 21.67268956 25.95305566 23.68231478 22 25 C19.77181559 25.06937062 17.54165476 25.08457084 15.3125 25.0625 C13.54326172 25.04896484 13.54326172 25.04896484 11.73828125 25.03515625 C10.83464844 25.02355469 9.93101562 25.01195312 9 25 C9.33 27.97 9.66 30.94 10 34 C3.06640625 34.87890625 3.06640625 34.87890625 1 35 C0 34 0 34 -0.11352539 30.76538086 C-0.11336631 29.33185874 -0.10767407 27.89833088 -0.09765625 26.46484375 C-0.0962413 25.71159317 -0.09482635 24.95834259 -0.09336853 24.18226624 C-0.08775376 21.7673044 -0.07519883 19.35243399 -0.0625 16.9375 C-0.0574869 15.30403779 -0.05292366 13.67057414 -0.04882812 12.03710938 C-0.03777954 8.02470415 -0.02050506 4.01236759 0 0 Z M9 8 C9 10.97 9 13.94 9 17 C10.423125 17.061875 11.84625 17.12375 13.3125 17.1875 C14.11300781 17.22230469 14.91351563 17.25710938 15.73828125 17.29296875 C18.07407209 17.18250698 18.07407209 17.18250698 19.8046875 15.6171875 C21.23550886 14.0562125 21.23550886 14.0562125 20.8125 11.9375 C20.06529664 9.81287474 20.06529664 9.81287474 18 8 C14.98173347 7.72759327 12.03629378 7.91324875 9 8 Z " fill="#3E3A3D" transform="translate(191,270)"/>
<path d="M0 0 C0.99 0.495 0.99 0.495 2 1 C2.02688151 2.64574566 2.04634123 4.29161413 2.0625 5.9375 C2.07410156 6.85402344 2.08570313 7.77054688 2.09765625 8.71484375 C2 11 2 11 1 12 C-1.26920225 12.1241622 -3.5422645 12.17803748 -5.81469727 12.20532227 C-6.88293228 12.22017166 -6.88293228 12.22017166 -7.9727478 12.23532104 C-10.33726628 12.26702212 -12.70180489 12.29172724 -15.06640625 12.31640625 C-16.70166052 12.33696836 -18.33690938 12.35796463 -19.97215271 12.37937927 C-24.28428786 12.43467672 -28.59647158 12.48405201 -32.90869141 12.53222656 C-37.30570824 12.58238572 -41.7026542 12.63810087 -46.09960938 12.69335938 C-54.73301307 12.80103473 -63.3664759 12.90245871 -72 13 C-74.31846989 17.44263997 -76.42114497 21.73337743 -77.81640625 26.56640625 C-78.10580078 27.54673828 -78.39519531 28.52707031 -78.69335938 29.53710938 C-78.98017578 30.53548828 -79.26699219 31.53386719 -79.5625 32.5625 C-80.14326842 34.56492769 -80.72781896 36.56626286 -81.31640625 38.56640625 C-81.56849854 39.44240479 -81.82059082 40.31840332 -82.08032227 41.22094727 C-83.18986913 44.57374047 -84.5954343 47.76121 -86 51 C-84.31537155 50.99333817 -84.31537155 50.99333817 -82.59671021 50.98654175 C-72.03115347 50.94606123 -61.46561239 50.9160472 -50.8999958 50.89637566 C-45.4676402 50.88592248 -40.03534702 50.87173539 -34.60302734 50.84912109 C-29.36405699 50.8274473 -24.12514681 50.81544294 -18.8861351 50.81024551 C-16.88377815 50.80653991 -14.88142462 50.79930417 -12.87909317 50.78853989 C-10.08224527 50.77409753 -7.2856485 50.772019 -4.48876953 50.77294922 C-3.65439362 50.76575867 -2.8200177 50.75856812 -1.96035767 50.75115967 C3.77189568 50.77189568 3.77189568 50.77189568 6 53 C-25.02 53 -56.04 53 -88 53 C-87.27646522 47.2117218 -86.75367789 43.76100978 -84.75 38.625 C-82.32705785 32.1614867 -80.45453348 25.65129055 -78.78808594 18.95361328 C-77.78941746 15.12031474 -77.07829017 12.53788752 -74 10 C-70.51893486 8.83964495 -67.8152767 8.87997296 -64.1418457 8.88647461 C-63.44890411 8.88632858 -62.75596252 8.88618256 -62.04202271 8.8860321 C-59.75324363 8.88672837 -57.4645461 8.8945074 -55.17578125 8.90234375 C-53.58823186 8.90420894 -52.00068189 8.90563237 -50.41313171 8.90663147 C-46.2357728 8.91044866 -42.05844869 8.92027214 -37.88110352 8.93133545 C-33.61800609 8.94156672 -29.35490304 8.94613277 -25.09179688 8.95117188 C-16.72784862 8.96189511 -8.36392864 8.97896197 0 9 C0 6.03 0 3.06 0 0 Z " fill="#23484D" transform="translate(218,149)"/>
<path d="M0 0 C4.21752518 -0.02473064 8.43501186 -0.04287453 12.65258789 -0.05493164 C14.08716568 -0.05995842 15.52173836 -0.06678079 16.95629883 -0.07543945 C19.01905582 -0.08757752 21.08174504 -0.09324486 23.14453125 -0.09765625 C24.38565674 -0.10289307 25.62678223 -0.10812988 26.90551758 -0.11352539 C30 0 30 0 33 1 C34.61770585 4.2354117 34.14279662 7.76207351 34.125 11.3125 C34.13080078 12.45235352 34.13080078 12.45235352 34.13671875 13.61523438 C34.13542969 14.35708984 34.13414062 15.09894531 34.1328125 15.86328125 C34.13168457 16.53657471 34.13055664 17.20986816 34.12939453 17.90356445 C34 20 34 20 33 25 C21.45 25 9.9 25 -2 25 C-2 24.67 -2 24.34 -2 24 C7.57 23.67 17.14 23.34 27 23 C24.69 22.67 22.38 22.34 20 22 C19 21 19 21 18.9375 18.4375 C18.958125 17.633125 18.97875 16.82875 19 16 C22.25303044 14.37348478 25.39225602 14.88546844 29 15 C29.33 15.33 29.66 15.66 30 16 C30 14.68 30 13.36 30 12 C29.09644775 12.00523682 28.19289551 12.01047363 27.26196289 12.01586914 C23.92048511 12.03287686 20.57905308 12.04543333 17.23754883 12.05493164 C15.78929927 12.05997101 14.34105483 12.06680253 12.89282227 12.07543945 C10.81525412 12.08752247 8.73775303 12.09323211 6.66015625 12.09765625 C5.40855713 12.10289307 4.15695801 12.10812988 2.86743164 12.11352539 C0 12 0 12 -1 11 C-1 8.69 -1 6.38 -1 4 C9.23 4 19.46 4 30 4 C29.67 3.67 29.34 3.34 29 3 C29 2.34 29 1.68 29 1 C19.43 1 9.86 1 0 1 C0 0.67 0 0.34 0 0 Z " fill="#24494E" transform="translate(150,168)"/>
<path d="M0 0 C4.27070558 -0.08692074 8.54118458 -0.14036515 12.8125 -0.1875 C14.63491211 -0.22520508 14.63491211 -0.22520508 16.49414062 -0.26367188 C18.23920898 -0.27817383 18.23920898 -0.27817383 20.01953125 -0.29296875 C21.09307861 -0.3086792 22.16662598 -0.32438965 23.27270508 -0.34057617 C26 0 26 0 27.8112793 1.39331055 C31.26098517 6.05597524 30.18439674 11.80154245 30.1875 17.375 C30.19974609 18.52484375 30.21199219 19.6746875 30.22460938 20.859375 C30.22654297 21.96539062 30.22847656 23.07140625 30.23046875 24.2109375 C30.23457764 25.22462402 30.23868652 26.23831055 30.24291992 27.28271484 C29.99486043 30.05749091 29.51475251 31.68042076 28 34 C25.40304141 35.2984793 23.51905512 35.12882994 20.60986328 35.13371277 C19.46567932 35.13797775 18.32149536 35.14224274 17.14263916 35.14663696 C15.88127136 35.14618378 14.61990356 35.14573059 13.3203125 35.14526367 C11.98337713 35.1482546 10.64644263 35.15165698 9.30950928 35.15544128 C5.67324115 35.16429113 2.03699654 35.16661978 -1.59928131 35.16725707 C-4.63129616 35.16820526 -7.66330549 35.17188244 -10.69531822 35.17542917 C-17.84570977 35.18357709 -24.99608872 35.18601305 -32.14648438 35.18530273 C-39.53213687 35.1847015 -46.91771642 35.19526163 -54.30335045 35.2110464 C-60.63713107 35.22410268 -66.97088779 35.22948746 -73.30468178 35.22884732 C-77.09082221 35.22859182 -80.87689783 35.23147196 -84.6630249 35.24202538 C-88.22198258 35.25167456 -91.78081304 35.25180759 -95.33977509 35.24450874 C-97.27406933 35.24295702 -99.20836348 35.25133136 -101.14263916 35.25994873 C-102.8589151 35.253657 -102.8589151 35.253657 -104.60986328 35.24723816 C-106.1075676 35.24805531 -106.1075676 35.24805531 -107.63552856 35.24888897 C-110 35 -110 35 -112 33 C-112.125 30.375 -112.125 30.375 -112 28 C-111.34 28.33 -110.68 28.66 -110 29 C-109.67 29.99 -109.34 30.98 -109 32 C-64.45 32.33 -19.9 32.66 26 33 C27.1326317 27.3368415 27.22164204 22.06562108 27.25 16.3125 C27.270625 15.25482422 27.29125 14.19714844 27.3125 13.10742188 C27.31765625 12.09873047 27.3228125 11.09003906 27.328125 10.05078125 C27.34214355 8.66886597 27.34214355 8.66886597 27.35644531 7.2590332 C27.23881836 6.51355225 27.12119141 5.76807129 27 5 C23.2536167 2.50241113 20.10173509 2.5899967 15.75 2.4375 C10.4303384 2.21932889 5.26068189 1.84198745 0 1 C0 0.67 0 0.34 0 0 Z " fill="#224B51" transform="translate(237,206)"/>
<path d="M0 0 C0.99 0.33 1.98 0.66 3 1 C3.33 2.65 3.66 4.3 4 6 C6.64 6.33 9.28 6.66 12 7 C12 4.69 12 2.38 12 0 C13.32 0 14.64 0 16 0 C16 1.65 16 3.3 16 5 C16.60328125 5.02578125 17.2065625 5.0515625 17.828125 5.078125 C21.65821171 5.34993761 24.31015729 5.54571334 27.5625 7.6875 C29.40210303 10.64686139 29.38043326 12.57610062 29 16 C28 17 28 17 25.56640625 17.09765625 C24.57511719 17.08605469 23.58382812 17.07445312 22.5625 17.0625 C21.57378906 17.05347656 20.58507812 17.04445312 19.56640625 17.03515625 C18.71949219 17.02355469 17.87257812 17.01195312 17 17 C16.34 17 15.68 17 15 17 C14.67 17.33 14.34 17.66 14 18 C12.37747508 18.09886353 10.75052727 18.12971167 9.125 18.125 C8.24070313 18.12757813 7.35640625 18.13015625 6.4453125 18.1328125 C4 18 4 18 1 17 C0.67 17.33 0.34 17.66 0 18 C-1.51928038 18.07179964 -3.04167482 18.08392007 -4.5625 18.0625 C-5.38878906 18.05347656 -6.21507812 18.04445312 -7.06640625 18.03515625 C-8.02353516 18.01775391 -8.02353516 18.01775391 -9 18 C-9.33 17.34 -9.66 16.68 -10 16 C-6.7 15.67 -3.4 15.34 0 15 C-0.33 14.01 -0.66 13.02 -1 12 C-4.41656024 11.83322718 -4.41656024 11.83322718 -8 12 C-8.66 12.66 -9.32 13.32 -10 14 C-11 11 -11 11 -10 8 C-7.67793475 7.29508733 -5.34406932 6.62787571 -3 6 C-2.67 5.34 -2.34 4.68 -2 4 C-1.34 4 -0.68 4 0 4 C0 2.68 0 1.36 0 0 Z M5 11 C5 12.32 5 13.64 5 15 C7.31 15 9.62 15 12 15 C12 13.68 12 12.36 12 11 C9.69 11 7.38 11 5 11 Z " fill="#2D5052" transform="translate(218,179)"/>
<path d="M0 0 C5.61 0 11.22 0 17 0 C17.83822706 25.98503898 11.28187491 49.20889193 -1 72 C-1.76763672 73.43085938 -1.76763672 73.43085938 -2.55078125 74.890625 C-4.26416969 78.02425577 -6.01754486 81.02631729 -8 84 C-9.65 83.67 -11.3 83.34 -13 83 C-12.01 82.505 -12.01 82.505 -11 82 C-10.34 82.33 -9.68 82.66 -9 83 C-8.87625 81.4221875 -8.87625 81.4221875 -8.75 79.8125 C-7.91255535 75.55548971 -6.68331396 74.30216835 -4 71 C7.65691084 50.34614456 12.40579361 29.43353779 14 6 C14.66 6 15.32 6 16 6 C16 4.35 16 2.7 16 1 C11.05 1 6.1 1 1 1 C1.20625 3.3925 1.4125 5.785 1.625 8.25 C2.13248634 15.28189825 2.10611952 22.1889819 0 29 C-0.66 29.33 -1.32 29.66 -2 30 C-2.66 30.99 -3.32 31.98 -4 33 C-3.85831863 31.56208484 -3.71148957 30.1246763 -3.5625 28.6875 C-3.48128906 27.88699219 -3.40007812 27.08648437 -3.31640625 26.26171875 C-3 24 -3 24 -2 21 C-1.78717687 19.3752344 -1.61319968 17.74519652 -1.46484375 16.11328125 C-1.33432617 14.7065918 -1.33432617 14.7065918 -1.20117188 13.27148438 C-1.0706543 11.80678711 -1.0706543 11.80678711 -0.9375 10.3125 C-0.84662109 9.32443359 -0.75574219 8.33636719 -0.66210938 7.31835938 C-0.43822483 4.87919617 -0.21869651 2.43963384 0 0 Z " fill="#602E67" transform="translate(324,195)"/>
<path d="M0 0 C0.99 0 1.98 0 3 0 C2.07770884 2.3825855 1.12212785 4.7367244 0.046875 7.0546875 C-2.25178058 12.01223572 -3.75935799 16.6829628 -5 22 C-5.66112457 23.66887283 -6.32814415 25.33541839 -7 27 C-9.59267938 34.95541097 -10.79783891 42.88885801 -11.6875 51.1875 C-11.81705078 52.33025391 -11.94660156 53.47300781 -12.08007812 54.65039062 C-12.39440172 57.43273654 -12.69830299 60.21625665 -13 63 C-8.71 63 -4.42 63 0 63 C-0.04125 61.494375 -0.0825 59.98875 -0.125 58.4375 C-0.125 49.15174496 0.80898006 39.75519337 4 31 C6.59930542 34.89895812 5.95664785 36.48886108 5.3203125 41.07421875 C5.18289139 42.09996758 5.18289139 42.09996758 5.04269409 43.1464386 C4.74778955 45.32846106 4.43662452 47.50780892 4.125 49.6875 C3.92210148 51.16717062 3.72026563 52.64698737 3.51953125 54.12695312 C3.02730723 57.75354581 2.51316111 61.37606474 2 65 C-3.61 65 -9.22 65 -15 65 C-15.99968152 42.40719768 -10.46616382 20.07600514 0 0 Z " fill="#264953" transform="translate(64,129)"/>
<path d="M0 0 C2.62561109 -0.08074203 5.24875676 -0.1403623 7.875 -0.1875 C8.62136719 -0.21263672 9.36773437 -0.23777344 10.13671875 -0.26367188 C12.3046875 -0.29296875 12.3046875 -0.29296875 16 0 C19.12279611 4.68419416 18.568763 9.51919294 18 15 C16.5625 18.25 16.5625 18.25 14 20 C10.95190222 20.38297958 8.05268403 20.29352731 5 20 C5.33 19.01 5.66 18.02 6 17 C1.38 17 -3.24 17 -8 17 C-9.91151056 13.17697889 -10.2533646 11.86616705 -10.1875 7.8125 C-10.18105469 6.93207031 -10.17460937 6.05164063 -10.16796875 5.14453125 C-10 3 -10 3 -9 2 C-7.33382885 1.95936168 -5.66611905 1.957279 -4 2 C-1.67511353 5.63263511 -1.76038787 8.76685233 -2 13 C-2.33 13.33 -2.66 13.66 -3 14 C2.94 14.33 8.88 14.66 15 15 C15 10.38 15 5.76 15 1 C10.05 1 5.1 1 0 1 C0 0.67 0 0.34 0 0 Z " fill="#264850" transform="translate(223,129)"/>
<path d="M0 0 C1.24445641 -0.00087616 1.24445641 -0.00087616 2.51405334 -0.00177002 C5.2523097 0.00101348 7.98947323 0.03211745 10.72753906 0.06347656 C12.62753708 0.07093802 14.5275428 0.0766314 16.42755127 0.08062744 C21.42544852 0.09589128 26.42287992 0.13517964 31.42059326 0.17944336 C36.52154234 0.22037984 41.62256678 0.23863499 46.72363281 0.25878906 C56.73034777 0.30167309 66.73671716 0.36993358 76.74316406 0.45410156 C76.74316406 0.78410156 76.74316406 1.11410156 76.74316406 1.45410156 C59.94619305 2.57868313 43.13411782 2.76359877 26.30700684 2.98632812 C22.51159911 3.03736435 18.71625266 3.09261313 14.92089844 3.14746094 C7.52837278 3.25369495 0.13579474 3.35541488 -7.25683594 3.45410156 C-7.58683594 4.11410156 -7.91683594 4.77410156 -8.25683594 5.45410156 C-8.91683594 5.45410156 -9.57683594 5.45410156 -10.25683594 5.45410156 C-10.58683594 14.03410156 -10.91683594 22.61410156 -11.25683594 31.45410156 C-11.58683594 31.45410156 -11.91683594 31.45410156 -12.25683594 31.45410156 C-12.37291721 27.03765559 -12.44404914 22.62160139 -12.50683594 18.20410156 C-12.54035156 16.94984375 -12.57386719 15.69558594 -12.60839844 14.40332031 C-12.62128906 13.19804687 -12.63417969 11.99277344 -12.64746094 10.75097656 C-12.6684082 9.64077148 -12.68935547 8.53056641 -12.7109375 7.38671875 C-11.58525377 0.11698062 -6.32471985 -0.11654633 0 0 Z " fill="#2E5058" transform="translate(136.2568359375,205.5458984375)"/>
<path d="M0 0 C11.37427676 -0.36691215 21.83320904 0.99997774 33 3 C33.495 4.485 33.495 4.485 34 6 C33.01902344 5.86722656 32.03804687 5.73445313 31.02734375 5.59765625 C21.69120216 4.365416 12.40406094 3.51344011 3 3 C3 6.63 3 10.26 3 14 C4.17755859 14.09087891 4.17755859 14.09087891 5.37890625 14.18359375 C10.95361148 14.62820214 16.47640616 15.12124643 22 16 C22 16.66 22 17.32 22 18 C22.66 18.33 23.32 18.66 24 19 C20.37467934 18.86152362 16.74984096 18.71297357 13.125 18.5625 C12.09246094 18.52318359 11.05992187 18.48386719 9.99609375 18.44335938 C9.00996094 18.40146484 8.02382812 18.35957031 7.0078125 18.31640625 C6.09660645 18.27974854 5.18540039 18.24309082 4.24658203 18.20532227 C2 18 2 18 0 17 C0 11.39 0 5.78 0 0 Z " fill="#CA663A" transform="translate(196,49)"/>
<path d="M0 0 C5.94 0 11.88 0 18 0 C18 0.66 18 1.32 18 2 C21.63 2 25.26 2 29 2 C29 3.32 29 4.64 29 6 C19.43 6 9.86 6 0 6 C0 4.02 0 2.04 0 0 Z " fill="#1C4E52" transform="translate(149,172)"/>
<path d="M0 0 C0.8125 1.6875 0.8125 1.6875 1 4 C-1.30898683 6.50174417 -3.75011445 8.77697928 -6.2890625 11.04296875 C-17.4994047 21.33473776 -24.64758474 35.33024564 -31 49 C-31.66 49 -32.32 49 -33 49 C-32.33501617 44.61110675 -30.81242323 41.0188515 -29 37 C-28.34 37 -27.68 37 -27 37 C-26.505 34.03 -26.505 34.03 -26 31 C-25.34 31 -24.68 31 -24 31 C-23.7215625 29.7625 -23.7215625 29.7625 -23.4375 28.5 C-21.78417125 24.4745039 -19.6006914 22.05952052 -16.67578125 18.8984375 C-14.83887237 16.93533779 -14.83887237 16.93533779 -13.25 14.0625 C-12 12 -12 12 -9 11 C-8.67 10.34 -8.34 9.68 -8 9 C-7 7 -7 7 -4 6 C-2.90833725 4.06669397 -2.90833725 4.06669397 -2 2 C-1.34 1.34 -0.68 0.68 0 0 Z " fill="#254D54" transform="translate(107,97)"/>
<path d="M0 0 C0.495 2.97 0.495 2.97 1 6 C0.34 5.67 -0.32 5.34 -1 5 C-1 4.01 -1 3.02 -1 2 C-15.19 2.33 -29.38 2.66 -44 3 C-44 2.01 -44 1.02 -44 0 C-5.23102867 -1.74367622 -5.23102867 -1.74367622 0 0 Z " fill="#3D5560" transform="translate(244,125)"/>
<path d="M0 0 C0.99 0.33 1.98 0.66 3 1 C2.68111816 1.58773193 2.36223633 2.17546387 2.03369141 2.78100586 C-1.33229807 9.20932905 -3.63139764 15.59873619 -5.625 22.5625 C-6.19940494 24.5224628 -6.77491141 26.48210313 -7.3515625 28.44140625 C-7.62387695 29.37227051 -7.89619141 30.30313477 -8.17675781 31.26220703 C-9.36275058 35.20637159 -10.67231779 39.10144225 -12 43 C-12.66 43 -13.32 43 -14 43 C-13.61010518 36.50175296 -11.67554347 31.09400759 -9.3984375 25.01953125 C-7.49934372 19.77119885 -6.13477051 14.3661201 -4.78808594 8.95361328 C-3.78252039 5.09384094 -2.98152271 2.65086704 0 0 Z " fill="#274652" transform="translate(144,159)"/>
<path d="M0 0 C5.61 0 11.22 0 17 0 C17 5.94 17 11.88 17 18 C16.67 18 16.34 18 16 18 C16 12.39 16 6.78 16 1 C11.05 1 6.1 1 1 1 C1.20625 3.3925 1.4125 5.785 1.625 8.25 C2.13248634 15.28189825 2.10611952 22.1889819 0 29 C-0.66 29.33 -1.32 29.66 -2 30 C-2.66 30.99 -3.32 31.98 -4 33 C-3.85831863 31.56208484 -3.71148957 30.1246763 -3.5625 28.6875 C-3.48128906 27.88699219 -3.40007812 27.08648437 -3.31640625 26.26171875 C-3 24 -3 24 -2 21 C-1.78717687 19.3752344 -1.61319968 17.74519652 -1.46484375 16.11328125 C-1.37783203 15.17548828 -1.29082031 14.23769531 -1.20117188 13.27148438 C-1.11416016 12.29501953 -1.02714844 11.31855469 -0.9375 10.3125 C-0.84662109 9.32443359 -0.75574219 8.33636719 -0.66210938 7.31835938 C-0.43822483 4.87919617 -0.21869651 2.43963384 0 0 Z " fill="#6D3465" transform="translate(324,195)"/>
<path d="M0 0 C0.33 0 0.66 0 1 0 C4.04803296 15.05873426 4.35006153 29.6673049 4 45 C3.67 45 3.34 45 3 45 C3 39.72 3 34.44 3 29 C-1.95 29 -6.9 29 -12 29 C-12 28.67 -12 28.34 -12 28 C-8.04 28 -4.08 28 0 28 C0.10551048 20.29773475 -0.24826783 12.75871835 -0.87890625 5.08984375 C-1 2 -1 2 0 0 Z " fill="#D66430" transform="translate(338,165)"/>
<path d="M0 0 C0.99 0 1.98 0 3 0 C3.06993164 0.55236328 3.13986328 1.10472656 3.21191406 1.67382812 C4.60801505 12.51044478 6.24836931 23.03357262 9.23046875 33.5546875 C10.03195588 37.14307151 10.13589457 40.33553252 10 44 C8 43 8 43 6.81640625 39.84375 C6.38405142 38.4000638 5.9673249 36.95164643 5.5625 35.5 C5.34440674 34.72350098 5.12631348 33.94700195 4.90161133 33.14697266 C2.05840318 22.30678106 1.08573766 11.12779696 0 0 Z " fill="#592A6A" transform="translate(63,198)"/>
<path d="M0 0 C0.66 0 1.32 0 2 0 C2.33865898 3.52034206 2.66996095 7.04134018 3 10.5625 C3.09539063 11.55314453 3.19078125 12.54378906 3.2890625 13.56445312 C3.67679956 17.73262657 4.00164648 21.79028012 3.96875 25.98046875 C3.99791265 28.79831021 4.23580244 30.29183807 5.5 32.75 C7 36 7 36 7 39 C6.01 39 5.02 39 4 39 C0.61190857 26.46406171 -1.88269278 14.05564211 -1 1 C-0.67 0.67 -0.34 0.34 0 0 Z " fill="#592969" transform="translate(50,198)"/>
<path d="M0 0 C2.14576637 -0.02685938 4.29162645 -0.04633088 6.4375 -0.0625 C7.63246094 -0.07410156 8.82742187 -0.08570313 10.05859375 -0.09765625 C13 0 13 0 14 1 C14.125 4 14.125 4 14 7 C13 8 13 8 10.13256836 8.11352539 C8.88096924 8.10828857 7.62937012 8.10305176 6.33984375 8.09765625 C5.34314415 8.09553383 5.34314415 8.09553383 4.3263092 8.09336853 C2.19666101 8.08775518 0.06711661 8.07520054 -2.0625 8.0625 C-3.50325369 8.05748671 -4.94400903 8.05292351 -6.38476562 8.04882812 C-9.92321102 8.03778145 -13.46159539 8.02050792 -17 8 C-17.33 7.34 -17.66 6.68 -18 6 C-8.43 6 1.14 6 11 6 C11 4.68 11 3.36 11 2 C7.37 2 3.74 2 0 2 C0 1.34 0 0.68 0 0 Z " fill="#203F49" transform="translate(167,172)"/>
<path d="M0 0 C-0.33 0.99 -0.66 1.98 -1 3 C-6.68697571 3.91397824 -11.31302429 3.91397824 -17 3 C-17 5.64 -17 8.28 -17 11 C-12.05 11 -7.1 11 -2 11 C-2 11.66 -2 12.32 -2 13 C-9.92 13.495 -9.92 13.495 -18 14 C-19.49498913 11.01002175 -19.11577446 8.29957225 -19 5 C-18.67 4.01 -18.34 3.02 -18 2 C-15.56281065 1.66424944 -13.12529385 1.33130715 -10.6875 1 C-9.99720703 0.90460938 -9.30691406 0.80921875 -8.59570312 0.7109375 C-5.70352927 0.31972558 -2.92235023 0 0 0 Z " fill="#2A4D54" transform="translate(244,147)"/>
<path d="M0 0 C1.77445515 2.66168273 2.48206821 4.23609519 3.2890625 7.23046875 C3.50820312 8.03291016 3.72734375 8.83535156 3.953125 9.66210938 C4.17484375 10.49548828 4.3965625 11.32886719 4.625 12.1875 C4.96917969 13.4549707 4.96917969 13.4549707 5.3203125 14.74804688 C5.88510255 16.83071018 6.44319964 18.91518644 7 21 C6.01 21.33 5.02 21.66 4 22 C3.67386719 20.72382813 3.34773438 19.44765625 3.01171875 18.1328125 C2.57091424 16.46338266 2.12947496 14.79412034 1.6875 13.125 C1.36749023 11.86236328 1.36749023 11.86236328 1.04101562 10.57421875 C0.82509766 9.76855469 0.60917969 8.96289062 0.38671875 8.1328125 C0.19295654 7.38918457 -0.00080566 6.64555664 -0.20043945 5.87939453 C-0.95201937 3.63585708 -0.95201937 3.63585708 -4 2 C-5.92744369 1.6373883 -5.92744369 1.6373883 -8.01171875 1.5859375 C-8.76904297 1.54726562 -9.52636719 1.50859375 -10.30664062 1.46875 C-11.09232422 1.4378125 -11.87800781 1.406875 -12.6875 1.375 C-13.88342773 1.31699219 -13.88342773 1.31699219 -15.10351562 1.2578125 C-17.06863475 1.16367506 -19.0342854 1.08075368 -21 1 C-21 0.67 -21 0.34 -21 0 C-18.62543835 -0.1963696 -16.25079981 -0.38231294 -13.875 -0.5625 C-13.20984375 -0.61857422 -12.5446875 -0.67464844 -11.859375 -0.73242188 C-7.73871946 -1.03541125 -4.00264728 -1.08677219 0 0 Z " fill="#22454C" transform="translate(248,160)"/>
<path d="M0 0 C0.66 0 1.32 0 2 0 C2 0.99 2 1.98 2 3 C0.66666667 4.33333333 -0.66666667 5.66666667 -2 7 C-3.40818286 9.31668793 -4.72503353 11.61292774 -6 14 C-6.84961846 15.58577855 -7.703909 17.16906147 -8.5625 18.75 C-8.95566406 19.48734375 -9.34882812 20.2246875 -9.75390625 20.984375 C-10.98629864 22.9778373 -12.32135157 24.38180152 -14 26 C-14.33 26.66 -14.66 27.32 -15 28 C-15.66 28 -16.32 28 -17 28 C-15.59478925 24.28429849 -13.91641021 20.85328453 -12 17.375 C-11.484375 16.43398437 -10.96875 15.49296875 -10.4375 14.5234375 C-9.3640955 12.63914591 -8.20291339 10.80437008 -7 9 C-6.34 9 -5.68 9 -5 9 C-4.9175 8.443125 -4.835 7.88625 -4.75 7.3125 C-3.76104459 4.26322081 -2.15242534 2.34810037 0 0 Z " fill="#2E4F59" transform="translate(82,101)"/>
<path d="M0 0 C1 1 1 1 1.0625 4.0625 C1.041875 5.031875 1.02125 6.00125 1 7 C-2.3 7 -5.6 7 -9 7 C-9 5.02 -9 3.04 -9 1 C-5.78419562 -0.07193479 -3.36629251 -0.14636054 0 0 Z " fill="#C5632D" transform="translate(244,188)"/>
<path d="M0 0 C0.33 0 0.66 0 1 0 C1.495 7.92 1.495 7.92 2 16 C-2.77535612 16.79589269 -7.08611498 17.1228251 -11.875 17.0625 C-12.90753906 17.05573242 -12.90753906 17.05573242 -13.9609375 17.04882812 C-15.64066335 17.03716336 -17.32034375 17.01923271 -19 17 C-18.67 16.34 -18.34 15.68 -18 15 C-16.23413086 14.58935547 -16.23413086 14.58935547 -13.96484375 14.3671875 C-13.15595703 14.28339844 -12.34707031 14.19960937 -11.51367188 14.11328125 C-10.2384668 13.99533203 -10.2384668 13.99533203 -8.9375 13.875 C-8.08349609 13.78863281 -7.22949219 13.70226563 -6.34960938 13.61328125 C-4.23389367 13.40052772 -2.11703476 13.19920047 0 13 C0 8.71 0 4.42 0 0 Z " fill="#23464F" transform="translate(192,50)"/>
<path d="M0 0 C0.66 0 1.32 0 2 0 C2.39832031 0.80824219 2.79664062 1.61648438 3.20703125 2.44921875 C3.73683594 3.51785156 4.26664062 4.58648437 4.8125 5.6875 C5.33457031 6.74324219 5.85664062 7.79898437 6.39453125 8.88671875 C7.94289768 11.98369662 7.94289768 11.98369662 9.69921875 14.76953125 C11 17 11 17 11 19 C12.32 19.66 13.64 20.32 15 21 C13.35 21.33 11.7 21.66 10 22 C8.31940914 19.09114752 6.65804891 16.17175106 5 13.25 C4.52304688 12.425 4.04609375 11.6 3.5546875 10.75 C3.10351562 9.95078125 2.65234375 9.1515625 2.1875 8.328125 C1.55908203 7.22839355 1.55908203 7.22839355 0.91796875 6.10644531 C0 4 0 4 0 0 Z " fill="#5C2A6A" transform="translate(63,256)"/>
<path d="M0 0 C2.05078125 0.03255208 4.1015625 0.06510417 6.15234375 0.09765625 C6.15234375 0.75765625 6.15234375 1.41765625 6.15234375 2.09765625 C3.51234375 2.09765625 0.87234375 2.09765625 -1.84765625 2.09765625 C-1.51765625 3.74765625 -1.18765625 5.39765625 -0.84765625 7.09765625 C-5.23350954 7.79939278 -9.40556268 8.206 -13.84765625 8.09765625 C-14.17765625 7.43765625 -14.50765625 6.77765625 -14.84765625 6.09765625 C-12.53765625 6.09765625 -10.22765625 6.09765625 -7.84765625 6.09765625 C-7.84765625 4.77765625 -7.84765625 3.45765625 -7.84765625 2.09765625 C-6.64109375 1.88109375 -6.64109375 1.88109375 -5.41015625 1.66015625 C-3.00108527 1.13133579 -2.30025288 0.12157785 0 0 Z " fill="#2E4E55" transform="translate(223.84765625,167.90234375)"/>
<path d="M0 0 C1.2065625 0.0309375 1.2065625 0.0309375 2.4375 0.0625 C3.8981285 2.70988916 4.4375 3.95698334 4.4375 7.0625 C2.7875 7.0625 1.1375 7.0625 -0.5625 7.0625 C-0.8925 8.0525 -1.2225 9.0425 -1.5625 10.0625 C-2.2225 9.7325 -2.8825 9.4025 -3.5625 9.0625 C-3.66015625 2.91015625 -3.66015625 2.91015625 -3.5625 1.0625 C-2.5625 0.0625 -2.5625 0.0625 0 0 Z " fill="#3A4F54" transform="translate(216.5625,130.9375)"/>
<path d="M0 0 C3.96 0 7.92 0 12 0 C12 1.32 12 2.64 12 4 C7.71 4 3.42 4 -1 4 C-0.67 2.68 -0.34 1.36 0 0 Z " fill="#43525A" transform="translate(150,186)"/>
<path d="M0 0 C8.91 1.485 8.91 1.485 18 3 C18 3.33 18 3.66 18 4 C12.03325384 5.32594359 6.07416385 5.0884587 0 5 C0 3.35 0 1.7 0 0 Z " fill="#245258" transform="translate(149,173)"/>
<path d="M0 0 C0.33 0 0.66 0 1 0 C1 9.9 1 19.8 1 30 C2.98 30.33 4.96 30.66 7 31 C6.67 31.66 6.34 32.32 6 33 C4.02 33 2.04 33 0 33 C0 22.11 0 11.22 0 0 Z " fill="#2F262D" transform="translate(192,272)"/>
<path d="M0 0 C0.33 0 0.66 0 1 0 C0.65198038 6.07234226 0.0099544 10.60716504 -3 16 C-3.69907414 18.73572585 -3.69907414 18.73572585 -4 21 C-4.66 21 -5.32 21 -6 21 C-5.52162972 14.7811864 -4.56630899 4.56630899 0 0 Z " fill="#2A4A55" transform="translate(136,181)"/>
<path d="M0 0 C0.99 0 1.98 0 3 0 C5.61407872 5.36190101 7.49228528 10.03435204 8 16 C3.41031936 12.39382235 1.76494951 7.38872881 0 2 C0 1.34 0 0.68 0 0 Z " fill="#5D2C6D" transform="translate(73,243)"/>
<path d="M0 0 C1.07765625 0.00902344 2.1553125 0.01804688 3.265625 0.02734375 C4.08546875 0.03894531 4.9053125 0.05054688 5.75 0.0625 C5.75 0.7225 5.75 1.3825 5.75 2.0625 C3.33440932 2.42604039 0.91805703 2.77860551 -1.5 3.125 C-2.18191406 3.22876953 -2.86382812 3.33253906 -3.56640625 3.43945312 C-7.0349925 3.92774925 -9.91911113 4.29012141 -13.25 3.0625 C-12.26 3.0625 -11.27 3.0625 -10.25 3.0625 C-10.25 2.4025 -10.25 1.7425 -10.25 1.0625 C-6.78777385 -0.00473961 -3.60960734 -0.03923486 0 0 Z " fill="#284B54" transform="translate(177.25,49.9375)"/>
<path d="M0 0 C3.63 0 7.26 0 11 0 C10.67 0.99 10.34 1.98 10 3 C7.69 3 5.38 3 3 3 C3 4.65 3 6.3 3 8 C2.34 8 1.68 8 1 8 C0.67 5.36 0.34 2.72 0 0 Z " fill="#2D555D" transform="translate(233,176)"/>
<path d="M0 0 C0 0.66 0 1.32 0 2 C-1.051875 2.5775 -2.10375 3.155 -3.1875 3.75 C-5.65237227 5.13649065 -7.51498153 6.44312364 -9.6875 8.3125 C-10.450625 8.869375 -11.21375 9.42625 -12 10 C-14.14453125 9.60546875 -14.14453125 9.60546875 -16 9 C-14.61019248 7.86756424 -13.21285323 6.74436881 -11.8125 5.625 C-11.03519531 4.99851562 -10.25789063 4.37203125 -9.45703125 3.7265625 C-6.49069646 1.64211103 -3.68895147 0 0 0 Z " fill="#284D58" transform="translate(131,82)"/>
<path d="M0 0 C0.99 0.33 1.98 0.66 3 1 C3.04241723 3.33294775 3.04092937 5.66702567 3 8 C2 9 2 9 -0.28515625 9.09765625 C-1.65994141 9.08025391 -1.65994141 9.08025391 -3.0625 9.0625 C-3.98160156 9.05347656 -4.90070313 9.04445312 -5.84765625 9.03515625 C-6.55792969 9.02355469 -7.26820313 9.01195312 -8 9 C-8.33 8.34 -8.66 7.68 -9 7 C-5.78548731 5.39274365 -2.56387464 5.94251815 1 6 C0.67 4.02 0.34 2.04 0 0 Z " fill="#1F464A" transform="translate(230,188)"/>
<path d="M0 0 C3.3 0 6.6 0 10 0 C9.01 1.485 9.01 1.485 8 3 C4.875 3.1875 4.875 3.1875 2 3 C1.01 4.98 0.02 6.96 -1 9 C-1.66 8.01 -2.32 7.02 -3 6 C-2.01 4.02 -1.02 2.04 0 0 Z " fill="#363036" transform="translate(165,270)"/>
<path d="M0 0 C1.32 0.33 2.64 0.66 4 1 C4.33 2.98 4.66 4.96 5 7 C2.6875 9.0625 2.6875 9.0625 0 11 C-0.99 10.67 -1.98 10.34 -3 10 C-2.319375 9.46375 -1.63875 8.9275 -0.9375 8.375 C1.38259327 6.08837848 1.38259327 6.08837848 0.75 2.75 C0.5025 1.8425 0.255 0.935 0 0 Z " fill="#5F2D6C" transform="translate(83,263)"/>
<path d="M0 0 C2.39763185 2.39763185 2.34280586 3.33273498 2.625 6.625 C2.69976562 7.44226563 2.77453125 8.25953125 2.8515625 9.1015625 C2.90054688 9.72804687 2.94953125 10.35453125 3 11 C3.66 11 4.32 11 5 11 C5 12.32 5 13.64 5 15 C4.34 15 3.68 15 3 15 C2.29634398 13.4447088 1.61270622 11.88035173 0.9375 10.3125 C0.55464844 9.44238281 0.17179687 8.57226562 -0.22265625 7.67578125 C-1.0935848 4.67786136 -0.85006226 2.96719847 0 0 Z " fill="#5C2B6D" transform="translate(57,238)"/>
<path d="M0 0 C2.97 0.33 5.94 0.66 9 1 C9 1.33 9 1.66 9 2 C6.36 2 3.72 2 1 2 C1 3.65 1 5.3 1 7 C3.97 7 6.94 7 10 7 C10 7.66 10 8.32 10 9 C7.03 9 4.06 9 1 9 C-0.79682816 5.19495213 -1.07349791 4.29399165 0 0 Z " fill="#284A50" transform="translate(234,167)"/>
<path d="M0 0 C5.61 0 11.22 0 17 0 C17 0.66 17 1.32 17 2 C5.47835991 3.51708428 5.47835991 3.51708428 0 1 C0 0.67 0 0.34 0 0 Z " fill="#1D4648" transform="translate(149,172)"/>
<path d="M0 0 C1.65 0 3.3 0 5 0 C4.67 1.65 4.34 3.3 4 5 C2.35 5.33 0.7 5.66 -1 6 C-1.66 4.68 -2.32 3.36 -3 2 C-2.34 2 -1.68 2 -1 2 C-0.67 1.34 -0.34 0.68 0 0 Z " fill="#2A4146" transform="translate(216,138)"/>
<path d="M0 0 C0.99 0.495 0.99 0.495 2 1 C1.67 2.65 1.34 4.3 1 6 C3.97 6 6.94 6 10 6 C10 6.99 10 7.98 10 9 C3.9453125 9.1953125 3.9453125 9.1953125 2 9 C0 7 0 7 -0.125 3.375 C-0.08375 2.26125 -0.0425 1.1475 0 0 Z " fill="#1D454D" transform="translate(194,188)"/>
<path d="M0 0 C-0.33 0.99 -0.66 1.98 -1 3 C-6.68697571 3.91397824 -11.31302429 3.91397824 -17 3 C-17.33 4.32 -17.66 5.64 -18 7 C-18 5.35 -18 3.7 -18 2 C-15.56281065 1.66424944 -13.12529385 1.33130715 -10.6875 1 C-9.99720703 0.90460938 -9.30691406 0.80921875 -8.59570312 0.7109375 C-5.70352927 0.31972558 -2.92235023 0 0 0 Z " fill="#325159" transform="translate(244,147)"/>
<path d="M0 0 C0.66 0.66 1.32 1.32 2 2 C-0.64 2.66 -3.28 3.32 -6 4 C-6.33 5.32 -6.66 6.64 -7 8 C-7.66 8 -8.32 8 -9 8 C-9.1875 5.125 -9.1875 5.125 -9 2 C-5.54754176 -0.30163882 -4.05261287 -0.34490322 0 0 Z " fill="#204B4E" transform="translate(198,218)"/>
<path d="M0 0 C0.99 0.495 0.99 0.495 2 1 C2.62669199 3.16467461 3.15427374 5.35864524 3.625 7.5625 C3.88539062 8.76003906 4.14578125 9.95757812 4.4140625 11.19140625 C4.60742188 12.11824219 4.80078125 13.04507812 5 14 C2 13 2 13 0.8125 10.9375 C-0.23642055 7.14524878 -0.13319932 3.92937998 0 0 Z " fill="#373036" transform="translate(101,272)"/>
<path d="M0 0 C2.0625 0.4375 2.0625 0.4375 4 1 C2.68 1.33 1.36 1.66 0 2 C0.33 2.99 0.66 3.98 1 5 C3.31 5.33 5.62 5.66 8 6 C8 6.66 8 7.32 8 8 C1.84765625 8.09765625 1.84765625 8.09765625 0 8 C-1 7 -1 7 -1.125 4 C-1 1 -1 1 0 0 Z " fill="#37535A" transform="translate(222,178)"/>
<path d="M0 0 C0.33 0.99 0.66 1.98 1 3 C-4.28 2.34 -9.56 1.68 -15 1 C-15 0.67 -15 0.34 -15 0 C-9.77254141 -1.2063366 -5.23471686 -0.75612577 0 0 Z " fill="#D26532" transform="translate(229,52)"/>
<path d="M0 0 C0.66 0.33 1.32 0.66 2 1 C1.34 2.65 0.68 4.3 0 6 C-2.64 6 -5.28 6 -8 6 C-7.67 4.68 -7.34 3.36 -7 2 C-4.69 2.33 -2.38 2.66 0 3 C0 2.01 0 1.02 0 0 Z " fill="#342A32" transform="translate(160,299)"/>
<path d="M0 0 C1.2065625 0.0309375 1.2065625 0.0309375 2.4375 0.0625 C3.0975 1.3825 3.7575 2.7025 4.4375 4.0625 C3.4475 4.0625 2.4575 4.0625 1.4375 4.0625 C1.4375 3.4025 1.4375 2.7425 1.4375 2.0625 C-1.07333114 3.31791557 -1.43375446 4.56313488 -2.5625 7.0625 C-2.8925 7.0625 -3.2225 7.0625 -3.5625 7.0625 C-3.60504356 5.06295254 -3.60330783 3.06208364 -3.5625 1.0625 C-2.5625 0.0625 -2.5625 0.0625 0 0 Z " fill="#33494C" transform="translate(216.5625,130.9375)"/>
<path d="M0 0 C2.97 0 5.94 0 9 0 C8.67 0.99 8.34 1.98 8 3 C5.36 3 2.72 3 0 3 C0 2.01 0 1.02 0 0 Z " fill="#352D32" transform="translate(133,302)"/>
<path d="M0 0 C0 0.99 0 1.98 0 3 C-6.0546875 3.1953125 -6.0546875 3.1953125 -8 3 C-8.66 2.34 -9.32 1.68 -10 1 C-6.78548731 -0.60725635 -3.56387464 -0.05748185 0 0 Z " fill="#352F33" transform="translate(119,302)"/>
<path d="M0 0 C0.66 0.33 1.32 0.66 2 1 C2 2.32 2 3.64 2 5 C-0.97 4.505 -0.97 4.505 -4 4 C-4 3.34 -4 2.68 -4 2 C-5.98 2 -7.96 2 -10 2 C-10 1.67 -10 1.34 -10 1 C-3.375 0.875 -3.375 0.875 0 2 C0 1.34 0 0.68 0 0 Z " fill="#352D34" transform="translate(286,275)"/>
<path d="M0 0 C0 0.66 0 1.32 0 2 C-1.43333021 2.39063507 -2.87192679 2.76198474 -4.3125 3.125 C-5.51326172 3.43824219 -5.51326172 3.43824219 -6.73828125 3.7578125 C-9 4 -9 4 -12 2 C-10.56656 1.46809459 -9.12804633 0.94984742 -7.6875 0.4375 C-6.48673828 0.00244141 -6.48673828 0.00244141 -5.26171875 -0.44140625 C-3 -1 -3 -1 0 0 Z " fill="#264E52" transform="translate(159,70)"/>
<path d="M0 0 C0.66 0.99 1.32 1.98 2 3 C-0.55068845 5.35448165 -1.71017358 5.98327924 -5.25 6.1875 C-6.1575 6.125625 -7.065 6.06375 -8 6 C-6.49650603 2.99301207 -3.9581052 2.41742541 -1 1 C-0.67 0.67 -0.34 0.34 0 0 Z " fill="#352C34" transform="translate(287,298)"/>
<path d="M0 0 C0.66 0.66 1.32 1.32 2 2 C0.6875 5.4375 0.6875 5.4375 -1 9 C-1.99 9.33 -2.98 9.66 -4 10 C-2.8905928 6.51329166 -1.73662334 3.22515763 0 0 Z " fill="#68336D" transform="translate(313,246)"/>
<path d="M0 0 C0.99 0 1.98 0 3 0 C3.33 3.3 3.66 6.6 4 10 C3.34 10 2.68 10 2 10 C1.34 6.7 0.68 3.4 0 0 Z " fill="#592F6C" transform="translate(63,198)"/>
<path d="M0 0 C0 0.99 0 1.98 0 3 C-2.97 3 -5.94 3 -9 3 C-9.33 2.34 -9.66 1.68 -10 1 C-6.56484998 0.37542727 -3.50935186 0 0 0 Z " fill="#20454C" transform="translate(218,194)"/>
<path d="M0 0 C0.66 0 1.32 0 2 0 C1.40049704 3.68266103 0.75241109 7.34543185 0 11 C-0.66 11 -1.32 11 -2 11 C-1.125 3.375 -1.125 3.375 0 0 Z " fill="#30505B" transform="translate(132,191)"/>
<path d="M0 0 C0.99 0.33 1.98 0.66 3 1 C1.37660195 2.70884005 -0.29319053 4.37446717 -2 6 C-2.66 6 -3.32 6 -4 6 C-4.33 6.99 -4.66 7.98 -5 9 C-5.66 8.67 -6.32 8.34 -7 8 C-5.625 6 -5.625 6 -4 4 C-3.34 4 -2.68 4 -2 4 C-1.34 2.68 -0.68 1.36 0 0 Z " fill="#334F5E" transform="translate(91,91)"/>
<path d="M0 0 C0.99 0 1.98 0 3 0 C2.01 2.97 1.02 5.94 0 9 C-0.66 8.01 -1.32 7.02 -2 6 C-1.125 2.8125 -1.125 2.8125 0 0 Z " fill="#373337" transform="translate(122,270)"/>
<path d="M0 0 C5.875 2.75 5.875 2.75 7 5 C6.34 5.66 5.68 6.32 5 7 C3.02 5.35 1.04 3.7 -1 2 C-0.67 1.34 -0.34 0.68 0 0 Z " fill="#362D35" transform="translate(212,270)"/>
<path d="M0 0 C0.33 0 0.66 0 1 0 C1.44539877 8.7595092 1.44539877 8.7595092 -2 13 C-2.66 13 -3.32 13 -4 13 C-3.52140759 11.39566191 -3.04210442 9.79153584 -2.5625 8.1875 C-2.29566406 7.29417969 -2.02882813 6.40085938 -1.75390625 5.48046875 C-1.19612127 3.64526945 -0.60655425 1.81966274 0 0 Z " fill="#703A73" transform="translate(318,232)"/>
<path d="M0 0 C0 0.99 0 1.98 0 3 C-2.73905345 4.36952673 -4.97087332 4.12621361 -8 4 C-8.66 3.67 -9.32 3.34 -10 3 C-10 2.34 -10 1.68 -10 1 C-9.36191406 1.01160156 -8.72382813 1.02320313 -8.06640625 1.03515625 C-7.24011719 1.04417969 -6.41382813 1.05320313 -5.5625 1.0625 C-4.32693359 1.07990234 -4.32693359 1.07990234 -3.06640625 1.09765625 C-1.00836062 1.23267348 -1.00836062 1.23267348 0 0 Z " fill="#214A4D" transform="translate(200,227)"/>
<path d="M0 0 C2.31 0 4.62 0 7 0 C7 0.33 7 0.66 7 1 C5.02 1 3.04 1 1 1 C1.33 3.31 1.66 5.62 2 8 C1.01 8.495 1.01 8.495 0 9 C-1.125 2.25 -1.125 2.25 0 0 Z " fill="#1F484D" transform="translate(194,167)"/>
<path d="M0 0 C5.02692063 0.45699278 8.14896261 2.99241748 12 6 C11.01 6.33 10.02 6.66 9 7 C6.73828125 5.8203125 6.73828125 5.8203125 4.3125 4.125 C3.50425781 3.57070312 2.69601562 3.01640625 1.86328125 2.4453125 C1.24839844 1.96835938 0.63351562 1.49140625 0 1 C0 0.67 0 0.34 0 0 Z " fill="#CE6A34" transform="translate(271,73)"/>
<path d="M0 0 C0.33 0.99 0.66 1.98 1 3 C3.97 3.495 3.97 3.495 7 4 C6.67 4.66 6.34 5.32 6 6 C4.02 6 2.04 6 0 6 C0 4.02 0 2.04 0 0 Z " fill="#342E32" transform="translate(192,299)"/>
<path d="M0 0 C0.99 0.33 1.98 0.66 3 1 C1.515 4.465 1.515 4.465 0 8 C-0.66 8 -1.32 8 -2 8 C-1.34 5.36 -0.68 2.72 0 0 Z " fill="#382E35" transform="translate(121,293)"/>
<path d="M0 0 C0.391875 0.45375 0.78375 0.9075 1.1875 1.375 C3.30832487 3.27642919 5.33042235 4.06204028 8 5 C8 5.33 8 5.66 8 6 C5.1875 6.25 5.1875 6.25 2 6 C0.125 4 0.125 4 -1 2 C-0.67 1.34 -0.34 0.68 0 0 Z " fill="#382D36" transform="translate(264,283)"/>
<path d="M0 0 C0.66 0 1.32 0 2 0 C1.34 2.97 0.68 5.94 0 9 C-0.99 8.67 -1.98 8.34 -3 8 C-2.01 5.36 -1.02 2.72 0 0 Z " fill="#392F38" transform="translate(144,270)"/>
<path d="M0 0 C0.66 0 1.32 0 2 0 C2 3 2 3 -0.375 5.625 C-3 8 -3 8 -5 9 C-4.42676569 5.13066838 -2.61046448 2.84777943 0 0 Z " fill="#31505D" transform="translate(82,101)"/>
<path d="M0 0 C2.97 0.33 5.94 0.66 9 1 C8.67 1.66 8.34 2.32 8 3 C5.67843403 3.40729228 3.3431213 3.74438677 1 4 C0.67 2.68 0.34 1.36 0 0 Z " fill="#315156" transform="translate(195,183)"/>
<path d="M0 0 C1.79158489 -0.02696365 3.58328473 -0.04637917 5.375 -0.0625 C6.37273437 -0.07410156 7.37046875 -0.08570313 8.3984375 -0.09765625 C11 0 11 0 13 1 C13 1.66 13 2.32 13 3 C8.71 2.34 4.42 1.68 0 1 C0 0.67 0 0.34 0 0 Z " fill="#332E33" transform="translate(199,276)"/>
<path d="M0 0 C0.66 0 1.32 0 2 0 C3.125 2.8125 3.125 2.8125 4 6 C3.01 7.485 3.01 7.485 2 9 C1.34 6.03 0.68 3.06 0 0 Z " fill="#382D36" transform="translate(130,272)"/>
<path d="M0 0 C0.33 0 0.66 0 1 0 C1.33 1.98 1.66 3.96 2 6 C0.68 6 -0.64 6 -2 6 C-1.125 1.125 -1.125 1.125 0 0 Z " fill="#582667" transform="translate(305,265)"/>
<path d="M0 0 C0.33 0.66 0.66 1.32 1 2 C-1.64 2.99 -4.28 3.98 -7 5 C-7.66 4.34 -8.32 3.68 -9 3 C-6.03 2.01 -3.06 1.02 0 0 Z " fill="#285056" transform="translate(144,75)"/>
<path d="M0 0 C4.95 0.99 4.95 0.99 10 2 C10 2.33 10 2.66 10 3 C7.03 3 4.06 3 1 3 C0.67 2.01 0.34 1.02 0 0 Z " fill="#322B32" transform="translate(265,301)"/>
<path d="M0 0 C0.33 0 0.66 0 1 0 C1.33 2.64 1.66 5.28 2 8 C0.68 8.33 -0.64 8.66 -2 9 C-2.33 8.34 -2.66 7.68 -3 7 C-2.01 7 -1.02 7 0 7 C0 4.69 0 2.38 0 0 Z " fill="#304D54" transform="translate(238,137)"/>
</svg>
